SplineFontDB: 3.0
FontName: Gidole-Light
FullName: Gidole Light
FamilyName: Gidole
Weight: Light
Copyright: Copyright (c) 2014, Andreas Larsen (<andreaslarsen.dk|mail@andreaslarsen.dk>), with Reserved Font Name Gidole Sans.
Version: 0.4
ItalicAngle: 0
UnderlinePosition: -50
UnderlineWidth: 50
Ascent: 760
Descent: 240
InvalidEm: 0
sfntRevision: 0x00006667
LayerCount: 4
Layer: 0 0 "Back" 1
Layer: 1 0 "Fore" 0
Layer: 2 0 "Back 2" 1
Layer: 3 0 "Back 3" 1
HasVMetrics: 1
XUID: [1021 365 -928128380 14339766]
FSType: 0
OS2Version: 4
OS2_WeightWidthSlopeOnly: 1
OS2_UseTypoMetrics: 1
CreationTime: 1417722385
ModificationTime: 1419344474
PfmFamily: 33
TTFWeight: 300
TTFWidth: 5
LineGap: 0
VLineGap: 0
Panose: 2 0 5 3 0 0 0 0 0 0
OS2TypoAscent: 760
OS2TypoAOffset: 0
OS2TypoDescent: -240
OS2TypoDOffset: 0
OS2TypoLinegap: 0
OS2WinAscent: 1000
OS2WinAOffset: 0
OS2WinDescent: 265
OS2WinDOffset: 0
HheadAscent: 1000
HheadAOffset: 0
HheadDescent: 265
HheadDOffset: 0
OS2SubXSize: 650
OS2SubYSize: 700
OS2SubXOff: 0
OS2SubYOff: 140
OS2SupXSize: 650
OS2SupYSize: 700
OS2SupXOff: 0
OS2SupYOff: 480
OS2StrikeYSize: 49
OS2StrikeYPos: 258
OS2CapHeight: 0
OS2XHeight: 0
OS2Vendor: 'PfEd'
OS2CodePages: 00000001.00000000
OS2UnicodeRanges: 00000001.00000000.00000000.00000000
Lookup: 1 0 0 "'salt' Stylistic Alternatives lookup 0" { "'salt' Stylistic Alternatives lookup 0-1"  } ['salt' ('DFLT' <'dflt' > 'grek' <'dflt' > 'latn' <'dflt' > ) ]
Lookup: 258 0 0 "'kern' Horizontal Kerning lookup 0" { "'kern' Horizontal Kerning lookup 0-1" [150,15,0] } ['kern' ('DFLT' <'dflt' > 'grek' <'dflt' > 'latn' <'dflt' > ) ]
Lookup: 260 0 0 "'mark' Mark Positioning in Latin lookup 0" { "'mark' Mark Positioning in Latin lookup 0-1"  } []
MarkAttachClasses: 1
DEI: 91125
KernClass2: 28 23 "'kern' Horizontal Kerning lookup 0-1"
 1 c

StartChar: period
Encoding: 46 46 1
Width: 192
VWidth: 0
Flags: W
HStem: 4 92<56.2031 135.797>
VStem: 50 92<10.2031 89.7969>
LayerCount: 4
Back
Fore
SplineSet
50 50 m 0
 50 77.3671875 68.6328125 96 96 96 c 0
 123.3671875 96 142 77.3671875 142 50 c 0
 142 22.6328125 123.3671875 4 96 4 c 0
 68.6328125 4 50 22.6328125 50 50 c 0
EndSplineSet
Layer: 2
Layer: 3
EndChar

StartChar: zero
Encoding: 48 48 2
Width: 500
Flags: W
HStem: 4 60<178.935 321.064> 613 60<178.936 321.065>
VStem: 65 64<117.834 559.166> 371 64<117.834 559.166>
LayerCount: 4
Back
Fore
SplineSet
435 478 m 0
 435 199 l 2
 435 56.056640625 340.041992188 4 250 4 c 0
 159.958007812 4 65 56.056640625 65 199 c 0
 65 478 l 0
 65 620.943359375 159.958007812 673 250 673 c 0
 340.041992188 673 435 620.943359375 435 478 c 0
129 478 m 0
 129 199 l 2
 129 99.1376953125 191.435616629 64 250 64 c 0
 308.560756138 64 371 99.126953125 371 199 c 0
 371 478 l 0
 371 577.862304688 308.564383371 613 250 613 c 0
 191.439243862 613 129 577.873046875 129 478 c 0
EndSplineSet
Layer: 2
Layer: 3
EndChar

StartChar: one
Encoding: 49 49 3
Width: 311
Flags: W
HStem: 0 21G<160.272 224.272>
VStem: 160.272 64<0 585.287>
LayerCount: 4
Back
Fore
SplineSet
55 600.79296875 m 1
 166.4609375 657 l 1
 224.272460938 657 l 1
 224.272460938 0 l 1
 160.272460938 0 l 1
 160.272460938 585.287109375 l 1
 83.431640625 544.790039062 l 1
 55 600.79296875 l 1
EndSplineSet
Layer: 2
Layer: 3
EndChar

StartChar: two
Encoding: 50 50 4
Width: 495
Flags: W
HStem: 0 60.9053<148.884 435> 613 60<139.346 299.005>
VStem: 342 64<406.409 568.733>
LayerCount: 4
Back
SplineSet
240 378 m 6
 312 378 352 424 352 490 c 4xec
 352 554 314 603 240 603 c 5
 210 603 160 595 111 557 c 5
 68 613 l 5
 124 662 197 673 240 673 c 5
 360 673 426 593 426 490 c 4xec
 426 422 392 371 349 344 c 5
 398 315 435 259 435 186 c 4
 435 79 365 -6 240 -6 c 5
 179 -6 106 12 55 56 c 5
 102 109 l 5
 139 76 193 64 240 64 c 5
 320 64 359 116 359 186 c 4
 359 245 332 308 240 308 c 6xf2
 172 308 l 5
 172 378 l 5
 240 378 l 6
EndSplineSet
Fore
SplineSet
342 493.04296875 m 0
 342 560.377929688 304.171977198 613 231.802325581 613 c 0
 198.8565248 613 148.994140625 605.96484375 99.671875 565.165039062 c 1
 61.8095703125 612.491210938 l 1
 117.447265625 662.294921875 188.061920876 673 231.802325581 673 c 0
 342.265625 673 406 594.421875 406 492.315429688 c 0
 406 450.400390625 400.552734375 405.46484375 343.055664062 332.006835938 c 1
 148.883789062 60.9052734375 l 1
 435 60.9052734375 l 1
 435 0 l 1
 60 0 l 1
 60 44.0244140625 l 1
 299.61627907 372.069335938 l 0
 331.078465661 417.346679688 342 452.288085938 342 493.04296875 c 0
EndSplineSet
Layer: 2
Layer: 3
EndChar

StartChar: three
Encoding: 51 51 5
Width: 491
VWidth: 0
Flags: W
HStem: -1 60<130.203 302.531> 313 60<170.958 297.259> 613 60<138.032 296.914>
VStem: 340.958 64<417.086 567.562> 349.958 64<108.805 264.627>
LayerCount: 4
Back
Fore
SplineSet
413.958007812 186 m 0xe8
 413.958007812 81.421875 346.197265625 -1 229.222827973 -1 c 0
 174.680187749 -1 100.932617188 16.2939453125 51 61.2578125 c 1
 92.2138671875 105.90625 l 1
 132.075195312 70.453125 186.413439095 59 229.222827973 59 c 0
 307.767578125 59 349.958007812 113.793945312 349.958007812 186 c 0xe8
 349.958007812 246.60546875 320.243164062 313 229.222827973 313 c 0
 170.958007812 313 l 1
 170.958007812 373 l 1
 229.222827973 373 l 0
 298.639648438 373 340.958007812 422.653320312 340.958007812 492.489257812 c 0
 340.958007812 560.134765625 300.793945312 613 229.222827973 613 c 0
 196.873300324 613 147.952148438 605.96484375 98.62890625 565.165039062 c 1
 60.767578125 612.491210938 l 1
 116.405273438 662.294921875 186.275262721 673 229.222827973 673 c 0
 341.223632812 673 404.958007812 594.499023438 404.958007812 492.493164062 c 0xf0
 404.958007812 425.303710938 371.91015625 375.2265625 330.298828125 348.73046875 c 0
 323.354492188 344.30859375 l 1
 330.411132812 340.073242188 l 0
 377.9296875 311.880859375 413.958007812 257.413085938 413.958007812 186 c 0xe8
EndSplineSet
Layer: 2
Layer: 3
EndChar

StartChar: four
Encoding: 52 52 6
Width: 510
Flags: W
HStem: 0 21G<338 398> 170 58<129.305 338 398 455>
VStem: 338 60<0 170 228 398>
LayerCount: 4
Back
Fore
SplineSet
60 213.938476562 m 1
 254.44605232 662 l 1
 313.680160985 662 l 1
 129.3046875 228 l 1
 338 228 l 1
 338 398 l 1
 398 398 l 1
 398 228 l 1
 455 228 l 1
 455 170 l 1
 398 170 l 1
 398 0 l 1
 338 0 l 1
 338 170 l 1
 60 170 l 1
 60 213.938476562 l 1
EndSplineSet
Layer: 2
Layer: 3
EndChar

StartChar: five
Encoding: 53 53 7
Width: 492
Flags: W
HStem: -1 60<141.34 313.019> 337 60<156.195 312.774> 602 60<146.958 383.958>
VStem: 84.958 62<370.531 602> 361.065 63.8931<108.703 288.696>
LayerCount: 4
Back
SplineSet
252 -7 m 5xe8
 377 -7 447 78 447 185 c 4xe8
 447 258 410 314 361 343 c 5
 404 370 438 421 438 489 c 4
 438 592 372 672 252 672 c 5
 204 672 128 660 72 607 c 5
 116 552 l 5
 165 595 217 602 252 602 c 5
 326 602 364 553 364 489 c 4xf0
 364 423 324 377 252 377 c 6
 184 377 l 5
 184 307 l 5
 252 307 l 6
 345 307 373 244 373 185 c 4
 373 115 333 63 252 63 c 5
 205 63 147 76 110 112 c 5
 62 60 l 5
 113 11 191 -7 252 -7 c 5xe8
EndSplineSet
Fore
SplineSet
424.958007812 205 m 0
 424.958007812 53.634765625 340.951545116 -1 241.661777037 -1 c 0
 185.771141811 -1 111.932617188 16.2939453125 62 61.2578125 c 1
 103.213867188 105.90625 l 1
 143.075195312 70.453125 197.794374795 59 241.661777037 59 c 0
 309.339659686 59 361.064918398 96.7158203125 361.064918398 205 c 0
 360.958007812 297.640625 308.823789492 337 241.498776614 337 c 0
 210.240899725 337 180.25 329.729492188 147.575195312 310.598632812 c 1
 84.9580078125 337.303710938 l 1
 84.9580078125 662 l 1
 383.958007812 662 l 1
 383.958007812 602 l 1
 146.958007812 602 l 1
 146.958007812 370.53125 l 1
 154.373046875 374.622070312 l 0
 182.512212397 390.1640625 211.94089114 397 241.498776614 397 c 0
 340.634486607 397 424.958007812 340.124023438 424.958007812 205 c 0
EndSplineSet
Layer: 2
SplineSet
376 205 m 0
 376 97.470703125 326.583007812 64 260 64 c 0
 193.416992188 64 144 97.470703125 144 205 c 0
 144 308.715820312 193.416992188 341 260 341 c 0
 326.583007812 341 376 308.715820312 376 205 c 0
209.096679688 414.96875 m 1
 338.104492188 677 l 1
 249.91015625 677 l 1
 121.528320312 415.236328125 l 0
 70.224609375 312.630859375 60 267.385742188 60 205 c 0
 60 44.7392578125 150.775390625 -16 260 -16 c 0
 369.223632812 -16 460 44.73828125 460 205 c 0
 460 361.634765625 369.224609375 421 260 421 c 0
 241.551757812 421 223.138671875 419.015625 209.096679688 414.96875 c 1
EndSplineSet
Layer: 3
EndChar

StartChar: six
Encoding: 54 54 8
Width: 490
Flags: W
HStem: -1 60<173.39 316.61> 351 60<179.336 316.61>
VStem: 60 64<112.595 298.673> 366 64<112.594 297.405>
LayerCount: 4
Back
Fore
SplineSet
245 59 m 0
 311.416992188 59 366 96.7158203125 366 205 c 0
 366 313.284179688 311.416992188 351 245 351 c 0
 178.583007812 351 124 313.284179688 124 205 c 0
 124 96.7158203125 178.583007812 59 245 59 c 0
178.52734375 396.280273438 m 1
 190.124511719 401.376953125 l 2
 205.104073661 408.01953125 224.035505022 411 245 411 c 0
 344.776367188 411 430 356.364257812 430 205 c 0
 430 53.634765625 344.775390625 -1 245 -1 c 0
 145.223632812 -1 60 53.6357421875 60 205 c 0
 60 266.270507812 69.56640625 308.953125 120.471679688 410.763671875 c 0
 241.369140625 662 l 1
 302.474400112 662 l 1
 178.52734375 396.280273438 l 1
EndSplineSet
Layer: 2
Layer: 3
EndChar

StartChar: seven
Encoding: 55 55 9
Width: 485
Flags: W
HStem: 0 21G<106.55 182.858> 597 60<55 349.55>
LayerCount: 4
Back
Fore
SplineSet
55 597 m 1
 55 657 l 1
 425 657 l 1
 425 613.017578125 l 1
 174.69140625 0 l 1
 106.549804688 0 l 1
 349.549804688 597 l 1
 55 597 l 1
EndSplineSet
Layer: 2
Layer: 3
EndChar

StartChar: eight
Encoding: 56 56 10
Width: 490
Flags: W
HStem: 4 53<171.202 318.797> 315 56<176.03 313.973> 615 58<177.686 312.314>
VStem: 60 62<108.657 265.136> 69 62<415.91 568.891> 359 62<415.91 568.891> 368 62<108.657 265.135>
LayerCount: 4
Back
Fore
SplineSet
368 186 m 0xf2
 368 247.672851562 336.274414062 315 245 315 c 0
 153.731445312 315 122 247.672851562 122 186 c 0
 122 112.743164062 166.193359375 57 245 57 c 0
 323.803710938 57 368 112.7421875 368 186 c 0xf2
359 492.489257812 m 0xec
 359 561.145507812 317.837890625 615 245 615 c 0
 172.161132812 615 131 561.145507812 131 492.489257812 c 0
 131 421.646484375 174.313476562 371 245 371 c 0
 315.686523438 371 359 421.646484375 359 492.489257812 c 0xec
69 495 m 0
 69 595.58984375 132.734375 673 245 673 c 0
 357.265625 673 421 595.58984375 421 495 c 0xec
 421 428.744140625 387.953125 379.362304688 346.340820312 353.234375 c 0
 339.396484375 348.874023438 l 1
 346.453125 344.697265625 l 0
 393.97265625 316.573242188 430 262.23828125 430 191 c 0
 430 86.421875 362.239257812 4 245 4 c 0
 127.7578125 4 60 86.4228515625 60 191 c 0xf2
 60 262.241210938 96.02734375 316.573242188 143.546875 344.697265625 c 0
 150.603515625 348.874023438 l 1
 143.659179688 353.234375 l 0
 102.046875 379.362304688 69 428.744140625 69 495 c 0
EndSplineSet
Layer: 2
Layer: 3
EndChar

StartChar: nine
Encoding: 57 57 11
Width: 490
Flags: W
HStem: 0 21G<185.869 258.411> 256 60<172.962 313.527> 613 60<172.962 317.345>
VStem: 60 64<366.793 562.207> 366 64<367.607 562.045>
LayerCount: 4
Back
SplineSet
134 462 m 4
 134 568 186 603 255 603 c 4
 324 603 376 568 376 462 c 4
 376 356 324 321 255 321 c 4
 186 321 134 356 134 462 c 4
450 462 m 4
 450 616 362 673 255 673 c 4
 148 673 60 616 60 462 c 4
 60 308 148 251 255 251 c 4
 362 251 450 308 450 462 c 4
EndSplineSet
Fore
SplineSet
245.20661157 613 m 0
 176.740734762 613 124 574.638671875 124 464.5 c 0
 124 354.361328125 176.740734762 316 245.20661157 316 c 0
 313.672488378 316 366 354.361328125 366 464.5 c 0
 366 574.638671875 313.672488378 613 245.20661157 613 c 0
313.725852273 270.719726562 m 1
 301.8612797 265.623046875 l 2
 286.396048554 258.98046875 266.85081999 256 245.20661157 256 c 0
 144.759846333 256 60 311.298828125 60 464.5 c 0
 60 617.702148438 144.760782541 673 245.20661157 673 c 0
 345.653376808 673 430 617.540039062 430 463.892578125 c 0
 430 401.698242188 420.43359375 358.372070312 369.528320312 255.025390625 c 0
 248.955191116 -0 l 1
 185.86876937 0 l 1
 313.725852273 270.719726562 l 1
EndSplineSet
Layer: 2
SplineSet
366.942382812 288.33203125 m 1
 334.215820312 265.611328125 294.29296875 256 250 256 c 0
 145.223632812 256 60 310.635742188 60 462 c 0
 60 617.0390625 145.224609375 673 250 673 c 0
 355.109375 673 439.556640625 616.189453125 439.999023438 463.000976562 c 1
 400.25 367.966796875 l 1
 440 442.095703125 l 1
 440 205 l 2
 440 49.9609375 354.775390625 -6 250 -6 c 0
 191.021484375 -6 116.974609375 11.650390625 67.0419921875 57.5419921875 c 1
 108.256835938 102.169921875 l 1
 148.1171875 65.76171875 203.709960938 54 250 54 c 0
 321.416992188 54 376 93.0078125 376 205 c 2
 376 309.98828125 l 1
 366.942382812 288.33203125 l 1
124 462 m 0
 124 353.715820312 178.583007812 316 250 316 c 0
 321.416992188 316 376 353.715820312 376 462 c 0
 376 573.9921875 321.416992188 613 250 613 c 0
 178.583007812 613 124 573.9921875 124 462 c 0
EndSplineSet
Layer: 3
SplineSet
144 462 m 0
 144 569.529296875 193.416992188 603 260 603 c 0
 326.583007812 603 376 569.529296875 376 462 c 0
 376 358.284179688 326.583007812 326 260 326 c 0
 193.416992188 326 144 358.284179688 144 462 c 0
310.903320312 252.03125 m 1
 181.895507812 -10 l 1
 270.08984375 -10 l 1
 398.471679688 251.763671875 l 0
 449.774414062 354.369140625 460 399.614257812 460 462 c 0
 460 622.260742188 369.224609375 683 260 683 c 0
 150.776367188 683 60 622.26171875 60 462 c 0
 60 305.365234375 150.775390625 246 260 246 c 0
 278.448242188 246 296.861328125 247.984375 310.903320312 252.03125 c 1
EndSplineSet
EndChar

StartChar: colon
Encoding: 58 58 12
Width: 192
VWidth: 0
Flags: W
HStem: -1 92<56.2031 135.797> 288 92<56.2031 135.797>
VStem: 50 92<5.20312 84.7969 294.203 373.797>
LayerCount: 4
Back
Fore
SplineSet
50 45 m 0
 50 72.3671875 68.6328125 91 96 91 c 0
 123.3671875 91 142 72.3671875 142 45 c 0
 142 17.6328125 123.3671875 -1 96 -1 c 0
 68.6328125 -1 50 17.6328125 50 45 c 0
50 334 m 0
 50 361.3671875 68.6328125 380 96 380 c 0
 123.3671875 380 142 361.3671875 142 334 c 0
 142 306.6328125 123.3671875 288 96 288 c 0
 68.6328125 288 50 306.6328125 50 334 c 0
EndSplineSet
Layer: 2
Layer: 3
EndChar

StartChar: A
Encoding: 65 65 13
Width: 589
Flags: W
HStem: 0 21G<35 107.079 478.735 549.824> 165 65<173.999 410.822> 647 20G<258.251 327.529>
AnchorPoint: "Center" 10 0 basechar 0
AnchorPoint: "Bottom" 536 0 basechar 0
AnchorPoint: "Top" 305 667 basechar 0
LayerCount: 4
Back
Fore
SplineSet
35 0 m 1
 265.152313474 667 l 1
 320.657380415 667 l 1
 549.82421875 -0 l 1
 485.469726562 0 l 1
 429.912308024 165 l 1
 155.902145101 165 l 1
 100.344726562 0 l 1
 35 0 l 1
410.822060179 230 m 1
 292.927215354 586.500976562 l 1
 173.998664448 230 l 1
 410.822060179 230 l 1
EndSplineSet
Layer: 2
Layer: 3
Substitution2: "'salt' Stylistic Alternatives lookup 0-1" A.alt
EndChar

StartChar: B
Encoding: 66 66 14
Width: 530
VWidth: 0
Flags: W
HStem: 0 64<149 361.921> 314 58<149 351.645> 603 64<149 348.976>
VStem: 85 64<64 314 372 603> 392 64<413.098 561.144> 411 64<112.592 261.343>
LayerCount: 4
Back
Fore
SplineSet
411 189 m 0xf4
 411 251.359375 369.76953125 314 285 314 c 2
 149 314 l 1
 149 64 l 1
 285 64 l 0
 367.368164062 64 411 115.46875 411 189 c 0xf4
85 667 m 1
 285 667 l 2
 392.374023438 667 456 591.37890625 456 489.3359375 c 0xf8
 456 422.129882812 423.0703125 375.059570312 381.340820312 348.458984375 c 0
 374.396484375 344.03125 l 1
 381.453125 339.791015625 l 0
 429.494140625 310.926757812 475 258.54296875 475 186.80078125 c 0
 475 80.826171875 407.530273438 0 285 0 c 0
 85 0 l 1
 85 667 l 1
392 487 m 0
 392 554.329101562 352.095581055 603 285 603 c 2
 149 603 l 1
 149 372 l 1
 285 372 l 0
 350.205444336 372 392 417.525390625 392 487 c 0
EndSplineSet
Layer: 2
Layer: 3
EndChar

StartChar: C
Encoding: 67 67 15
Width: 531
VWidth: 0
Flags: W
HStem: -6 60<193.413 388.315> 613 60<193.413 380.293>
VStem: 65 64<119.489 547.511>
AnchorPoint: "Center" 0 0 basechar 0
AnchorPoint: "Bottom" 290 0 basechar 0
AnchorPoint: "Top" 290 667 basechar 0
LayerCount: 4
Back
SplineSet
65 194 m 2
 65 48 173 -6 290 -6 c 1
 396.977777778 -6 535 48 535 194 c 10
 525 473 l 18
 525 619 392 673 290 673 c 1
 247 673 147 665 95 584 c 1
 148 540 l 1
 195 602 260 603 290 603 c 1
 356 603 451 570 451 473 c 10
 461 194 l 18
 461 97 361.033112583 64 290 64 c 1
 209 64 139 97 139 194 c 1
 139 287 l 1
 277 287 l 1
 277 357 l 1
 65 357 l 1
 65 194 l 2
EndSplineSet
Fore
SplineSet
285 613 m 0
 207.650390625 613 129 578.865234375 129 465.358398438 c 2
 129 201.641601562 l 0
 129 88.1455078125 207.650390625 54 285 54 c 0
 331.541992188 54 388.016601562 66.4609375 426.743164062 100.90625 c 1
 467.958007812 56.2578125 l 1
 416.928710938 10.3056640625 343.741210938 -6 285 -6 c 0
 174.489257812 -6 65 46.2119140625 65 202.064453125 c 0
 65 464.935546875 l 0
 65 620.788085938 174.489257812 673 285 673 c 0
 331.6171875 673 403.715820312 661.25390625 458.190429688 612.491210938 c 1
 420.328125 565.165039062 l 1
 369.651367188 607.084960938 319.916015625 613 285 613 c 0
EndSplineSet
Layer: 2
Layer: 3
Substitution2: "'salt' Stylistic Alternatives lookup 0-1" C.alt
EndChar

StartChar: O
Encoding: 79 79 16
Width: 580
VWidth: 0
Flags: W
HStem: -6 60<196.718 383.282> 613 60<196.718 383.282>
VStem: 65 64<119.556 547.445> 451 64<119.555 547.444>
AnchorPoint: "Center" 0 0 basechar 0
AnchorPoint: "Bottom" 300 0 basechar 0
AnchorPoint: "Top" 300 667 basechar 0
LayerCount: 4
Back
Fore
SplineSet
515 464.935546875 m 0
 515 202.064453125 l 2
 515 46.3828125 400.682617188 -6 290 -6 c 0
 179.317382812 -6 65 46.3837890625 65 202.064453125 c 0
 65 464.935546875 l 0
 65 620.6171875 179.317382812 673 290 673 c 0
 400.682617188 673 515 620.616210938 515 464.935546875 c 0
129 465.358398438 m 0
 129 201.641601562 l 2
 129 87.8955078125 211.631258878 54 290 54 c 0
 368.368741122 54 451 87.8955078125 451 201.641601562 c 0
 451 465.358398438 l 0
 451 579.104492188 368.368741122 613 290 613 c 0
 211.631258878 613 129 579.104492188 129 465.358398438 c 0
EndSplineSet
Layer: 2
Layer: 3
EndChar

StartChar: D
Encoding: 68 68 17
Width: 570
VWidth: 0
Flags: W
HStem: 0 65<149 377.875> 602 65<149 377.876>
VStem: 85 64<65 602> 431 64<116.72 550.28>
AnchorPoint: "Center" 5 0 basechar 0
AnchorPoint: "Bottom" 287 0 basechar 0
AnchorPoint: "Top" 290 667 basechar 0
LayerCount: 4
Back
Fore
SplineSet
295 667 m 0
 428.60546875 667 495 587.283203125 495 470.046875 c 2
 495 196.953125 l 0
 495 79.7158203125 428.604492188 0 295 0 c 0
 85 0 l 1
 85 667 l 1
 295 667 l 0
295 65 m 0
 388.243164062 65 431 115.587890625 431 199 c 2
 431 468 l 0
 431 551.412109375 388.243164062 602 295 602 c 0
 149 602 l 1
 149 65 l 1
 295 65 l 0
EndSplineSet
Layer: 2
Layer: 3
EndChar

StartChar: E
Encoding: 69 69 18
Width: 490
VWidth: 0
Flags: W
HStem: 0 60.9736<149 425> 313 60<149 374> 605.962 61.0381<147 424>
VStem: 85 64<60.9736 313 373 605.962>
AnchorPoint: "Center" 5 0 basechar 0
AnchorPoint: "Bottom" 261 0 basechar 0
AnchorPoint: "Top" 261 667 basechar 0
LayerCount: 4
Back
Fore
SplineSet
85 0 m 1
 85 667 l 1
 424 667 l 1
 424 605.961914062 l 1
 147 605.961914062 l 1
 147 373 l 1
 374 373 l 1
 374 313 l 1
 149 313 l 1
 149 60.9736328125 l 1
 425 60.9736328125 l 1
 425 0 l 1
 85 0 l 1
EndSplineSet
Layer: 2
Layer: 3
EndChar

StartChar: F
Encoding: 70 70 19
Width: 484
VWidth: 0
Flags: W
HStem: 0 21G<85 149> 313 60<149 374> 605.962 61.0381<149 424>
VStem: 85 64<0 313 373 605.962>
LayerCount: 4
Back
Fore
SplineSet
85 0 m 1
 85 667 l 1
 424 667 l 1
 424 605.961914062 l 1
 149 605.961914062 l 1
 149 373 l 1
 374 373 l 1
 374 313 l 1
 149 313 l 1
 149 0 l 1
 85 0 l 1
EndSplineSet
Layer: 2
Layer: 3
EndChar

StartChar: H
Encoding: 72 72 20
Width: 590
VWidth: 0
Flags: W
HStem: 0 21G<85 149 441 505> 313 60<149 441> 647 20G<85 149 441 505>
VStem: 85 64<0 313 373 667> 441 64<0 313 373 667>
AnchorPoint: "Center" 5 0 basechar 0
AnchorPoint: "Bottom" 305 0 basechar 0
AnchorPoint: "Top" 305 667 basechar 0
LayerCount: 4
Back
Fore
SplineSet
85 0 m 1
 85 667 l 1
 149 667 l 1
 149 373 l 1
 441 373 l 1
 441 667 l 1
 505 667 l 1
 505 0 l 1
 441 0 l 1
 441 313 l 1
 149 313 l 1
 149 0 l 1
 85 0 l 1
EndSplineSet
Layer: 2
Layer: 3
EndChar

StartChar: I
Encoding: 73 73 21
Width: 234
VWidth: 0
Flags: W
HStem: 0 21G<85 149> 647 20G<85 149>
VStem: 85 64<0 667>
AnchorPoint: "Center" 5 0 basechar 0
AnchorPoint: "Bottom" 122 0 basechar 0
AnchorPoint: "Top" 122 667 basechar 0
LayerCount: 4
Back
Fore
SplineSet
85 667 m 1
 149 667 l 1
 149 0 l 1
 85 0 l 1
 85 667 l 1
EndSplineSet
Layer: 2
Layer: 3
EndChar

StartChar: J
Encoding: 74 74 22
Width: 471
VWidth: 0
Flags: W
HStem: -6 60<136.956 280.683> 647 20G<330.398 394.398>
VStem: 330.398 64<106.355 667>
AnchorPoint: "Center" 20 0 basechar 0
AnchorPoint: "Bottom" 231 0 basechar 0
AnchorPoint: "Top" 379 667 basechar 0
LayerCount: 4
Back
Fore
SplineSet
330.3984375 201.404296875 m 0
 330.3984375 667 l 1
 394.3984375 667 l 1
 394.3984375 202.091796875 l 0
 394.3984375 50.5712890625 306.705332241 -6 212.016405475 -6 c 0
 177.013037716 -6 98.759765625 3.4931640625 55 70.87890625 c 1
 102.403320312 108.80078125 l 1
 139.5 58.837890625 185.857925401 54 212.016405475 54 c 0
 267.473117247 54 330.3984375 84.7392578125 330.3984375 201.404296875 c 0
EndSplineSet
Layer: 2
SplineSet
406 194 m 2
 406 47.3916015625 311.041992188 -6 216 -6 c 0
 120.958007812 -6 26 47.3916015625 26 194 c 0
 26 473 l 0
 26 619.608398438 120.958007812 673 216 673 c 0
 311.041992188 673 406 619.608398438 406 473 c 0
 406 194 l 2
90 194 m 2
 90 90.439453125 152.930664062 54 216 54 c 0
 279.065429688 54 342 90.4287109375 342 194 c 0
 342 473 l 0
 342 576.560546875 279.069335938 613 216 613 c 0
 152.934570312 613 90 576.571289062 90 473 c 0
 90 194 l 2
EndSplineSet
Layer: 3
Substitution2: "'salt' Stylistic Alternatives lookup 0-1" J.alt
EndChar

StartChar: L
Encoding: 76 76 23
Width: 500
VWidth: 0
Flags: W
HStem: 0 60.9131<149 445> 647 20G<85 149>
VStem: 85 64<60.9131 667>
AnchorPoint: "Apos" 222 667 basechar 0
AnchorPoint: "Bottom" 272 0 basechar 0
AnchorPoint: "Center" 275 334 basechar 0
AnchorPoint: "Top" 123 667 basechar 0
LayerCount: 4
Back
Fore
SplineSet
85 0 m 1
 85 667 l 1
 149 667 l 1
 149 60.9130859375 l 1
 445 60.9130859375 l 1
 445 0 l 1
 85 0 l 1
EndSplineSet
Layer: 2
Layer: 3
EndChar

StartChar: U
Encoding: 85 85 24
Width: 560
VWidth: 0
Flags: W
HStem: -6 60<196.178 363.822> 647 20G<75 139 421 485>
VStem: 75 64<114.547 667> 421 64<114.547 667>
AnchorPoint: "Center" 5 0 basechar 0
AnchorPoint: "Bottom" 288 0 basechar 0
AnchorPoint: "Top" 290 667 basechar 0
LayerCount: 4
Back
Fore
SplineSet
139 667 m 1
 139 202.420898438 l 2
 139 88.38671875 209.850840111 54 280 54 c 0
 350.149159889 54 421 88.384765625 421 202.420898438 c 0
 421 667 l 1
 485 667 l 1
 485 203.107421875 l 0
 485 46.0205078125 381.710623127 -6 280 -6 c 0
 178.289376873 -6 75 46.021484375 75 203.107421875 c 0
 75 667 l 1
 139 667 l 1
EndSplineSet
Layer: 2
Layer: 3
EndChar

StartChar: V
Encoding: 86 86 25
Width: 589
Flags: W
HStem: 0 21G<258.255 327.525> 647 20G<35 108.045 477.769 549.824>
LayerCount: 4
Back
Fore
SplineSet
265.155961861 0 m 1
 35 667 l 1
 101.33984375 667 l 1
 292.907226562 95.6298828125 l 1
 484.474609375 667 l 1
 549.82421875 667 l 1
 320.653732653 -0 l 1
 265.155961861 0 l 1
EndSplineSet
Layer: 2
Layer: 3
EndChar

StartChar: W
Encoding: 87 87 26
Width: 782
VWidth: 0
Flags: W
HStem: 0 21G<210.807 280.464 500.402 569.026> 647 20G<35 104.573 674.327 743.877>
AnchorPoint: "Bottom" 10 0 basechar 0
AnchorPoint: "Center" 10 0 basechar 0
AnchorPoint: "Top" 401 667 basechar 0
LayerCount: 4
Back
Fore
SplineSet
216.241210938 0 m 1
 35 667 l 1
 99.537109375 667 l 1
 245.046875 89.0595703125 l 1
 362.631265291 502 l 1
 418.196351658 502 l 1
 534.819335938 89.958984375 l 1
 679.3359375 667 l 1
 743.876953125 667 l 1
 563.62109375 0 l 1
 506.154296875 0 l 1
 390.416688489 402.400390625 l 1
 274.713867188 0 l 1
 216.241210938 0 l 1
EndSplineSet
Layer: 2
Layer: 3
EndChar

StartChar: M
Encoding: 77 77 27
Width: 721
VWidth: 0
Flags: W
HStem: 0 21G<85 148.842 572.135 636> 647 20G<85 152.106 567.894 636>
VStem: 85 63.8422<0 526.546> 572.135 63.8646<0 528.55>
LayerCount: 4
Back
Fore
SplineSet
85 0 m 1
 85 667 l 1
 141.9609375 667 l 1
 360 237.143554688 l 1
 578.0390625 667 l 1
 636 667 l 1
 636 0 l 1
 572.135381274 0 l 1
 572.135381274 528.549804688 l 1
 388.30788417 165 l 1
 331.69211583 165 l 1
 148.842201128 526.545898438 l 1
 148.842201128 0 l 1
 85 0 l 1
EndSplineSet
Layer: 2
Layer: 3
EndChar

StartChar: G
Encoding: 71 71 28
Width: 560
VWidth: 0
Flags: W
HStem: -6 60<191.311 368.914> 292 60<297.57 431> 613 60<191.311 372.354>
VStem: 65 64<114.126 552.874> 431 64<114.722 292>
AnchorPoint: "Center" 0 0 basechar 0
AnchorPoint: "Bottom" 290 0 basechar 0
AnchorPoint: "Top" 290 667 basechar 0
LayerCount: 4
Back
SplineSet
515 194 m 18
 515 48 402 -6 290 -6 c 1
 178 -6 65 48 65 194 c 10
 65 473 l 18
 65 619 178 673 290 673 c 1
 402 673 515 619 515 473 c 10
 515 194 l 18
139 194 m 18
 139 97 214 64 290 64 c 1
 366 64 441 97 441 194 c 10
 441 473 l 18
 441 570 366 603 290 603 c 1
 214 603 139 570 139 473 c 10
 139 194 l 18
EndSplineSet
Fore
SplineSet
411.012624172 565.165039062 m 1
 362.013904698 607.084960938 313.925419081 613 280.165562914 613 c 0
 205.377198882 613 129 578.865234375 129 465.358398438 c 0
 129 201.641601562 l 0
 129 88.1455078125 205.377198882 54 280.165562914 54 c 0
 354.794352752 54 431 89.0029296875 431 191.897460938 c 0
 431 292 l 1
 297.569536424 292 l 1
 297.569536424 352 l 1
 495 352 l 1
 495 191.76171875 l 0
 495 47.365234375 387.120873862 -6 280.165562914 -6 c 0
 173.314116825 -6 65 46.2119140625 65 202.064453125 c 0
 65 464.935546875 l 0
 65 620.788085938 173.314116825 673 280.165562914 673 c 0
 325.239134934 673 394.950395799 661.25390625 448.190429688 612.491210938 c 1
 411.012624172 565.165039062 l 1
EndSplineSet
Layer: 2
Layer: 3
Substitution2: "'salt' Stylistic Alternatives lookup 0-1" G.alt
EndChar

StartChar: T
Encoding: 84 84 29
Width: 540
VWidth: 0
Flags: W
HStem: 0 21G<233 297.112> 606.087 60.9131<55 239.6 300.4 485>
VStem: 233 64<0 606.087>
AnchorPoint: "Center" 35 0 basechar 0
AnchorPoint: "Bottom" 281 0 basechar 0
AnchorPoint: "Top" 280 667 basechar 0
LayerCount: 4
Back
Fore
SplineSet
55 606.086914062 m 1
 55 667 l 1
 485 667 l 1
 485 606.086914062 l 1
 300.4 606.086914062 l 1
 297 0 l 1
 233 0 l 1
 239.6 606.086914062 l 1
 55 606.086914062 l 1
EndSplineSet
Layer: 2
Layer: 3
EndChar

StartChar: Q
Encoding: 81 81 30
Width: 580
VWidth: 0
Flags: W
HStem: -6 60<196.272 368.852> 613 60<196.272 383.949>
VStem: 65 64<119.556 547.445> 451 64<117.432 547.54>
LayerCount: 4
Back
SplineSet
535 204 m 22
 535 47 417 -6 300 -6 c 5
 183 -6 65 47 65 204 c 14
 65 463 l 22
 65 620 183 673 300 673 c 5
 417 673 535 620 535 463 c 14
 535 204 l 22
139 204 m 22
 139 96 219 64 300 64 c 5
 381 64 461 96 461 204 c 14
 461 463 l 22
 461 571 381 603 300 603 c 5
 219 603 139 571 139 463 c 14
 139 204 l 22
390 66 m 5
 544 -36 l 5
 507 -95 l 5
 352 7 l 5
 390 66 l 5
EndSplineSet
Fore
SplineSet
129 465.358398438 m 0
 129 201.641601562 l 2
 129 87.8955078125 210.604401203 54 290.155279503 54 c 0
 369.706157803 54 451 87.8955078125 451 201.641601562 c 0
 451 465.358398438 l 0
 451 579.104492188 369.706157803 613 290.155279503 613 c 0
 210.604401203 613 129 579.104492188 129 465.358398438 c 0
428.1484375 29.283203125 m 0
 421.563591809 25.1220703125 l 1
 522.162109375 -42.4921875 l 1
 490.482421875 -93.0087890625 l 1
 352.202712539 0.306640625 l 1
 350.248738354 -0.0966796875 l 0
 331.233210404 -4.0224609375 310.196525621 -6 290.155279503 -6 c 0
 178.065290179 -6 65 46.3837890625 65 202.064453125 c 0
 65 464.935546875 l 0
 65 620.6171875 178.065290179 673 290.155279503 673 c 0
 402.245268828 673 515 620.65625 515 465.09375 c 0
 515 202.422851562 l 0
 515 114.737304688 478.981445312 60.859375 428.1484375 29.283203125 c 0
EndSplineSet
Layer: 2
Layer: 3
EndChar

StartChar: P
Encoding: 80 80 31
Width: 512
VWidth: 0
Flags: W
HStem: 0 21G<85 148> 262 60<149 341.373> 602 65<149 341.373>
VStem: 85 64<0 262 322 602> 393 64<373.481 550.583>
LayerCount: 4
Back
Fore
SplineSet
149 322 m 1
 267 322 l 2
 340.200195312 322 393 363.493164062 393 462 c 0
 393 560.506835938 340.201171875 602 267 602 c 0
 149 602 l 1
 149 322 l 1
85 667 m 1
 267 667 l 2
 372.920898438 667 457 607.4609375 457 464.5 c 0
 457 321.538085938 372.920898438 262 267 262 c 0
 148 262 l 1
 148 0 l 1
 85 0 l 1
 85 667 l 1
EndSplineSet
Layer: 2
Layer: 3
EndChar

StartChar: R
Encoding: 82 82 32
Width: 542
VWidth: 0
Flags: W
HStem: 0 21G<85 148 399.34 474.464> 262 60<149 302.226> 602 65<149 349.746>
VStem: 85 64<0 262 322 602> 403 64<374.884 550.435>
AnchorPoint: "Center" 5 0 basechar 0
AnchorPoint: "Bottom" 287 0 basechar 0
AnchorPoint: "Top" 265 667 basechar 0
LayerCount: 4
Back
SplineSet
282 327 m 4
 362 327 413 366 413 462 c 4
 413 558 362 597 282 597 c 4
 159 597 l 5
 159 327 l 5
 282 327 l 4
282 667 m 4
 400 667 487 606 487 462 c 4
 487 318 400 257 282 257 c 4
 158 257 l 5
 158 0 l 5
 85 0 l 5
 85 667 l 5
 282 667 l 4
380.70703125 275.33984375 m 5
 497 0 l 5
 419 0 l 5
 310.157226562 258.629882812 l 5
 380.70703125 275.33984375 l 5
EndSplineSet
Fore
SplineSet
85 667 m 1
 272.354330709 667 l 2
 383.711414247 667 467 607.301757812 467 463.956054688 c 0
 467 363.98828125 426.084960938 306.337890625 365.53168061 278.759765625 c 0
 361.189145546 276.751953125 l 1
 474.463867188 -0 l 1
 407.315429688 0 l 1
 302.282080463 263.380859375 l 1
 298.72193344 262.969726562 l 0
 290.429933563 262.010742188 281.966258612 262 272.354330709 262 c 0
 148 262 l 1
 148 0 l 1
 85 0 l 1
 85 667 l 1
149 322 m 1
 272.354330709 322 l 2
 351.310792938 322 403 363.458984375 403 462 c 0
 403 560.541015625 351.310792938 602 272.354330709 602 c 0
 149 602 l 1
 149 322 l 1
EndSplineSet
Layer: 2
Layer: 3
EndChar

StartChar: N
Encoding: 78 78 33
Width: 590
VWidth: 0
Flags: W
HStem: 0 21G<85 148.777 436.672 505> 647 20G<85 153.319 441 505>
VStem: 85 63.7772<0 533.618> 441 64<133.382 667>
AnchorPoint: "Center" 7 0 basechar 0
AnchorPoint: "Bottom" 307 0 basechar 0
AnchorPoint: "Top" 305 667 basechar 0
LayerCount: 4
Back
Fore
SplineSet
85 0 m 1
 85 667 l 1
 142.1171875 667 l 1
 441 133.381835938 l 1
 441 667 l 1
 505 667 l 1
 505 0 l 1
 447.8828125 0 l 1
 148.777170751 533.618164062 l 1
 148.777170751 0 l 1
 85 0 l 1
EndSplineSet
Layer: 2
Layer: 3
EndChar

StartChar: K
Encoding: 75 75 34
Width: 564
VWidth: 0
Flags: W
HStem: 0 21G<85 149 424.877 513.944> 647 20G<85 149 411.551 500.312>
VStem: 85 64<0 232.853 315.007 667>
AnchorPoint: "Top" 5 0 basechar 0
AnchorPoint: "Center" 5 0 basechar 0
AnchorPoint: "Bottom" 295 0 basechar 0
LayerCount: 4
Back
Fore
SplineSet
149 232.852539062 m 1
 149 0 l 1
 85 0 l 1
 85 667 l 1
 149 667 l 1
 149 315.006835938 l 1
 427.3671875 667 l 1
 500.311523438 667 l 1
 252.881466886 358.52734375 l 1
 513.944335938 0 l 1
 439.48828125 0 l 1
 213.044311055 309.962890625 l 1
 149 232.852539062 l 1
EndSplineSet
Layer: 2
Layer: 3
EndChar

StartChar: S
Encoding: 83 83 35
Width: 521
VWidth: 0
Flags: W
HStem: -6 60<135.441 325.62> 613 60<164.313 342.214>
VStem: 53 64<426.802 564.915> 380 64<107.714 253.179>
AnchorPoint: "Center" 0 0 basechar 0
AnchorPoint: "Bottom" 256 0 basechar 0
AnchorPoint: "Top" 256 667 basechar 0
LayerCount: 4
Back
SplineSet
256 673 m 5
 304 673 380 661 436 608 c 5
 392 553 l 5
 343 596 291 603 256 603 c 1029
EndSplineSet
Fore
SplineSet
444 184.0703125 m 0
 444 64.1259765625 363.958007812 -6 241.465838509 -6 c 0
 186.069984957 -6 102.99609375 11.62109375 53.05078125 56.2666015625 c 1
 94.2705078125 100.921875 l 1
 134.609375 65.505859375 198.104079726 54 241.465838509 54 c 0
 322.860612384 54 380 97.583984375 380 183.084960938 c 0
 380 274.546875 306.945822011 300.921875 238.492806192 313.116210938 c 0
 148.270507812 329.303710938 53 372.958984375 53 490.043945312 c 0
 53 618.787109375 144.690429688 673 244.279503106 673 c 0
 288.058915227 673 367.783203125 660.916015625 422.184570312 612.484375 c 1
 384.319335938 565.153320312 l 1
 333.256835938 607.0234375 276.921492867 613 244.279503106 613 c 0
 177.161878882 613 117 578.766601562 117 491.029296875 c 0
 117 410.655273438 183.567728552 386.389648438 249.977357094 373.211914062 c 0
 345.810546875 353.951171875 444 313.421875 444 184.0703125 c 0
EndSplineSet
Layer: 2
SplineSet
251 315 m 0
 140.155273438 315 108 247.984375 108 186 c 0
 108 109.61328125 152.6171875 52 251 52 c 0
 349.3828125 52 394 109.61328125 394 186 c 0
 394 247.984375 361.844726562 315 251 315 c 0
251 615 m 0
 158.615234375 615 117 560.368164062 117 490 c 0
 117 420.315429688 160.76171875 371 251 371 c 0
 341.236328125 371 385 420.3125 385 490 c 0
 385 560.365234375 343.387695312 615 251 615 c 0
251 673 m 0
 383.551757812 673 447 593.219726562 447 490 c 0
 447 423.744140625 413.953125 374.362304688 372.340820312 348.234375 c 0
 365.396484375 343.874023438 l 1
 372.453125 339.697265625 l 0
 419.97265625 311.573242188 456 257.23828125 456 186 c 0
 456 78.80859375 388.517578125 -6 251 -6 c 0
 113.482421875 -6 46 78.80859375 46 186 c 0
 46 257.241210938 82.02734375 311.573242188 129.546875 339.697265625 c 0
 136.603515625 343.874023438 l 1
 129.659179688 348.234375 l 0
 88.046875 374.362304688 55 423.744140625 55 490 c 0
 55 593.223632812 118.451171875 673 251 673 c 0
EndSplineSet
Layer: 3
Substitution2: "'salt' Stylistic Alternatives lookup 0-1" S.alt
EndChar

StartChar: X
Encoding: 88 88 36
Width: 547
VWidth: 0
Flags: W
HStem: 0 21G<45 125.484 414.267 494.717> 647 20G<45.9902 128.289 415.145 494.704>
LayerCount: 4
Back
Fore
SplineSet
231.417702054 334.004882812 m 1
 45.990234375 667 l 1
 117.409179688 667 l 1
 270.341881161 385.86328125 l 1
 426.235351562 667 l 1
 494.704101562 667 l 1
 310.327396606 334.01171875 l 1
 494.716796875 0 l 1
 425.249023438 0 l 1
 270.333735006 282.116210938 l 1
 114.431640625 -0 l 1
 45 0 l 1
 231.417702054 334.004882812 l 1
EndSplineSet
Layer: 2
Layer: 3
EndChar

StartChar: Y
Encoding: 89 89 37
Width: 521
VWidth: 0
Flags: W
HStem: 0 21G<225.91 287.892> 647 20G<35 114.413 402.08 479.689>
VStem: 225.91 61.9821<0 277.354>
AnchorPoint: "Bottom" 10 0 basechar 0
AnchorPoint: "Center" 10 0 basechar 0
AnchorPoint: "Top" 270.5 667 basechar 0
LayerCount: 4
Back
Fore
SplineSet
225.910303305 277.354492188 m 1
 35 667 l 1
 104.759765625 667 l 1
 256.858795811 351.876953125 l 1
 411.921875 667 l 1
 479.689453125 667 l 1
 287.892407784 277.360351562 l 1
 287.892407784 0 l 1
 225.910303305 0 l 1
 225.910303305 277.354492188 l 1
EndSplineSet
Layer: 2
Layer: 3
EndChar

StartChar: Z
Encoding: 90 90 38
Width: 520
VWidth: 0
Flags: W
HStem: 0 60.9131<133.241 460> 606.087 60.9131<70 375.745>
AnchorPoint: "Center" 5 0 basechar 0
AnchorPoint: "Bottom" 270 0 basechar 0
AnchorPoint: "Top" 270 667 basechar 0
LayerCount: 4
Back
Fore
SplineSet
70 606.086914062 m 1
 70 667 l 1
 450 667 l 1
 450 622.702148438 l 1
 133.241210938 60.9130859375 l 1
 460 60.9130859375 l 1
 460 0 l 1
 60 0 l 1
 60 44.3017578125 l 1
 375.745117188 606.086914062 l 1
 70 606.086914062 l 1
EndSplineSet
Layer: 2
Layer: 3
EndChar

StartChar: comma
Encoding: 44 44 39
Width: 192
Flags: W
HStem: -121 217<83.2402 89.5254>
VStem: 50 92<9.88561 89.8444>
LayerCount: 4
Back
SplineSet
101 96 m 4
 126 96 152 80 152 45 c 4
 152 39 151 22 143 -1 c 6
 98 -121 l 5
 53 -121 l 5
 86 13 l 5
 91 14 97 -3 101 -6 c 5
 76 -6 50 10 50 45 c 4
 50 80 76 96 101 96 c 4
EndSplineSet
Fore
SplineSet
50 50 m 0
 50 81.8544921875 73.0703125 96 96 96 c 0
 118.9296875 96 142 81.8544921875 142 50 c 0
 142 44.5634765625 141.060546875 29.017578125 133.294921875 6.693359375 c 1
 89.525390625 -121 l 1
 54.3779296875 -121 l 1
 82.9560546875 5.28515625 l 1
 78.5810546875 6.7431640625 l 0
 62.525390625 12.095703125 50 26.01953125 50 50 c 0
EndSplineSet
Layer: 2
Layer: 3
EndChar

StartChar: semicolon
Encoding: 59 59 40
Width: 192
VWidth: 0
Flags: W
HStem: 288 92<55.9517 134.797>
VStem: 50 92<-0.114387 79.8444 294.76 373.24>
LayerCount: 4
Back
Fore
SplineSet
50 40 m 0
 50 71.8544921875 73.0703125 86 96 86 c 0
 118.9296875 86 142 71.8544921875 142 40 c 0
 142 34.5634765625 141.060546875 19.017578125 133.294921875 -3.306640625 c 1
 89.525390625 -121 l 1
 54.3779296875 -121 l 1
 82.9560546875 -4.71484375 l 1
 78.5810546875 -3.2568359375 l 0
 62.525390625 2.095703125 50 16.01953125 50 40 c 0
50 334 m 0
 50 361.502929688 67.7265625 380 95 380 c 0
 122.3671875 380 141 361.3671875 141 334 c 0
 141 306.6328125 122.3671875 288 95 288 c 0
 67.7255859375 288 50 306.497070312 50 334 c 0
EndSplineSet
Layer: 2
Layer: 3
EndChar

StartChar: AE
Encoding: 174 198 41
Width: 772
Flags: W
HStem: 0 59.958<472.284 703.686> 170 60<218.929 412.675> 313 59<472.284 670.686> 605.966 61.0342<472.284 693.686>
VStem: 412.675 59.6095<59.958 170 230 313 372 605.966>
LayerCount: 4
Back
Fore
SplineSet
188.879608127 170 m 1
 102.669921875 -0 l 1
 35 0 l 1
 378.479254994 667 l 1
 693.685546875 667 l 1
 693.685546875 605.965820312 l 1
 472.284219223 605.965820312 l 1
 472.284219223 372 l 1
 670.685546875 372 l 1
 670.685546875 313 l 1
 472.284219223 313 l 1
 472.284219223 59.9580078125 l 1
 703.685546875 59.9580078125 l 1
 703.685546875 0 l 1
 412.674736882 0 l 1
 412.674736882 170 l 1
 188.879608127 170 l 1
412.674736882 230 m 1
 412.674736882 608.311523438 l 1
 218.928650454 230 l 1
 412.674736882 230 l 1
EndSplineSet
Layer: 2
Layer: 3
EndChar

StartChar: Oslash
Encoding: 175 216 42
Width: 581
VWidth: 0
Flags: W
HStem: -6 55<195.348 378.139> 618 55<195.049 377.091>
VStem: 61.3945 60<130.857 544.58> 451.444 59.9508<122.42 535.885>
LayerCount: 4
Back
SplineSet
300 606 m 4
 209 606 137 566 137 447 c 6
 137 220 l 6
 137 101 209 61 300 61 c 4
 391 61 463 101 463 220 c 6
 463 447 l 6
 463 566 391 606 300 606 c 4
300 673 m 4
 427 673 535 612 535 446 c 6
 535 222 l 6
 535 56 427 -6 300 -6 c 4
 173 -6 65 56 65 222 c 6
 65 446 l 6
 65 612 173 673 300 673 c 4
545 693 m 5
 127 -27 l 5
 56 -27 l 5
 474 693 l 5
 545 693 l 5
EndSplineSet
Fore
SplineSet
395.094181365 585.095703125 m 0
 365.085805694 606.767578125 327.256566334 618 286.658502684 618 c 0
 196.73371597 618 121.39453125 574.041992188 121.39453125 452 c 0
 121.39453125 225 l 0
 121.39453125 191.188476562 129.578125 161.512695312 139.755571798 138.930664062 c 0
 143.638552051 130.119140625 l 1
 398.745243002 582.459960938 l 1
 395.094181365 585.095703125 l 0
153.548576495 35.22265625 m 0
 149.313458589 37.9931640625 l 1
 111.533203125 -27 l 1
 60 -27 l 1
 114.4609375 69.9296875 l 1
 112.227539062 72.634765625 l 0
 81.841796875 109.426757812 61.39453125 153.697265625 61.39453125 220.536132812 c 0
 61.39453125 447.782226562 l 0
 61.39453125 613.025390625 165.259046683 673 286.658502684 673 c 0
 337.163750959 673 381.729042849 659.291015625 421.682467408 632.793945312 c 0
 425.917585314 629.985351562 l 1
 462.25 693 l 1
 514.670898438 693 l 1
 459.325195312 597.159179688 l 1
 461.520507812 594.428710938 l 0
 491.943359375 556.595703125 511.39453125 513.345703125 511.39453125 447.487304688 c 0
 511.39453125 220.236328125 l 0
 511.39453125 54.9697265625 408.025774061 -6 286.658502684 -6 c 0
 237.268356979 -6 192.637749233 9.650390625 153.548576495 35.22265625 c 0
433.56143357 528.069335938 m 0
 429.666147431 536.91015625 l 1
 175.586524636 83.5966796875 l 1
 179.128726515 80.9501953125 l 0
 208.28515625 59.169921875 246.157939513 49 286.658502684 49 c 0
 376.583289398 49 451.443778758 92.9580078125 451.443778758 215 c 0
 451.443778758 442 l 0
 451.443778758 474.830078125 443.529201016 505.446289062 433.56143357 528.069335938 c 0
EndSplineSet
Layer: 2
Layer: 3
EndChar

StartChar: question
Encoding: 63 63 43
Width: 448
VWidth: 0
Flags: W
HStem: -1 92<175.076 247.798> 613 60<135.466 276.341>
VStem: 169.409 84.057<4.15676 85.8432> 186.768 45.8777<190 296.341> 326.825 64<424.448 565.589>
LayerCount: 4
Back
SplineSet
101 489 m 4
 101 552 154 603 220 603 c 4
 286 603 339 552 339 489 c 4
 339 426 286 375 220 375 c 4
 154 375 101 426 101 489 c 4
EndSplineSet
Fore
SplineSet
232.64585964 190 m 1xd8
 186.768199402 190 l 1
 186.768199402 242 l 0
 186.768199402 306.200195312 212.051859952 349.4296875 266.910898851 388.801757812 c 0
 301.352539062 411.327148438 326.825195312 441.11328125 326.825195312 495 c 0
 326.825195312 570.131835938 269.098693454 613 207.782448379 613 c 0
 163.643554688 613 122.811523438 589.762695312 95.1240234375 558.807617188 c 1
 45 596.833007812 l 1
 85.7880859375 644.612304688 150.0859375 673 207.782448379 673 c 0
 300.688476562 673 390.825195312 606.791015625 390.825195312 495 c 0
 390.825195312 424.700195312 358.913085938 376.448242188 309.16796875 345.235351562 c 0
 258.851213431 312.954101562 236.177381271 285.13671875 234.283136596 231.216796875 c 0
 232.64585964 190 l 1xd8
169.40860242 45 m 0xe8
 169.40860242 72.3671875 186.432713769 91 211.437100376 91 c 0
 236.441486982 91 253.465598331 72.3671875 253.465598331 45 c 0
 253.465598331 17.6328125 236.441486982 -1 211.437100376 -1 c 0
 186.432713769 -1 169.40860242 17.6328125 169.40860242 45 c 0xe8
EndSplineSet
Layer: 2
SplineSet
190.833007812 185 m 1
 190.24609375 196.723632812 189.084960938 221.516601562 189.084960938 237 c 0
 189.084960938 303.733398438 225.357421875 345.166992188 285.80078125 384.801757812 c 0
 319.724609375 406.752929688 357.084960938 432.314453125 357.084960938 490 c 0
 357.084960938 566.553710938 298.721679688 613 212.084960938 613 c 0
 168.3671875 613 116.42578125 602.685546875 81.14453125 557.97265625 c 1
 31 596.012695312 l 1
 77.5244140625 658.825195312 155.884765625 673 212.084960938 673 c 0
 331.2578125 673 421.084960938 602.674804688 421.084960938 490 c 0
 421.084960938 417.290039062 378.755859375 372.814453125 328.426757812 341.235351562 c 0
 277.470703125 309.262695312 243.588867188 283.715820312 241.088867188 226.216796875 c 0
 239.296875 185 l 1
 190.833007812 185 l 1
216.084960938 86 m 0
 243.452148438 86 262.084960938 69.392578125 262.084960938 45 c 0
 262.084960938 14.658203125 243.452148438 -6 216.084960938 -6 c 0
 188.716796875 -6 170.084960938 14.658203125 170.084960938 45 c 0
 170.084960938 69.392578125 188.716796875 86 216.084960938 86 c 0
EndSplineSet
Layer: 3
SplineSet
190.833007812 185 m 1
 190.24609375 196.723632812 189.084960938 221.516601562 189.084960938 237 c 0
 189.084960938 299.271484375 215.887695312 345.514648438 275.80078125 384.801757812 c 0
 310.581054688 407.307617188 337.084960938 437.995117188 337.084960938 490 c 0
 337.084960938 566.215820312 279.276367188 613 212.084960938 613 c 0
 168.3671875 613 116.42578125 602.685546875 81.14453125 557.97265625 c 1
 31 596.012695312 l 1
 77.5244140625 658.825195312 155.884765625 673 212.084960938 673 c 0
 310.897460938 673 401.084960938 602.883789062 401.084960938 490 c 0
 401.084960938 421.780273438 368.1953125 372.461914062 318.426757812 341.235351562 c 0
 266.79296875 308.836914062 243.162109375 278.043945312 241.088867188 226.216796875 c 0
 239.296875 185 l 1
 190.833007812 185 l 1
216.084960938 86 m 0
 243.452148438 86 262.084960938 69.392578125 262.084960938 45 c 0
 262.084960938 14.658203125 243.452148438 -6 216.084960938 -6 c 0
 188.716796875 -6 170.084960938 14.658203125 170.084960938 45 c 0
 170.084960938 69.392578125 188.716796875 86 216.084960938 86 c 0
EndSplineSet
EndChar

StartChar: w
Encoding: 119 119 44
Width: 710
Flags: W
AnchorPoint: "Bottom" 5 0 basechar 0
AnchorPoint: "Center" 5 0 basechar 0
AnchorPoint: "Top" 365 477 basechar 0
LayerCount: 4
Back
Fore
SplineSet
189.788796908 5 m 1
 35 472 l 1
 95.3974609375 472 l 1
 215.677270231 85.9189453125 l 1
 327.441864434 472 l 1
 378.693973934 472 l 1
 491.464426623 85.919921875 l 1
 610.737304688 472 l 1
 671.139648438 472 l 1
 517.306226589 5 l 1
 465.981725758 5 l 1
 353.041724952 409.232421875 l 1
 241.111392704 5 l 1
 189.788796908 5 l 1
EndSplineSet
Layer: 2
Layer: 3
EndChar

StartChar: v
Encoding: 118 118 45
Width: 487
Flags: W
AnchorPoint: "Bottom" 5 0 basechar 0
AnchorPoint: "Center" 5 0 basechar 0
AnchorPoint: "Top" 253.5 476 basechar 0
LayerCount: 4
Back
Fore
SplineSet
215.54486742 5 m 1
 35 472 l 1
 98.189453125 472 l 1
 241.642588718 75.7060546875 l 1
 384.129882812 472 l 1
 447.309570312 472 l 1
 266.764702893 5 l 1
 215.54486742 5 l 1
EndSplineSet
Layer: 2
Layer: 3
EndChar

StartChar: m
Encoding: 109 109 46
Width: 740
VWidth: 0
Flags: W
HStem: 427 56<178.108 306.244 444.873 574.802>
VStem: 75 60<10 384.474 419.247 477> 345 60<10 384.287> 615 60<10 382.104>
CounterMasks: 1 70
LayerCount: 4
Back
SplineSet
705 0 m 13xe8
 705 298 l 6
 705 438 607 483 540 483 c 4
 453 483 363 438 363 299 c 5xd8
 363 287.408203125 392.408203125 278 404 278 c 5
 415.591796875 278 425 286.408203125 425 298 c 5
 425 392 483 417 530 417 c 4
 577 417 635 391 635 299 c 6
 635 0 l 21
 705 0 l 13xe8
425 0 m 5xe8
 425 298 l 5xe8
 415 298 l 5xd8
 415 438 327 483 260 483 c 4
 179 483 99 418 99 279 c 5
 99 267.408203125 112.408203125 258 124 258 c 4
 135.591796875 258 145 286.408203125 145 298 c 5
 145 392 203 417 250 417 c 4
 297 417 355 391 355 299 c 13
 355 0 l 21
 425 0 l 5xe8
145 477 m 5
 75 477 l 5
 75 0 l 5
 145 0 l 5
 145 477 l 5
EndSplineSet
Fore
SplineSet
75 477 m 1
 135 477 l 1
 135 419.247070312 l 1
 143.833007812 429.7890625 l 0
 172.51860119 465.668945312 211.137462798 483 249.761904762 483 c 0
 291.264880952 483 339.954427083 463.724609375 370.678710938 410.485351562 c 0
 374.93359375 403.170898438 l 1
 379.287109375 410.427734375 l 0
 411.094726562 463.439453125 465.50874256 483 519.761904762 483 c 0
 581.584821429 483 675 445.08984375 675 293 c 0
 675 10 l 1
 615 10 l 1
 615 294 l 0
 615 403.692382812 556.896391369 427 510.238095238 427 c 0
 463.605840774 427 405 404.674804688 405 293 c 0
 405 10 l 1
 345 10 l 1
 345 294 l 0
 345 403.692382812 286.896391369 427 240.238095238 427 c 0
 193.605840774 427 135 404.674804688 135 293 c 0
 135 10 l 1
 75 10 l 1
 75 477 l 1
EndSplineSet
Layer: 2
SplineSet
143 298 m 0
 143 367.729492188 184.834960938 417 243 417 c 0
 301.170898438 417 343.119140625 367.721679688 343.119140625 298 c 0
 343.119140625 231.223632812 301.255859375 184.494140625 243.059570312 184.494140625 c 0
 184.86328125 184.494140625 143 231.223632812 143 298 c 0
EndSplineSet
Layer: 3
SplineSet
155 487 m 1
 75 487 l 1
 75 -10 l 1
 155 -10 l 1
 155 278 l 2
 155 383.556640625 210.856445312 417 255 417 c 0
 299.993164062 417 355 392.000976562 355 299 c 2
 355 -10 l 1
 435 -10 l 1
 435 298 l 2
 435 393.076171875 489.981445312 417 535 417 c 0
 579.993164062 417 635 392.000976562 635 299 c 2
 635 -10 l 1
 715 -10 l 1
 715 298 l 2
 715 444.841796875 614.09375 493 545 493 c 0
 488.1484375 493 429.553710938 473.19140625 394.711914062 420.575195312 c 1
 362.200195312 473.286132812 309.259765625 493 265 493 c 0
 223.909179688 493 184.602539062 471.586914062 155 434.169921875 c 1
 155 487 l 1
EndSplineSet
Substitution2: "'salt' Stylistic Alternatives lookup 0-1" m.alt
EndChar

StartChar: a
Encoding: 97 97 47
Width: 461
VWidth: 0
Flags: W
HStem: -6 55<145.786 278.34> 238 51<155.586 335> 429 54<130.684 290.822>
VStem: 55 58<80.6441 200.652> 335 58<0.125 60.7031 109.713 233.333 283.172 379.402>
AnchorPoint: "Center" -5 0 basechar 0
AnchorPoint: "Bottom" 379 0 basechar 0
AnchorPoint: "Top" 238 476 basechar 0
LayerCount: 4
Back
Fore
SplineSet
91.740234375 449.072265625 m 1
 134.459960938 472.4296875 184.357638889 483 227.62962963 483 c 0
 316.622070312 483 393 429.359375 393 291.075195312 c 0
 393 0.125 l 1
 335 0.125 l 1
 335 60.703125 l 1
 326.41015625 51.66015625 l 0
 294.958007812 18.546875 259.832845052 -6 204.037037037 -6 c 0
 122.30859375 -6 55 52.005859375 55 140.482421875 c 0
 55 245.239257812 136.76953125 289 253.037037037 289 c 0
 272.859989873 289 303.68359375 287.990234375 329.239257812 284.05859375 c 0
 335 283.171875 l 1
 335 289 l 0
 335 385.416992188 288.875976562 429 227.62962963 429 c 0
 197.182743779 429 154.141601562 420.936523438 117.947265625 400.884765625 c 1
 91.740234375 449.072265625 l 1
260.296296296 238 m 0
 204.932038484 238 113 230.21484375 113 140.418945312 c 0
 113 86.923828125 152.907226562 49 211.296296296 49 c 0
 269.880787037 49 335 94.6640625 335 203.076171875 c 0
 335 233.333007812 l 1
 330.573242188 233.857421875 l 0
 304.350585938 236.96484375 280.159179688 238 260.296296296 238 c 0
EndSplineSet
Layer: 2
SplineSet
55.126953125 143 m 0
 55.126953125 232.221679688 117.880859375 286.145507812 212.645507812 286.145507812 c 0
 300.504882812 286.145507812 365.873046875 232.584960938 365.873046875 143.389648438 c 0
 365.873046875 51.1953125 293.805664062 -6.1455078125 216.065429688 -6.1455078125 c 0
 121.249023438 -6.1455078125 55.126953125 50.7998046875 55.126953125 143 c 0
123 143 m 0
 123 191.817382812 158.290039062 221 213 221 c 0
 264.290039062 221 314 190.930664062 314 143 c 0
 314 91.8564453125 266.116210938 59 215 59 c 0
 160.270507812 59 123 91.185546875 123 143 c 0
EndSplineSet
Layer: 3
SplineSet
25 194 m 2
 25 39.248046875 130.931640625 -16 215 -16 c 0
 266.014648438 -16 312.661132812 -0.1923828125 345 34.9375 c 1
 345 -10 l 1
 425 -10 l 1
 425 677 l 1
 345 677 l 1
 345 442.0625 l 1
 311.711914062 478.223632812 265.680664062 493 215 493 c 0
 130.931640625 493 25 437.755859375 25 283 c 0
 25 194 l 2
345 283 m 2
 345 194 l 0
 345 95.2001953125 284.872070312 60 225 60 c 0
 165.127929688 60 105 95.2001953125 105 194 c 0
 105 283 l 0
 105 381.799804688 165.127929688 417 225 417 c 0
 284.872070312 417 345 381.799804688 345 283 c 2
EndSplineSet
Substitution2: "'salt' Stylistic Alternatives lookup 0-1" a.alt
EndChar

StartChar: s
Encoding: 115 115 48
Width: 416
VWidth: 0
Flags: W
HStem: -6 56<95.5087 277.132> 427 56<129.361 308.887>
VStem: 48.2441 58.2861<306.216 403.486> 306.645 58.2852<76.816 186.073>
AnchorPoint: "Center" -5 0 basechar 0
AnchorPoint: "Bottom" 213 0 basechar 0
AnchorPoint: "Top" 213 477 basechar 0
LayerCount: 4
Back
SplineSet
366.157226562 442.690429688 m 5
 418.713504488 411.049040113 457.795147897 359.459482115 457.999023438 283.341796875 c 2
 458 194.5 l 2
 457.999023438 50.62890625 319.649414062 -6 213 -6 c 4
 158.642094234 -6 96.0490591503 8.71115119278 47.736328125 42.1865234375 c 5
 1.2607421875 74.3896484375 -31.9995211795 123.958248237 -32 194.5 c 2
 -32 282.5 l 2
 -31.9990234375 426.37109375 106.350585938 483 213 483 c 4
 262.907003867 483 319.779296875 470.612304688 366.157226562 442.690429688 c 5
323.466796875 389.166992188 m 5
 289.400598863 408.734114357 247.605036705 417 213 417 c 4
 141.166992188 417 38.248046875 381.44140625 38.0009765625 283.078125 c 2
 38 194.5 l 2
 38.0004484764 149.144684049 59.732421875 117.081054688 90.2060546875 95.6669921875 c 5
 126.087890625 70.4501953125 174.089560465 60 213 60 c 4
 284.833007812 60 387.751953125 95.55859375 387.999023438 193.921875 c 2
 388 282.5 l 2
 387.999493092 333.764683218 360.235351562 368.048828125 323.466796875 389.166992188 c 5
EndSplineSet
Fore
SplineSet
201.729492188 483 m 0
 248.091796875 483 308.658203125 471.302734375 348.665039062 449.0546875 c 1
 322.2265625 398.875 l 1
 283.721679688 420.244140625 235.2265625 427 201.729492188 427 c 0
 147.40625 427 106.530273438 404.436523438 106.530273438 352.274414062 c 0
 106.530273438 303.891601562 143.19921875 290.819335938 206.71875 278.649414062 c 1
 270.125 267.341796875 364.9296875 238.274414062 364.9296875 135.262695312 c 0
 364.9296875 32.990234375 276.485351562 -6 201.729492188 -6 c 0
 151.409179688 -6 85.5859375 8.44140625 43 35.68359375 c 1
 69.34375 85.6826171875 l 1
 108.237304688 58.962890625 164.599609375 50 201.729492188 50 c 0
 260.939453125 50 306.64453125 74.671875 306.64453125 133.938476562 c 0
 306.64453125 190.432617188 260.625 209.655273438 196.735351562 221.895507812 c 1
 137.874023438 232.233398438 48.244140625 254.227539062 48.244140625 350.950195312 c 0
 48.244140625 448.015625 133.678710938 483 201.729492188 483 c 0
EndSplineSet
Layer: 2
SplineSet
223 459.984375 m 1
 223 449.984375 l 1
 218 449.984375 l 0
 155.935546875 449.984375 95 421.490234375 95 349 c 0
 95 282.435546875 155.241210938 266.138671875 218.87890625 254.923828125 c 0
 284.161132812 243.419921875 361 219.30078125 361 137 c 0
 361 50.3671875 288.008789062 16.9892578125 218.099609375 16.9892578125 c 0
 213.099609375 16.9892578125 l 1
 213.099609375 26.9892578125 l 1
 218.099609375 26.9892578125 l 0
 285.991210938 26.9892578125 351 58.453125 351 137 c 0
 351 210.69921875 282.95703125 233.477539062 217.143554688 245.076171875 c 0
 154.723632812 256.076171875 85 273.564453125 85 349 c 0
 85 429.736328125 154.064453125 459.984375 218 459.984375 c 0
 223 459.984375 l 1
EndSplineSet
Layer: 3
SplineSet
41.806640625 29.0595703125 m 1
 33.974609375 35.2783203125 l 1
 41.763671875 44.958984375 l 1
 -1.544921875 77.34375 -32 126.154296875 -32 194.5 c 2
 -32 282.5 l 2
 -31.9990234375 425.758789062 102.3828125 483 208 483 c 0
 255.592773438 483 309.044921875 471.473632812 353.403320312 445.805664062 c 1
 360.193359375 453.924804688 l 1
 368.025390625 447.706054688 l 1
 362.063476562 440.517578125 l 1
 411.592773438 408.552734375 447.805664062 357.49609375 447.999023438 283.341796875 c 2
 448 194.5 l 2
 447.999023438 51.2412109375 313.6171875 -6 208 -6 c 0
 155.794921875 -6 96.5615234375 7.8896484375 50.0029296875 39.1220703125 c 1
 41.806640625 29.0595703125 l 1
208 427 m 0
 135.500976562 427 28.259765625 389.690429688 28.0009765625 283.078125 c 2
 28 194.5 l 2
 28 147.361328125 48.6787109375 113.655273438 78.0234375 90.6708984375 c 1
 317.053710938 400.08203125 l 1
 282.649414062 419.069335938 241.60546875 427 208 427 c 0
325.810546875 394.883789062 m 1
 86.216796875 84.72265625 l 1
 122.829101562 60.08203125 170.135742188 50 208 50 c 0
 280.499023438 50 387.740234375 87.3095703125 387.999023438 193.921875 c 2
 388 282.5 l 2
 388 335.887695312 361.442382812 372.034179688 325.810546875 394.883789062 c 1
EndSplineSet
Substitution2: "'salt' Stylistic Alternatives lookup 0-1" s.alt
EndChar

StartChar: d
Encoding: 100 100 49
Width: 500
VWidth: 0
Flags: W
HStem: -6 56<168.443 311.376> 427 56<168.443 311.376> 647 20G<365 425>
VStem: 55 60<108.466 368.534> 365 60<0.0908203 62.5518 108.466 368.534 415.467 667>
AnchorPoint: "Apos" 508 667 basechar 0
AnchorPoint: "Bottom" 240 0 basechar 0
LayerCount: 4
Back
Fore
SplineSet
230.714285714 -6 m 0
 155.063476562 -6 55 39.849609375 55 203.279296875 c 2
 55 273.720703125 l 0
 55 437.149414062 155.063476562 483 230.714285714 483 c 0
 279.930385045 483 325.26171875 466.3828125 356.05859375 426.923828125 c 0
 365 415.466796875 l 1
 365 667 l 1
 425 667 l 1
 425 0.0908203125 l 1
 365 0.0908203125 l 1
 365 62.5517578125 l 1
 356.05859375 50.921875 l 0
 325.256835938 10.861328125 279.935825893 -6 230.714285714 -6 c 0
365 203.059570312 m 0
 365 273.940429688 l 2
 365 392.756835938 299.540108817 427 240 427 c 0
 180.459891183 427 115 392.756835938 115 273.940429688 c 0
 115 203.059570312 l 0
 115 84.2431640625 180.459891183 50 240 50 c 0
 299.540108817 50 365 84.2431640625 365 203.059570312 c 0
EndSplineSet
Layer: 2
Layer: 3
Substitution2: "'salt' Stylistic Alternatives lookup 0-1" d.alt
EndChar

StartChar: bracketright
Encoding: 93 93 50
Width: 259
VWidth: 0
Flags: W
HStem: -190 47<30 124> 750 47<30 124>
VStem: 30 144<-190 -143 750 797> 124 50<-143 750>
LayerCount: 4
Back
Fore
SplineSet
30 797 m 1xe0
 174 797 l 1
 174 -190 l 1
 30 -190 l 1
 30 -143 l 1xe0
 124 -143 l 1
 124 750 l 1xd0
 30 750 l 1
 30 797 l 1xe0
EndSplineSet
Layer: 2
Layer: 3
EndChar

StartChar: l
Encoding: 108 108 51
Width: 210
VWidth: 0
Flags: W
HStem: 647 20G<75 135>
VStem: 75 60<10 667>
AnchorPoint: "Center" 146 334 basechar 0
AnchorPoint: "Apos" 209 667 basechar 0
AnchorPoint: "Bottom" 114 0 basechar 0
AnchorPoint: "Top" 110 667 basechar 0
LayerCount: 4
Back
Fore
SplineSet
75 10 m 1
 75 667 l 1
 135 667 l 1
 135 10 l 1
 75 10 l 1
EndSplineSet
Layer: 2
Layer: 3
EndChar

StartChar: i
Encoding: 105 105 52
Width: 222
VWidth: 0
Flags: W
HStem: 560 84<73.3572 148.62>
VStem: 69 84<564.655 639.345> 81 60<5 472>
LayerCount: 4
Back
Fore
SplineSet
81 5 m 1xa0
 81 472 l 1
 141 472 l 1
 141 5 l 1
 81 5 l 1xa0
69 602 m 0xc0
 69 627.346679688 86.6669921875 644 110 644 c 0
 135.493164062 644 153 627.25 153 602 c 0
 153 576.749023438 135.493164062 560 110 560 c 0
 86.6669921875 560 69 576.653320312 69 602 c 0xc0
EndSplineSet
Layer: 2
Layer: 3
EndChar

StartChar: o
Encoding: 111 111 53
Width: 480
VWidth: 0
Flags: W
HStem: -6 56<168.641 311.652> 427 56<168.641 311.652>
VStem: 55 60<107.658 369.342> 365 60<107.658 369.342>
AnchorPoint: "Center" 5 0 basechar 0
AnchorPoint: "Bottom" 250 0 basechar 0
AnchorPoint: "Top" 250 477 basechar 0
LayerCount: 4
Back
SplineSet
445 204 m 22
 445 47 347 -6 250 -6 c 1
 153 -6 55 47 55 204 c 14
 55 273 l 18
 55 430 153 483 250 483 c 1
 347 483 445 430 445 273 c 10
 445 204 l 22
125 204 m 22
 125 95 188 60 250 60 c 1
 312 60 375 95 375 204 c 14
 375 273 l 18
 375 382 312 417 250 417 c 1
 188 417 125 382 125 273 c 10
 125 204 l 22
EndSplineSet
Fore
SplineSet
425 273.720703125 m 0
 425 203.279296875 l 2
 425 41.8818359375 331.44125 -6 240.2 -6 c 0
 148.95875 -6 55 41.8818359375 55 203.279296875 c 0
 55 273.720703125 l 0
 55 435.118164062 148.95875 483 240.2 483 c 0
 331.44125 483 425 435.118164062 425 273.720703125 c 0
115 273.940429688 m 0
 115 203.059570312 l 2
 115 84.2431640625 178.6446875 50 240.2 50 c 0
 301.7553125 50 365 84.2431640625 365 203.059570312 c 0
 365 273.940429688 l 0
 365 392.756835938 301.7553125 427 240.2 427 c 0
 178.6446875 427 115 392.756835938 115 273.940429688 c 0
EndSplineSet
Layer: 2
Layer: 3
EndChar

StartChar: c
Encoding: 99 99 54
Width: 425
VWidth: 0
Flags: W
HStem: -6 56<178.641 324.935> 427 56<178.641 333.776>
VStem: 65 60<107.658 369.342>
AnchorPoint: "Center" 15 0 basechar 0
AnchorPoint: "Bottom" 260 0 basechar 0
AnchorPoint: "Top" 260 476 basechar 0
LayerCount: 4
Back
SplineSet
455 194 m 18
 455 48 357 -6 260 -6 c 5
 163 -6 65 48 65 194 c 14
 65 283 l 22
 65 429 163 483 260 483 c 5
 357 483 455 429 455 283 c 10
 455 194 l 18
135 194 m 22
 135 96 198 60 260 60 c 5
 322 60 385 96 385 194 c 10
 385 283 l 18
 385 381 322 417 260 417 c 5
 198 417 135 381 135 283 c 14
 135 194 l 22
EndSplineSet
Fore
SplineSet
125 203.059570312 m 0
 125 84.2431640625 188.6446875 50 250.2 50 c 0
 286.8609375 50 319.119375 64.228515625 343.9621875 85.2958984375 c 1
 371.7 35.1572265625 l 1
 341.165625 9.4228515625 302.165625 -6 250.2 -6 c 0
 158.95875 -6 65 41.8818359375 65 203.279296875 c 0
 65 273.720703125 l 0
 65 435.118164062 158.95875 483 250.2 483 c 0
 303.196875 483 339.0253125 465.791992188 361.929375 449.53515625 c 1
 334.0996875 399.23046875 l 1
 313.978125 413.598632812 288.8390625 427 250.2 427 c 0
 188.6446875 427 125 392.756835938 125 273.940429688 c 0
 125 203.059570312 l 0
EndSplineSet
Layer: 2
Layer: 3
Substitution2: "'salt' Stylistic Alternatives lookup 0-1" c.alt
EndChar

StartChar: b
Encoding: 98 98 55
Width: 500
VWidth: 0
Flags: W
HStem: -6 56<187.847 332.5> 427 56<187.847 332.5> 647 20G<75 135>
VStem: 75 60<0.0908203 62.5518 105.393 371.607 415.467 667> 385 60<106.821 370.179>
LayerCount: 4
Back
SplineSet
465 194 m 22
 465 48 367 -6 270 -6 c 5
 173 -6 75 48 75 194 c 14
 75 283 l 22
 75 429 173 483 270 483 c 5
 367 483 465 429 465 283 c 14
 465 194 l 22
145 194 m 22
 145 96 208 60 270 60 c 5
 332 60 395 96 395 194 c 14
 395 283 l 22
 395 381 332 417 270 417 c 5
 208 417 145 381 145 283 c 14
 145 194 l 22
EndSplineSet
Fore
SplineSet
445 273.720703125 m 0
 445 203.279296875 l 2
 445 39.8505859375 346.5390625 -6 269.8 -6 c 0
 218.918125 -6 173.54875 10.8681640625 143.94140625 50.921875 c 0
 135 62.5517578125 l 1
 135 0.0908203125 l 1
 75 0.0908203125 l 1
 75 667 l 1
 135 667 l 1
 135 415.466796875 l 1
 143.94140625 426.923828125 l 0
 173.5534375 466.388671875 218.9125 483 269.8 483 c 0
 346.5390625 483 445 437.150390625 445 273.720703125 c 0
260.2 427 m 0
 198.6446875 427 135 392.756835938 135 273.940429688 c 2
 135 203.059570312 l 0
 135 84.2431640625 198.6446875 50 260.2 50 c 0
 321.7553125 50 385 84.2431640625 385 203.059570312 c 0
 385 273.940429688 l 0
 385 392.756835938 321.7553125 427 260.2 427 c 0
EndSplineSet
Layer: 2
SplineSet
455 194 m 2
 455 45.3515625 354.931640625 -6 275 -6 c 0
 216.63671875 -6 165.553710938 14.2548828125 135 64.6875 c 1
 135 0 l 1
 75 0 l 1
 75 667 l 1
 135 667 l 1
 135 412.3125 l 1
 165.5546875 462.74609375 216.638671875 483 275 483 c 0
 354.931640625 483 455 431.64453125 455 283 c 2
 455 194 l 2
135 283 m 2
 135 194 l 2
 135 89.484375 200.872070312 50 265 50 c 0
 329.127929688 50 395 89.4833984375 395 194 c 2
 395 283 l 2
 395 387.515625 329.127929688 427 265 427 c 0
 200.872070312 427 135 387.516601562 135 283 c 2
EndSplineSet
Layer: 3
Substitution2: "'salt' Stylistic Alternatives lookup 0-1" b.alt
EndChar

StartChar: h
Encoding: 104 104 56
Width: 498
VWidth: 0
Flags: W
HStem: 427 56<184.033 326.309> 647 20G<75 135>
VStem: 75 60<10 372.971 418.674 667> 375 60<10 372.55>
AnchorPoint: "Center" 0 0 basechar 0
AnchorPoint: "Bottom" 265 0 basechar 0
AnchorPoint: "Top" 110.5 667 basechar 0
LayerCount: 4
Back
Fore
SplineSet
135 278 m 0
 135 10 l 1
 75 10 l 1
 75 667 l 1
 135 667 l 1
 135 418.673828125 l 1
 143.9140625 429.888671875 l 0
 173.729492188 467.3984375 216.19921875 483 264.230769231 483 c 0
 339.815429688 483 435 438.2421875 435 278 c 0
 435 10 l 1
 375 10 l 1
 375 278 l 0
 375 393.426757812 314.351862981 427 255 427 c 0
 195.648137019 427 135 393.426757812 135 278 c 0
EndSplineSet
Layer: 2
Layer: 3
Substitution2: "'salt' Stylistic Alternatives lookup 0-1" h.alt
EndChar

StartChar: e
Encoding: 101 101 57
Width: 476
VWidth: 0
Flags: W
HStem: -6 54<175.642 342.631> 223 59<116 360> 429 54<169.211 307.968>
VStem: 58 58<112.851 223 282 374.532> 360 58<282 374.244>
AnchorPoint: "Center" 8 0 basechar 0
AnchorPoint: "Bottom" 263 0 basechar 0
AnchorPoint: "Top" 253 476 basechar 0
LayerCount: 4
Back
SplineSet
260 -6 m 4xf4
 151.26 -6 58 55 58 214 c 14
 58 273 l 22xf4
 58 434 156 483 248 483 c 5
 340 483 438 434 438 272 c 13
 438 218 l 5
 98 218 l 5
 98 282 l 5xec
 370 282 l 5
 370 386 306 419 248 419 c 5
 190 419 126 387 126 273 c 14
 126 214 l 22
 126 102 185.263671875 58 260 58 c 5
 298.91015625 58 344.6484375 68.4501953125 382.530273438 95.6669921875 c 5
 415 39.1865234375 l 5
 369.6875 8.7109375 314.360351297 -6 260 -6 c 4xf4
EndSplineSet
Fore
SplineSet
393.349609375 35.6318359375 m 1
 350.178510822 7.83984375 299.157714844 -6 249.713114754 -6 c 0
 147.365274398 -6 58 53.8671875 58 213.48828125 c 0
 58 273.720703125 l 0
 58 435.169921875 151.939333056 483 238.204918033 483 c 0
 324.458327997 483 418 435.247070312 418 272.9609375 c 0
 418 223 l 1
 116 223 l 1
 116 213.735351562 l 0
 116 96.087890625 175.300373015 48 249.713114754 48 c 0
 286.563132364 48 329.609294954 57.7197265625 366.3671875 83.6943359375 c 1
 393.349609375 35.6318359375 l 1
116.001953125 287.139648438 m 0
 115.857421875 282 l 1
 360 282 l 1
 360 287 l 0
 360 393.813476562 295.885446017 429 238.204918033 429 c 0
 182.46864594 429 119.077148438 396.807617188 116.001953125 287.139648438 c 0
EndSplineSet
Layer: 2
Layer: 3
Substitution2: "'salt' Stylistic Alternatives lookup 0-1" e.alt
EndChar

StartChar: n
Encoding: 110 110 58
Width: 498
VWidth: 0
Flags: W
HStem: 427 56<183.196 327.279>
VStem: 75 60<10 375.869 418.674 477> 375 60<10 372.55>
AnchorPoint: "Apos" 75 667 basechar 0
AnchorPoint: "Bottom" 262 0 basechar 0
AnchorPoint: "Top" 275 477 basechar 0
LayerCount: 4
Back
SplineSet
145 0 m 5
 75 0 l 5
 75 477 l 5
 145 477 l 5
 145 0 l 5
105 283 m 21
 105 429 178 483 275 483 c 5
 357 483 455 431 455 283 c 14
 455 0 l 21
 385 0 l 13
 385 283 l 22
 385 381 327 417 265 417 c 5
 203 417 145 381 145 283 c 13
 105 283 l 21
EndSplineSet
Fore
SplineSet
75 10 m 1
 75 477 l 1
 135 477 l 1
 135 418.673828125 l 1
 143.9140625 429.888671875 l 0
 172.532430013 467.3984375 214.925577799 483 264.791666667 483 c 0
 341.281453451 483 435 438.2421875 435 278 c 0
 435 10 l 1
 375 10 l 1
 375 278 l 0
 375 393.426757812 316.827107747 427 255.208333333 427 c 0
 193.589558919 427 135 393.426757812 135 278 c 0
 135 10 l 1
 75 10 l 1
EndSplineSet
Layer: 2
Layer: 3
Substitution2: "'salt' Stylistic Alternatives lookup 0-1" n.alt
EndChar

StartChar: g
Encoding: 103 103 59
Width: 500
VWidth: 0
Flags: W
HStem: -190 56<133.259 306.202> -6 56<168.882 313.023> 427 56<168.882 313.023>
VStem: 55 60<108.466 368.534> 365 60<-75.3192 61.5332 105.393 371.607 414.055 476.874>
AnchorPoint: "Bottom" 239 -185 basechar 0
AnchorPoint: "Top" 240 476 basechar 0
LayerCount: 4
Back
Fore
SplineSet
365 61.533203125 m 1
 356.505664062 50.076171875 l 2
 327.243994141 10.611328125 282.357421875 -6 232 -6 c 0
 155.063476562 -6 55 39.849609375 55 203.279296875 c 0
 55 273.720703125 l 0
 55 437.149414062 155.063476562 483 232 483 c 0
 282.351855469 483 327.248632812 466.03515625 356.505664062 425.750976562 c 0
 365 414.0546875 l 1
 365 476.874023438 l 1
 425 476.874023438 l 1
 425 -5 l 0
 425 -103.1640625 347.368408203 -190 231.05 -190 c 0
 181.947802734 -190 122.9453125 -175.186523438 80.595703125 -148.326171875 c 1
 107.70703125 -98.3408203125 l 1
 147.338867188 -125.162109375 194.667041016 -134 231.05 -134 c 0
 312.254589844 -134 365 -74.876953125 365 -5 c 0
 365 61.533203125 l 1
365 203.059570312 m 0
 365 273.940429688 l 2
 365 392.756835938 302.414111328 427 241.5 427 c 0
 180.585888672 427 115 392.756835938 115 273.940429688 c 0
 115 203.059570312 l 0
 115 84.2431640625 180.585888672 50 241.5 50 c 0
 302.414111328 50 365 84.2431640625 365 203.059570312 c 0
EndSplineSet
Layer: 2
Layer: 3
Substitution2: "'salt' Stylistic Alternatives lookup 0-1" g.alt
EndChar

StartChar: f
Encoding: 102 102 60
Width: 360
VWidth: 0
Flags: W
HStem: 426 51<45 125 185 295> 615 52<200.687 315>
VStem: 125 60<10 426 477 600.814>
LayerCount: 4
Back
Fore
SplineSet
45 426 m 1
 45 477 l 1
 125 477 l 1
 125 542 l 0
 125 628.189453125 183.413085938 667 240 667 c 0
 315 667 l 1
 315 615 l 1
 240 615 l 0
 211.76171875 615 185 591.877929688 185 542 c 0
 185 477 l 1
 295 477 l 1
 295 426 l 1
 185 426 l 1
 185 10 l 1
 125 10 l 1
 125 426 l 1
 45 426 l 1
EndSplineSet
Layer: 2
Layer: 3
Substitution2: "'salt' Stylistic Alternatives lookup 0-1" f.alt
EndChar

StartChar: j
Encoding: 106 106 61
Width: 221
VWidth: 0
Flags: W
HStem: -185 52<0 64.3131> 560 84<72.3683 147.814>
VStem: 68 84<564.646 639.354> 80 60<-118.814 467>
LayerCount: 4
Back
Fore
SplineSet
140 467 m 1xd0
 140 -60 l 2
 140 -146.189453125 81.5869140625 -185 25 -185 c 0
 0 -185 l 1
 0 -133 l 1
 25 -133 l 0
 53.154296875 -133 80 -110.903320312 80 -60 c 0
 80 467 l 1
 140 467 l 1xd0
68 602 m 0xe0
 68 627.297851562 85.5859375 644 110 644 c 0
 135.393554688 644 152 627.393554688 152 602 c 0
 152 576.606445312 135.393554688 560 110 560 c 0
 85.5849609375 560 68 576.702148438 68 602 c 0xe0
EndSplineSet
Layer: 2
Layer: 3
EndChar

StartChar: r
Encoding: 114 114 62
Width: 368
VWidth: 0
Flags: W
HStem: 427 56<184.946 314.558>
VStem: 75 60<10 372.971 418.674 477>
AnchorPoint: "Center" 0 0 basechar 0
AnchorPoint: "Bottom" 109 0 basechar 0
AnchorPoint: "Top" 210 477 basechar 0
LayerCount: 4
Back
SplineSet
145 0 m 5
 75 0 l 5
 75 477 l 5
 145 477 l 5
 145 0 l 5
323.279296875 413.912109375 m 5
 305.595703125 416.342773438 285.516735081 417 265 417 c 5
 203 417 145 381 145 283 c 13
 105 283 l 21
 105 429 178 483 275 483 c 5
 293.935335464 483 313.723846249 481.826883932 332.961806483 478.200059771 c 5
 323.279296875 413.912109375 l 5
EndSplineSet
Fore
SplineSet
75 10 m 1
 75 477 l 1
 135 477 l 1
 135 418.673828125 l 1
 143.9140625 429.888671875 l 0
 173.729492188 467.3984375 217.965820312 483 270 483 c 0
 286.884765625 483 306.61328125 481.0390625 322.309570312 478.043945312 c 1
 313.809570312 424.494140625 l 1
 296.247070312 426.283203125 279.419921875 427 260 427 c 0
 195.702148438 427 135 393.426757812 135 278 c 0
 135 10 l 1
 75 10 l 1
EndSplineSet
Layer: 2
Layer: 3
Substitution2: "'salt' Stylistic Alternatives lookup 0-1" r.alt
EndChar

StartChar: p
Encoding: 112 112 63
Width: 500
VWidth: 0
Flags: W
HStem: -6 56<186.977 331.118> 427 56<186.977 331.118>
VStem: 75 60<-190 61.5332 105.393 371.607 414.448 476.909> 385 60<108.466 368.534>
LayerCount: 4
Back
Fore
SplineSet
143.494335938 50.076171875 m 0
 135 61.533203125 l 1
 135 -190 l 1
 75 -190 l 1
 75 476.909179688 l 1
 135 476.909179688 l 1
 135 414.448242188 l 1
 143.494335938 426.078125 l 0
 172.756005859 466.138671875 217.642578125 483 268 483 c 0
 344.936523438 483 445 437.150390625 445 273.720703125 c 0
 445 203.279296875 l 0
 445 39.8505859375 344.936523438 -6 268 -6 c 0
 217.648144531 -6 172.751367187 10.6171875 143.494335938 50.076171875 c 0
258.5 427 m 0
 197.585888672 427 135 392.756835938 135 273.940429688 c 2
 135 203.059570312 l 0
 135 84.2431640625 197.585888672 50 258.5 50 c 0
 319.414111328 50 385 84.2431640625 385 203.059570312 c 0
 385 273.940429688 l 0
 385 392.756835938 319.414111328 427 258.5 427 c 0
EndSplineSet
Layer: 2
Layer: 3
Substitution2: "'salt' Stylistic Alternatives lookup 0-1" p.alt
EndChar

StartChar: q
Encoding: 113 113 64
Width: 500
VWidth: 0
Flags: W
HStem: -6 56<168.882 313.023> 427 56<168.882 313.023>
VStem: 55 60<108.466 368.534> 365 60<-190 61.5332 105.393 371.607 414.448 476.909>
LayerCount: 4
Back
Fore
SplineSet
365 61.533203125 m 1
 356.505664062 50.076171875 l 2
 327.243994141 10.611328125 282.357421875 -6 232 -6 c 0
 155.063476562 -6 55 39.849609375 55 203.279296875 c 0
 55 273.720703125 l 0
 55 437.149414062 155.063476562 483 232 483 c 0
 282.351855469 483 327.248632812 466.131835938 356.505664062 426.078125 c 0
 365 414.448242188 l 1
 365 476.909179688 l 1
 425 476.909179688 l 1
 425 -190 l 1
 365 -190 l 1
 365 61.533203125 l 1
365 203.059570312 m 0
 365 273.940429688 l 2
 365 392.756835938 302.414111328 427 241.5 427 c 0
 180.585888672 427 115 392.756835938 115 273.940429688 c 0
 115 203.059570312 l 0
 115 84.2431640625 180.585888672 50 241.5 50 c 0
 302.414111328 50 365 84.2431640625 365 203.059570312 c 0
EndSplineSet
Layer: 2
Layer: 3
Substitution2: "'salt' Stylistic Alternatives lookup 0-1" q.alt
EndChar

StartChar: t
Encoding: 116 116 65
Width: 360
VWidth: 0
Flags: W
HStem: 10 56<198.324 315> 425 52<45 125 185 295>
VStem: 125 60<79.1088 425 477 581>
AnchorPoint: "Apos" 306 667 basechar 0
AnchorPoint: "Top" 15 0 basechar 0
AnchorPoint: "Center" 15 0 basechar 0
AnchorPoint: "Bottom" 234 0 basechar 0
LayerCount: 4
Back
Fore
SplineSet
45 425 m 1
 45 477 l 1
 125 477 l 1
 125 581 l 1
 185 581 l 1
 185 477 l 1
 295 477 l 1
 295 425 l 1
 185 425 l 1
 185 135 l 0
 185 87.8818359375 211.990234375 66 240 66 c 0
 315 66 l 1
 315 10 l 1
 240 10 l 0
 183.413085938 10 125 48.8134765625 125 135 c 0
 125 425 l 1
 45 425 l 1
EndSplineSet
Layer: 2
Layer: 3
Substitution2: "'salt' Stylistic Alternatives lookup 0-1" t.alt
EndChar

StartChar: u
Encoding: 117 117 66
Width: 490
VWidth: 0
Flags: W
HStem: -6 56<175.652 314.348>
VStem: 65 60<105.297 467> 365 60<105.296 467>
AnchorPoint: "Center" 0 0 basechar 0
AnchorPoint: "Bottom" 255 0 basechar 0
AnchorPoint: "Top" 255 476 basechar 0
LayerCount: 4
Back
Fore
SplineSet
245 50 m 0
 301.562800481 50 365 83.478515625 365 199 c 2
 365 467 l 1
 425 467 l 1
 425 199 l 0
 425 40.810546875 331.942382812 -6 245 -6 c 0
 158.057617188 -6 65 40.8115234375 65 199 c 0
 65 467 l 1
 125 467 l 1
 125 199 l 0
 125 83.478515625 188.437199519 50 245 50 c 0
EndSplineSet
Layer: 2
Layer: 3
EndChar

StartChar: backslash
Encoding: 92 92 67
Width: 312
VWidth: 0
Flags: W
VStem: 10 289.081
LayerCount: 4
Back
Fore
SplineSet
10 797 m 1
 61.669921875 797 l 1
 299.081054688 -130 l 1
 247.411132812 -130 l 1
 10 797 l 1
EndSplineSet
Layer: 2
Layer: 3
EndChar

StartChar: k
Encoding: 107 107 68
Width: 449
VWidth: 0
Flags: W
HStem: 647 20G<75 135>
VStem: 75 60<10 143.661 218.016 667>
AnchorPoint: "Top" 2 0 basechar 0
AnchorPoint: "Center" 2 0 basechar 0
AnchorPoint: "Bottom" 239 0 basechar 0
LayerCount: 4
Back
Fore
SplineSet
75 10 m 1
 75 667 l 1
 135 667 l 1
 135 218.015625 l 1
 319.498046875 477 l 1
 388.842773438 477 l 1
 232.765413955 265.140625 l 1
 404.396484375 10 l 1
 335.6171875 10 l 1
 196.064858481 225.55859375 l 1
 135 143.661132812 l 1
 135 10 l 1
 75 10 l 1
EndSplineSet
Layer: 2
Layer: 3
Substitution2: "'salt' Stylistic Alternatives lookup 0-1" k.alt
EndChar

StartChar: x
Encoding: 120 120 69
Width: 434
VWidth: 0
Flags: W
LayerCount: 4
Back
Fore
SplineSet
180.079635322 237.994140625 m 1
 40 472 l 1
 107.201171875 472 l 1
 213.081569626 275.912109375 l 1
 321.008789062 472 l 1
 386.236328125 472 l 1
 246.156692803 237.994140625 l 1
 386.216796875 5 l 1
 319.03515625 5 l 1
 213.154758499 201.087890625 l 1
 105.227539062 5 l 1
 40.01953125 5 l 1
 180.079635322 237.994140625 l 1
EndSplineSet
Layer: 2
Layer: 3
EndChar

StartChar: y
Encoding: 121 121 70
Width: 510
VWidth: 0
Flags: W
AnchorPoint: "Bottom" 5 0 basechar 0
AnchorPoint: "Center" 5 0 basechar 0
AnchorPoint: "Top" 265 476 basechar 0
LayerCount: 4
Back
Fore
SplineSet
35 477 m 1
 98.1787109375 477 l 1
 252.583007812 65.525390625 l 1
 406.987304688 477 l 1
 470.165039062 477 l 1
 212.510538116 -185 l 1
 152.218795947 -185 l 1
 221.96417129 -1.8642578125 l 1
 35 477 l 1
EndSplineSet
Layer: 2
Layer: 3
EndChar

StartChar: z
Encoding: 122 122 71
Width: 420
VWidth: 0
Flags: W
HStem: 5 56<126.801 365> 416 56<55 293.199>
VStem: 55 310<5 48.5215 428.479 472>
AnchorPoint: "Center" 10 0 basechar 0
AnchorPoint: "Bottom" 217 0 basechar 0
AnchorPoint: "Top" 215 476 basechar 0
LayerCount: 4
Back
Fore
SplineSet
55 416 m 1
 55 472 l 1
 365 472 l 1
 365 428.478515625 l 1
 126.80078125 61 l 1
 365 61 l 1
 365 5 l 1
 55 5 l 1
 55 48.521484375 l 1
 293.19921875 416 l 1
 55 416 l 1
EndSplineSet
Layer: 2
Layer: 3
EndChar

StartChar: bracketleft
Encoding: 91 91 72
Width: 259
VWidth: 0
Flags: W
HStem: -190 47<135 229> 750 47<135 229>
VStem: 85 144<-190 -143 750 797> 85 50<-143 750>
LayerCount: 4
Back
Fore
SplineSet
85 -190 m 1xe0
 85 797 l 1
 229 797 l 1
 229 750 l 1xe0
 135 750 l 1
 135 -143 l 1xd0
 229 -143 l 1
 229 -190 l 1
 85 -190 l 1xe0
EndSplineSet
Layer: 2
Layer: 3
EndChar

StartChar: slash
Encoding: 47 47 73
Width: 312
VWidth: 0
Flags: W
VStem: 10 289.081
LayerCount: 4
Back
Fore
SplineSet
247.411132812 797 m 1
 299.081054688 797 l 1
 61.669921875 -130 l 1
 10 -130 l 1
 247.411132812 797 l 1
EndSplineSet
Layer: 2
Layer: 3
EndChar

StartChar: copyright
Encoding: 169 169 74
Width: 620
VWidth: 0
Flags: W
HStem: 4 50<206.604 413.396> 129 51<252.098 376.206> 487 51<252.098 381.317> 623 50<206.605 413.395>
VStem: 65 54<136.899 540.459> 181 51.1154<201.141 465.859> 501 54<136.899 540.458>
LayerCount: 4
Back
Fore
SplineSet
501 451 m 0
 501 571.327148438 417.265061599 623 310 623 c 0
 202.734938401 623 119 571.328125 119 451 c 0
 119 227 l 0
 119 105.6953125 202.719914363 54 310 54 c 0
 417.280085637 54 501 105.6953125 501 227 c 0
 501 451 l 0
65 451 m 0
 65 612.724609375 169.502929688 673 310 673 c 0
 450.497070312 673 555 612.724609375 555 451 c 0
 555 227 l 0
 555 64.259765625 450.485351562 4 310 4 c 0
 169.514648438 4 65 64.259765625 65 227 c 0
 65 451 l 0
181 403 m 0
 181 502 241.679124099 538 309.038461538 538 c 0
 331.6796875 538 379.567871094 537.178710938 417.587139423 488.940429688 c 1
 380.225172776 460.004882812 l 1
 357.886305589 488.100585938 328.179086538 487 309.038461538 487 c 0
 269.813514123 487 232.115384615 467.924804688 232.115384615 403 c 0
 232.115384615 264 l 0
 232.115384615 199.081054688 269.811636118 180 309.038461538 180 c 0
 330.047701322 180 358.268479567 182.500976562 387.203838642 210.315429688 c 1
 421.581655649 181.213867188 l 1
 380.404522236 128.379882812 332.442157452 129 309.038461538 129 c 0
 241.679124099 129 181 165 181 264 c 0
 181 403 l 0
EndSplineSet
Layer: 2
Layer: 3
EndChar

StartChar: registered
Encoding: 168 174 75
Width: 620
VWidth: 0
Flags: W
HStem: 4 50<206.604 413.396> 282 48<252.308 320.783> 486 48<252.308 369.252> 623 50<206.605 413.395>
VStem: 65 54<136.899 540.459> 203.269 49.0385<133 282 330 486> 387.885 44.2308<350.11 466.582> 501 54<136.899 540.458>
LayerCount: 4
Back
Fore
SplineSet
318.653846154 486 m 0
 252.307692308 486 l 1
 252.307692308 330 l 1
 318.653846154 330 l 0
 351.750863882 330 387.884615385 354.243164062 387.884615385 410 c 0
 387.884615385 462.918945312 352.519906851 486 318.653846154 486 c 0
203.269230769 133 m 1
 203.269230769 534 l 1
 318.653846154 534 l 0
 378.919020433 534 432.115384615 495.203125 432.115384615 410 c 0
 432.115384615 351.556640625 406.005483774 310.564453125 371.403245192 293.518554688 c 0
 367.130784255 291.4140625 l 1
 436.243164062 133 l 1
 386.167179988 133 l 1
 320.782564603 282 l 1
 252.307692308 282 l 1
 252.307692308 133 l 1
 203.269230769 133 l 1
65 451 m 0
 65 612.724609375 169.502929688 673 310 673 c 0
 450.497070312 673 555 612.724609375 555 451 c 0
 555 227 l 0
 555 64.259765625 450.485351562 4 310 4 c 0
 169.514648438 4 65 64.259765625 65 227 c 0
 65 451 l 0
501 451 m 0
 501 571.327148438 417.265061599 623 310 623 c 0
 202.734938401 623 119 571.328125 119 451 c 0
 119 227 l 0
 119 105.6953125 202.719914363 54 310 54 c 0
 417.280085637 54 501 105.6953125 501 227 c 0
 501 451 l 0
EndSplineSet
Layer: 2
Layer: 3
EndChar

StartChar: braceleft
Encoding: 123 123 76
Width: 314
VWidth: 0
Flags: W
HStem: -191 46<213.215 274> 292.008 40.4834<60 112.24> 751 46<213.217 274>
VStem: 140 52<-123.804 264.424 354.775 731.434>
LayerCount: 4
Back
SplineSet
284 -74 m 5
 270 -74 l 6
 220 -74 202 -44 202 20 c 6
 202 213 l 6
 202 322 123 368 64 368 c 6
 60 368 l 5
 60 318 l 5
 64 318 l 6
 109 318 140 287 140 223 c 6
 140 20 l 6
 140 -89 191 -130 270 -130 c 6
 284 -130 l 5
 284 -74 l 5
284 797 m 5
 270 797 l 6
 191 797 140 756 140 647 c 6
 140 453 l 6
 140 389 109 368 64 368 c 6
 60 368 l 5
 60 318 l 5
 64 318 l 6
 123 318 202 354 202 463 c 6
 202 647 l 6
 202 711 220 741 270 741 c 6
 284 741 l 5
 284 797 l 5
EndSplineSet
Fore
SplineSet
265 797 m 0
 274 797 l 1
 274 751 l 1
 265 751 l 0
 211.440429688 751 192 716.416015625 192 650.7421875 c 0
 192 434.022460938 l 0
 192 372.778320312 166.918945312 336.08203125 135.2265625 314.685546875 c 0
 129.25390625 310.653320312 l 1
 135.059570312 306.377929688 l 0
 166.776367188 283.017578125 192 242.140625 192 180.846679688 c 0
 192 -46 l 0
 192 -110.84375 211.366210938 -145 265 -145 c 0
 274 -145 l 1
 274 -191 l 1
 265 -191 l 0
 188.547851562 -191 140 -152.864257812 140 -46 c 0
 140 190.809570312 l 0
 140 257.291992188 107.439453125 291.184570312 60 292.0078125 c 1
 60 332.491210938 l 1
 107.817382812 333.079101562 140 357.30078125 140 423.5703125 c 0
 140 650.259765625 l 0
 140 758.408203125 188.55078125 797 265 797 c 0
EndSplineSet
Layer: 2
Layer: 3
EndChar

StartChar: bar
Encoding: 124 124 77
Width: 222
VWidth: 0
Flags: W
VStem: 85 52<-185 797>
LayerCount: 4
Back
Fore
SplineSet
85 797 m 1
 137 797 l 1
 137 -185 l 1
 85 -185 l 1
 85 797 l 1
EndSplineSet
Layer: 2
Layer: 3
EndChar

StartChar: parenright
Encoding: 41 41 78
Width: 295
Flags: W
HStem: -190.938 48.0342<30 96.0266> 748.902 48.0371<30 94.1991>
VStem: 163 52<-69.9267 675.222>
LayerCount: 4
Back
Fore
SplineSet
215 16.095703125 m 0
 215 -123.508789062 121.247070312 -188.528320312 30 -190.938476562 c 1
 30 -142.904296875 l 1
 96.8369140625 -140.065429688 163 -86.154296875 163 15.779296875 c 0
 163 589.208984375 l 0
 163 691.810546875 95.7060546875 746.057617188 30 748.90234375 c 1
 30 796.939453125 l 1
 123.3515625 794.50390625 215 728.907226562 215 588.893554688 c 0
 215 16.095703125 l 0
EndSplineSet
Layer: 2
Layer: 3
EndChar

StartChar: braceright
Encoding: 125 125 79
Width: 314
VWidth: 0
Flags: W
HStem: -191 46<40 100.783> 292.008 40.4834<202.746 254> 751 46<40 100.785>
VStem: 122 52<-123.805 265.417 354.521 731.432>
LayerCount: 4
Back
Fore
SplineSet
40 751 m 1
 40 797 l 1
 49 797 l 0
 125.452148438 797 174 758.40625 174 650.259765625 c 0
 174 423.5703125 l 0
 174 356.65625 207.340820312 333.064453125 254 332.491210938 c 1
 254 292.0078125 l 1
 205.412109375 291.1640625 174 256.578125 174 190.809570312 c 0
 174 -46 l 0
 174 -152.866210938 125.44921875 -191 49 -191 c 0
 40 -191 l 1
 40 -145 l 1
 49 -145 l 0
 102.559570312 -145 122 -110.849609375 122 -46 c 0
 122 180.846679688 l 0
 122 242.141601562 147.224609375 283.018554688 178.940429688 306.377929688 c 0
 184.74609375 310.653320312 l 1
 178.7734375 314.685546875 l 0
 147.080078125 336.083007812 122 372.779296875 122 434.022460938 c 0
 122 650.7421875 l 0
 122 716.41015625 102.633789062 751 49 751 c 0
 40 751 l 1
EndSplineSet
Layer: 2
Layer: 3
EndChar

StartChar: parenleft
Encoding: 40 40 80
Width: 295
Flags: W
HStem: -190.939 48.0508<201.717 265> 748.918 48.0215<197.189 265>
VStem: 80 52<-69.3106 680.397>
LayerCount: 4
Back
Fore
SplineSet
265 -142.888671875 m 1
 265 -190.939453125 l 1
 172.59375 -188.534179688 80 -123.8671875 80 16.095703125 c 0
 80 588.893554688 l 0
 80 729.538085938 172.78125 794.534179688 265 796.939453125 c 1
 265 748.91796875 l 1
 193.185546875 746.10546875 132 691.987304688 132 589.208984375 c 0
 132 15.779296875 l 0
 132 -86.9716796875 204.33984375 -140.08984375 265 -142.888671875 c 1
EndSplineSet
Layer: 2
Layer: 3
EndChar

StartChar: hyphen
Encoding: 45 45 81
Width: 360
Flags: W
HStem: 228 56<80 280>
VStem: 80 200<228 284>
LayerCount: 4
Back
Fore
SplineSet
80 228 m 1
 80 284 l 1
 280 284 l 1
 280 228 l 1
 80 228 l 1
EndSplineSet
Layer: 2
Layer: 3
EndChar

StartChar: exclam
Encoding: 33 33 82
Width: 250
VWidth: 0
Flags: W
HStem: -1 92<85.2031 164.797>
VStem: 79 92<5.20312 84.7969> 92 64<253.009 662> 101.799 44.4023<185 355.094>
LayerCount: 4
Back
Fore
SplineSet
79 45 m 0xc0
 79 72.3671875 97.6328125 91 125 91 c 0
 152.3671875 91 171 72.3671875 171 45 c 0
 171 17.6328125 152.3671875 -1 125 -1 c 0
 97.6328125 -1 79 17.6328125 79 45 c 0xc0
146.201171875 185 m 1x90
 101.798828125 185 l 1x90
 92 423.102539062 l 1
 92 662 l 1
 156 662 l 1
 156 423.102539062 l 1xa0
 146.201171875 185 l 1x90
EndSplineSet
Layer: 2
Layer: 3
EndChar

StartChar: equal
Encoding: 61 61 83
Width: 500
Flags: W
HStem: 161 46<80 420> 295 46<80 420>
LayerCount: 4
Back
Fore
SplineSet
80 295 m 1
 80 341 l 1
 420 341 l 1
 420 295 l 1
 80 295 l 1
80 161 m 1
 80 207 l 1
 420 207 l 1
 420 161 l 1
 80 161 l 1
EndSplineSet
Layer: 2
Layer: 3
EndChar

StartChar: plus
Encoding: 43 43 84
Width: 500
Flags: W
HStem: 228 46<80 227.273 272.727 420>
VStem: 227.273 45.4545<76 228 274 426>
LayerCount: 4
Back
SplineSet
230 71 m 5
 290 71 l 5
 290 431 l 5
 230 431 l 5
 230 71 l 5
80 279 m 5
 80 223 l 5
 440 223 l 5
 440 279 l 5
 80 279 l 5
EndSplineSet
Fore
SplineSet
80 228 m 1
 80 274 l 1
 227.272727273 274 l 1
 227.272727273 426 l 1
 272.727272727 426 l 1
 272.727272727 274 l 1
 420 274 l 1
 420 228 l 1
 272.727272727 228 l 1
 272.727272727 76 l 1
 227.272727273 76 l 1
 227.272727273 228 l 1
 80 228 l 1
EndSplineSet
Layer: 2
Layer: 3
EndChar

StartChar: quotedblright
Encoding: 211 8221 85
Width: 352
Flags: W
HStem: 466 207<83.2402 89.5352 243.24 249.535>
VStem: 50 92<576.886 665.506> 210 92<576.886 665.506>
LayerCount: 4
Back
Fore
SplineSet
210 617 m 0
 210 655.779296875 233.0703125 673 256 673 c 0
 278.9296875 673 302 655.779296875 302 617 c 0
 302 611.547851562 301.041992188 594.96484375 293.296875 572.69921875 c 1
 249.53515625 466 l 1
 214.377929688 466 l 1
 242.956054688 572.28515625 l 1
 238.581054688 573.743164062 l 0
 222.525390625 579.095703125 210 593.01953125 210 617 c 0
50 617 m 0
 50 655.779296875 73.0703125 673 96 673 c 0
 118.9296875 673 142 655.779296875 142 617 c 0
 142 611.547851562 141.041992188 594.96484375 133.296875 572.69921875 c 1
 89.53515625 466 l 1
 54.3779296875 466 l 1
 82.9560546875 572.28515625 l 1
 78.5810546875 573.743164062 l 0
 62.525390625 579.095703125 50 593.01953125 50 617 c 0
EndSplineSet
Layer: 2
Layer: 3
EndChar

StartChar: quoteright
Encoding: 213 8217 86
Width: 192
Flags: W
HStem: 466 207<83.2402 89.5352>
VStem: 50 92<576.886 665.506>
LayerCount: 4
Back
Fore
SplineSet
50 617 m 0
 50 655.779296875 73.0703125 673 96 673 c 0
 118.9296875 673 142 655.779296875 142 617 c 0
 142 611.547851562 141.041992188 594.96484375 133.296875 572.69921875 c 1
 89.53515625 466 l 1
 54.3779296875 466 l 1
 82.9560546875 572.28515625 l 1
 78.5810546875 573.743164062 l 0
 62.525390625 579.095703125 50 593.01953125 50 617 c 0
EndSplineSet
Layer: 2
Layer: 3
EndChar

StartChar: quoteleft
Encoding: 212 8216 87
Width: 192
Flags: W
HStem: 450 207<102.475 108.76>
VStem: 50 92<456.156 536.114>
LayerCount: 4
Back
Fore
SplineSet
142 496 m 0
 142 464.145507812 118.9296875 450 96 450 c 0
 73.0703125 450 50 464.145507812 50 496 c 0
 50 500.439453125 50.97265625 518.044921875 58.6865234375 539.256835938 c 0
 102.474609375 657 l 1
 137.622070312 657 l 1
 109.043945312 540.71484375 l 1
 113.418945312 539.256835938 l 0
 129.474609375 533.904296875 142 519.98046875 142 496 c 0
EndSplineSet
Layer: 2
Layer: 3
EndChar

StartChar: quotedblleft
Encoding: 210 8220 88
Width: 352
Flags: W
HStem: 450 207<102.475 108.76 262.475 268.76>
VStem: 50 92<456.156 536.114> 210 92<456.156 536.114>
LayerCount: 4
Back
Fore
SplineSet
142 496 m 0
 142 464.145507812 118.9296875 450 96 450 c 0
 73.0703125 450 50 464.145507812 50 496 c 0
 50 500.439453125 50.97265625 518.044921875 58.6865234375 539.256835938 c 0
 102.474609375 657 l 1
 137.622070312 657 l 1
 109.043945312 540.71484375 l 1
 113.418945312 539.256835938 l 0
 129.474609375 533.904296875 142 519.98046875 142 496 c 0
302 496 m 0
 302 464.145507812 278.9296875 450 256 450 c 0
 233.0703125 450 210 464.145507812 210 496 c 0
 210 500.439453125 210.97265625 518.044921875 218.686523438 539.256835938 c 0
 262.474609375 657 l 1
 297.622070312 657 l 1
 269.043945312 540.71484375 l 1
 273.418945312 539.256835938 l 0
 289.474609375 533.904296875 302 519.98046875 302 496 c 0
EndSplineSet
Layer: 2
Layer: 3
EndChar

StartChar: divide
Encoding: 214 247 89
Width: 500
Flags: W
HStem: 63 81<217.424 284.395> 228 46<80 420> 353 81<217.423 284.395>
VStem: 213.636 74.5455<66.3487 140.645 356.355 430.651>
LayerCount: 4
Back
Fore
SplineSet
80 228 m 1
 80 274 l 1
 420 274 l 1
 420 228 l 1
 80 228 l 1
213.636363636 394 m 0
 213.636363636 417.280273438 228.71537642 434 250.909090909 434 c 0
 273.103693182 434 288.181818182 417.280273438 288.181818182 394 c 0
 288.181818182 369.63671875 273.056640625 353 250.909090909 353 c 0
 228.760653409 353 213.636363636 369.637695312 213.636363636 394 c 0
213.636363636 103 m 0
 213.636363636 127.36328125 228.761541193 144 250.909090909 144 c 0
 273.057528409 144 288.181818182 127.362304688 288.181818182 103 c 0
 288.181818182 79.7197265625 273.102805398 63 250.909090909 63 c 0
 228.714488636 63 213.636363636 79.7197265625 213.636363636 103 c 0
EndSplineSet
Layer: 2
Layer: 3
EndChar

StartChar: quotedbl
Encoding: 34 34 90
Width: 302
Flags: W
HStem: 456 201<55.7158 106.973 195.716 246.973>
VStem: 55.7158 51.2568<456 657> 195.716 51.2568<456 657>
LayerCount: 4
Back
Fore
SplineSet
195.715820312 456 m 1
 190 657 l 1
 251.736328125 657 l 1
 246.97265625 456 l 1
 195.715820312 456 l 1
55.7158203125 456 m 1
 50 657 l 1
 111.736328125 657 l 1
 106.97265625 456 l 1
 55.7158203125 456 l 1
EndSplineSet
Layer: 2
Layer: 3
EndChar

StartChar: exclamdown
Encoding: 193 161 91
Width: 250
VWidth: 0
Flags: W
HStem: 391 92<85.2031 164.797>
VStem: 79 92<397.203 476.797> 92 64<-185 223.991> 101.799 44.4023<121.906 292>
LayerCount: 4
Back
Fore
SplineSet
79 437 m 0xc0
 79 464.3671875 97.6328125 483 125 483 c 0
 152.3671875 483 171 464.3671875 171 437 c 0
 171 409.6328125 152.3671875 391 125 391 c 0
 97.6328125 391 79 409.6328125 79 437 c 0xc0
92 53.8974609375 m 1xa0
 101.798828125 292 l 1
 146.201171875 292 l 1x90
 156 53.8974609375 l 1
 156 -185 l 1
 92 -185 l 1
 92 53.8974609375 l 1xa0
EndSplineSet
Layer: 2
Layer: 3
EndChar

StartChar: questiondown
Encoding: 192 191 92
Width: 358
VWidth: 0
Flags: W
HStem: -191 60<169.484 310.359> 391 92<198.027 270.749>
VStem: 55 64<-83.5893 57.5521> 192.36 84.057<396.157 477.843> 211.542 47.5149<182.972 292>
LayerCount: 4
Back
Fore
SplineSet
213.179335672 292 m 1xe8
 257.459870161 292 l 1
 257.996111823 280.276367188 259.056995911 255.483398438 259.056995911 240 c 0
 259.056995911 175.799804688 233.77333536 132.5703125 178.914296462 93.1982421875 c 0
 144.471679688 70.6728515625 119 40.88671875 119 -13 c 0
 119 -88.1318359375 176.726501859 -131 238.042746933 -131 c 0
 282.181640625 -131 323.013671875 -107.762695312 350.701171875 -76.8076171875 c 1
 400.825195312 -114.833007812 l 1
 360.037109375 -162.612304688 295.739257812 -191 238.042746933 -191 c 0
 145.135742188 -191 55 -124.791015625 55 -13 c 0
 55 57.2998046875 86.912109375 105.551757812 136.657226562 136.764648438 c 0
 186.973981882 169.045898438 209.647814041 196.86328125 211.542058716 250.783203125 c 0
 213.179335672 292 l 1xe8
276.416592892 437 m 0xf0
 276.416592892 409.6328125 259.392481543 391 234.388094937 391 c 0
 209.383708331 391 192.359596982 409.6328125 192.359596982 437 c 0
 192.359596982 464.3671875 209.383708331 483 234.388094937 483 c 0
 259.392481543 483 276.416592892 464.3671875 276.416592892 437 c 0xf0
EndSplineSet
Layer: 2
Layer: 3
EndChar

StartChar: endash
Encoding: 208 8211 93
Width: 420
Flags: W
HStem: 228 56<80 340>
VStem: 80 260<228 284>
LayerCount: 4
Back
Fore
SplineSet
80 228 m 1
 80 284 l 1
 340 284 l 1
 340 228 l 1
 80 228 l 1
EndSplineSet
Layer: 2
Layer: 3
EndChar

StartChar: emdash
Encoding: 209 8212 94
Width: 520
Flags: W
HStem: 228 56<80 440>
LayerCount: 4
Back
Fore
SplineSet
80 228 m 1
 80 284 l 1
 440 284 l 1
 440 228 l 1
 80 228 l 1
EndSplineSet
Layer: 2
Layer: 3
EndChar

StartChar: quotesingle
Encoding: 39 39 95
Width: 162
Flags: W
HStem: 456 201<55.7158 106.973>
VStem: 55.7158 51.2568<456 657>
LayerCount: 4
Back
Fore
SplineSet
55.7158203125 456 m 1
 50 657 l 1
 111.736328125 657 l 1
 106.97265625 456 l 1
 55.7158203125 456 l 1
EndSplineSet
Layer: 2
Layer: 3
EndChar

StartChar: asterisk
Encoding: 42 42 96
Width: 342
VWidth: 0
Flags: W
HStem: 431.081 225.919
VStem: 151.921 35.5195<563.825 657>
LayerCount: 4
Back
Fore
SplineSet
151.920898438 563.744140625 m 1
 148.846679688 657 l 1
 190.51171875 657 l 1
 187.440429688 563.825195312 l 1
 276.491210938 595.556640625 l 1
 289.342773438 555.397460938 l 1
 199.180664062 529.783203125 l 1
 256.584960938 455.977539062 l 1
 222.853515625 431.081054688 l 1
 169.6796875 507.775390625 l 1
 116.493164062 431.063476562 l 1
 83.7236328125 455.041015625 l 1
 140.012695312 529.751953125 l 1
 50 556.346679688 l 1
 62.8515625 596.505859375 l 1
 151.920898438 563.744140625 l 1
EndSplineSet
Layer: 2
Layer: 3
EndChar

StartChar: dollar
Encoding: 36 36 97
Width: 466
VWidth: 0
Flags: W
HStem: 584.349 57.7715<167.139 230 274 333.287>
VStem: 52 60<425.784 537.552> 210 44<-41 24.3076 85.0352 163.051> 230 44<234.919 307.938 376.15 581.96 642.12 708> 351 59<130.203 270.414>
LayerCount: 4
Back
SplineSet
210 708 m 5
 264 708 l 5
 264 -18 l 4
 264 -41 l 5
 210 -41 l 5
 210 708 l 5
237 644 m 4
 273 644 358 640 418 561 c 5
 365 522 l 5
 323 577 269 578 237 578 c 4
 172 578 122 541 122 476 c 4
 122 420 177 387 243 374 c 4
 354 354 430 295 430 199 c 4
 430 107 352 23 237 23 c 4
 201 23 112 27 50 110 c 5
 102 149 l 5
 147 90 205 89 237 89 c 4
 315 89 361 140 361 199 c 4
 361 255 299 297 231 310 c 4
 125 330 52 380 52 476 c 4
 52 580 142 644 237 644 c 4
EndSplineSet
Fore
SplineSet
230 641.727539062 m 1xd8
 230 708 l 1
 274 708 l 1
 274 642.120117188 l 1
 279 642.120117188 l 0
 311.781954736 642.120117188 359.545707152 623.952148438 405.8984375 565.07421875 c 1
 360.955813064 531.546875 l 1
 335.089400773 572.45703125 304.919801063 584.348632812 279 584.348632812 c 0
 274 584.348632812 l 1
 274 366.5078125 l 1xd8
 277.822265625 365.569335938 l 0
 356.817745248 341.51171875 420 285.249023438 410 197.1796875 c 0
 410 113.724609375 346.564513531 36.7197265625 258.404296875 24.84375 c 0
 254 24.3076171875 l 1
 254 -41 l 1
 210 -41 l 1
 210 24.4296875 l 1
 205.462890625 24.857421875 l 0
 163.741210938 28.791015625 101.639648438 44.12890625 53.974609375 106.0625 c 1
 96.1279296875 139.38671875 l 1
 130.791015625 95.595703125 172.751953125 84.6796875 204.533203125 81.6591796875 c 0
 210 81.1396484375 l 1xe8
 230 317.723632812 l 1
 225.307839134 318.661132812 l 0
 112.159179688 341.731445312 52 390.857421875 52 478.94140625 c 0
 52 571.108398438 123.76060902 630.23828125 224.660644531 641.149414062 c 0
 230 641.727539062 l 1xd8
230 581.959960938 m 1
 222.796963778 580.923828125 l 2
 158.001997514 571.607421875 112 535.690429688 112 477 c 0
 112 427.7734375 159.61998402 394.500976562 221.993963068 378.23828125 c 0
 230 376.150390625 l 1
 230 581.959960938 l 1
254 85.03515625 m 1xe8
 259.873046875 86.0771484375 l 2
 317.853847858 97.4619140625 351 144.552734375 351 199 c 0
 361 249.361328125 324.776790029 287.481445312 280.581054688 305.743164062 c 0
 274 307.9375 l 1xd8
 254 85.03515625 l 1xe8
EndSplineSet
Layer: 2
Layer: 3
EndChar

StartChar: percent
Encoding: 37 37 98
Width: 692
VWidth: 0
Flags: W
HStem: -1 50<471.453 561.885> 242 50<471.405 561.887> 375 50<130.113 220.631> 623 50<130.115 220.633>
VStem: 60 52<442.324 605.677> 238.246 50.4795<442.323 605.676> 403.5 50.3749<65.7776 225.232> 580 52<68.115 222.884>
LayerCount: 4
Back
Fore
SplineSet
238.245614035 548.108398438 m 0
 238.245614035 599.024414062 205.8550233 623 176 623 c 0
 145.377929688 623 112 599.052734375 112 548.108398438 c 0
 112 499.891601562 l 0
 112 448.975585938 145.366210938 425 176 425 c 0
 205.843647204 425 238.245614035 448.947265625 238.245614035 499.891601562 c 0
 238.245614035 548.108398438 l 0
60 545.8671875 m 0
 60 633.509765625 118.3828125 673 176 673 c 0
 232.050381488 673 288.725146199 633.505859375 288.725146199 545.8671875 c 0
 288.725146199 502.1328125 l 0
 288.725146199 414.490234375 232.04943348 375 176 375 c 0
 118.381835938 375 60 414.494140625 60 502.1328125 c 0
 60 545.8671875 l 0
139.380859375 0 m 1
 484.802597314 657 l 1
 546.619140625 657 l 1
 202.016601562 -0 l 1
 139.380859375 0 l 1
580 169 m 0
 580 218.629882812 546.633789062 242 516 242 c 0
 486.156352796 242 453.87509728 218.657226562 453.87509728 169 c 0
 453.87509728 122 l 0
 453.87509728 72.3701171875 486.198560028 49 516 49 c 0
 546.622070312 49 580 72.3427734375 580 122 c 0
 580 169 l 0
403.500181589 167 m 0
 403.274853801 253.171875 459.95056652 292 516 292 c 0
 573.618164062 292 632 253.168945312 632 167 c 0
 632 124 l 0
 632 37.828125 573.6171875 -1 516 -1 c 0
 460.057490497 -1 403.500181589 37.8310546875 403.500181589 124 c 0
 403.500181589 167 l 0
EndSplineSet
Layer: 2
Layer: 3
EndChar

StartChar: numbersign
Encoding: 35 35 99
Width: 590
VWidth: 0
Flags: W
HStem: 0 21G<97.1621 154.891 301.162 359.046> 190 52<55 137.162 197.737 341.162 404.853 500> 425 47<90 183.013 242.728 389.147 452.838 535>
LayerCount: 4
Back
SplineSet
55 247 m 5
 520 247 l 5
 520 190 l 5
 55 190 l 5
 55 247 l 5
90 477 m 5
 555 477 l 5
 555 420 l 5
 90 420 l 5
 90 477 l 5
450 667 m 5
 514 667 l 5
 374 0 l 5
 310 0 l 5
 450 667 l 5
236 667 m 5
 300 667 l 5
 160 0 l 5
 96 0 l 5
 236 667 l 5
EndSplineSet
Fore
SplineSet
192.303324846 472 m 1
 229.806738148 662 l 1
 280.231249314 662 l 1
 242.727836012 472 l 1
 399.056640625 472 l 1
 439.056640625 662 l 1
 492.837890625 662 l 1
 452.837890625 472 l 1
 535 472 l 1
 535 425 l 1
 442.93359375 425 l 1
 404.852539062 242 l 1
 500 242 l 1
 500 195 l 1
 394.943359375 195 l 1
 354.943359375 -0 l 1
 301.162109375 0 l 1
 341.162109375 190 l 1
 188.446772677 190 l 1
 150.943359375 0 l 1
 97.162109375 0 l 1
 137.162109375 194.008789062 l 1
 55 194.008789062 l 1
 55 242 l 1
 147.06640625 242 l 1
 183.012623313 425 l 1
 90 425 l 1
 90 472 l 1
 192.303324846 472 l 1
351.06640625 242 m 1
 389.147460938 425 l 1
 233.441712533 425 l 1
 197.73747421 242 l 1
 351.06640625 242 l 1
EndSplineSet
Layer: 2
Layer: 3
EndChar

StartChar: periodcentered
Encoding: 225 183 100
Width: 252
VWidth: 0
Flags: W
HStem: 209 92<86.2031 165.797>
VStem: 80 92<215.203 294.797>
AnchorPoint: "Center" 17 250 mark 0
LayerCount: 4
Back
Fore
SplineSet
80 255 m 0
 80 282.3671875 98.6328125 301 126 301 c 0
 153.3671875 301 172 282.3671875 172 255 c 0
 172 227.6328125 153.3671875 209 126 209 c 0
 98.6328125 209 80 227.6328125 80 255 c 0
EndSplineSet
Layer: 2
Layer: 3
EndChar

StartChar: bullet
Encoding: 165 8226 101
Width: 315
VWidth: 0
Flags: W
HStem: 172 156<101.612 213.497>
VStem: 80 155<193.612 306.391>
LayerCount: 4
Back
Fore
SplineSet
80 250 m 0
 80 296.375 111.630859375 328 158 328 c 0
 203.329101562 328 235 296.3984375 235 250 c 0
 235 203.59765625 203.32421875 172 158 172 c 0
 111.625 172 80 203.630859375 80 250 c 0
EndSplineSet
Layer: 2
Layer: 3
EndChar

StartChar: oe
Encoding: 207 339 102
Width: 730
VWidth: 0
Flags: W
HStem: -6 54<169.758 280.956 438.068 585.666> 223 52<386 604> 429 54<169.761 280.96 435.596 556.96>
VStem: 60 58<110.01 371.056> 332 54<108.938 223 275 370.813> 604 56<275 375.843>
LayerCount: 4
Back
SplineSet
515 -6 m 4xf9
 428 -6 350 61 350 204 c 6
 350 272 l 6xf5
 350 416 428 483 515 483 c 4
 605 483 690 418 690 268 c 6
 690 218 l 5
 380 218 l 5
 380 282 l 5xf3
 622 282 l 5
 622 375 574 419 515 419 c 4
 461 419 408 373 408 273 c 6
 408 204 l 6
 408 106 460 59 515 59 c 4
 559 59 592 71 635 102 c 5
 670 50 l 5
 614 11 575 -6 515 -6 c 4xf9
235 483 m 4
 321 483 398 417 398 273 c 6
 398 204 l 6xf3
 398 61 322 -6 235 -6 c 4
 148 -6 60 61 60 204 c 6
 60 272 l 6
 60 416 148 483 235 483 c 4
235 417 m 4
 183 417 130 371 130 273 c 6
 130 204 l 6
 130 106 183 60 235 60 c 4
 287 60 340 106 340 204 c 6
 340 272 l 6xf9
 340 371 287 417 235 417 c 4
EndSplineSet
Fore
SplineSet
332 272.903320312 m 0
 332 376.456054688 278.053385417 429 225.238095238 429 c 0
 172.44047619 429 118 376.481445312 118 273.9296875 c 0
 118 203.0703125 l 0
 118 100.518554688 172.438616071 48 225.238095238 48 c 0
 278.035714286 48 332 100.518554688 332 203.0703125 c 0
 332 272.903320312 l 0
386 280.166015625 m 0
 386 275 l 1
 604 275 l 1
 604 280.166015625 l 0
 604 378.159179688 554.633414866 431 495.23364486 431 c 0
 442.576591706 431 386 379.45703125 386 280.166015625 c 0
670 223 m 1
 386 223 l 1
 386 203.444335938 l 0
 386 100.693359375 441.57421875 47 500 47 c 0
 543.782226562 47 577.740234375 61.1259765625 618.721679688 89.9453125 c 1
 648.095703125 46.302734375 l 1
 593.415039062 8.826171875 557.549804688 -6 500 -6 c 0
 444.765625 -6 392.65234375 21.9033203125 363.486328125 81.20703125 c 0
 358.923828125 90.484375 l 1
 354.484375 81.146484375 l 0
 326.476934524 21.8642578125 277.826450893 -6 225.238095238 -6 c 0
 145.105096726 -6 60 59.7080078125 60 203.279296875 c 0
 60 272.69921875 l 0
 60 417.310546875 145.11811756 483 225.238095238 483 c 0
 277.827380952 483 326.476934524 455.134765625 354.484375 395.853515625 c 0
 358.923828125 386.515625 l 1
 363.486328125 395.79296875 l 0
 392.65234375 455.09765625 442.581246349 483 495.23364486 483 c 0
 578.283659463 483 660 419.557617188 660 268.8828125 c 0
 670 223 l 1
EndSplineSet
Layer: 2
Layer: 3
EndChar

StartChar: perthousand
Encoding: 228 8240 103
Width: 1002
VWidth: 0
Flags: W
HStem: -1 50<475.699 566.014 780.794 871.885> 242 50<475.571 565.914 780.782 871.887> 375 50<130.113 221.227> 623 50<130.115 221.229>
VStem: 60 52<442.324 605.677> 239.08 51.2025<442.323 605.676> 406.699 51.1746<65.7776 225.232> 583.841 51.1746<65.7677 222.884> 711.778 51.1746<65.7776 225.232> 890 52<68.115 222.884>
LayerCount: 4
Back
Fore
SplineSet
239.079754601 548.108398438 m 0
 239.079754601 599.024414062 206.225295365 623 176 623 c 0
 145.377929688 623 112 599.052734375 112 548.108398438 c 0
 112 499.891601562 l 0
 112 448.975585938 145.366210938 425 176 425 c 0
 206.213756351 425 239.079754601 448.947265625 239.079754601 499.891601562 c 0
 239.079754601 548.108398438 l 0
60 545.8671875 m 0
 60 633.509765625 118.3828125 673 176 673 c 0
 232.795799583 673 290.282208589 633.505859375 290.282208589 545.8671875 c 0
 290.282208589 502.1328125 l 0
 290.282208589 414.490234375 232.794837998 375 176 375 c 0
 118.381835938 375 60 414.494140625 60 502.1328125 c 0
 60 545.8671875 l 0
890 169 m 0
 890 218.629882812 856.633789062 242 826 242 c 0
 795.786243649 242 762.95240605 218.657226562 762.95240605 169 c 0
 762.95240605 122 l 0
 762.95240605 72.3701171875 795.788980635 49 826 49 c 0
 856.622070312 49 890 72.3427734375 890 122 c 0
 890 169 l 0
711.777824626 167 m 0
 711.717791411 253.171875 769.205162002 292 826 292 c 0
 883.618164062 292 942 253.168945312 942 167 c 0
 942 124 l 0
 942 37.828125 883.6171875 -1 826 -1 c 0
 769.232940335 -1 711.777824626 37.8310546875 711.777824626 124 c 0
 711.777824626 167 l 0
583.841371068 169 m 0
 583.841371068 218.629882812 550.857197206 242 520.693251534 242 c 0
 490.540844876 242 457.873170641 218.657226562 457.873170641 169 c 0
 457.873170641 122 l 0
 457.873170641 72.3701171875 490.709745226 49 520.857270854 49 c 0
 550.99326375 49 583.841371068 72.3427734375 583.841371068 122 c 0
 583.841371068 169 l 0
406.698589218 167 m 0
 406.472392638 253.171875 463.959763229 292 520.693251534 292 c 0
 577.427701424 292 634.914110429 253.168945312 635.015952491 167 c 0
 635.015952491 124 l 0
 635.015952491 37.828125 577.559875722 -1 520.857270854 -1 c 0
 464.153704926 -1 406.698589218 37.8310546875 406.698589218 124 c 0
 406.698589218 167 l 0
139.380859375 0 m 1
 489.167702142 657 l 1
 550.842773438 657 l 1
 202.016601562 -0 l 1
 139.380859375 0 l 1
EndSplineSet
Layer: 2
Layer: 3
EndChar

StartChar: ampersand
Encoding: 38 38 104
Width: 582
Flags: W
HStem: -6 61<179.105 325.464 462.824 527> 315 56<181.755 380.181 435 527> 617 56<182.213 328.577>
VStem: 60 60<115.749 255.663> 69 60<424.013 561.262> 380.181 54.8186<128.293 315 371 466>
LayerCount: 4
Back
Fore
SplineSet
379.181537612 126.942382812 m 0xf4
 380.181434599 128.29296875 l 1
 380.181434599 315 l 1
 247.046413502 315 l 0
 172.040039062 315 120 251.5390625 120 186 c 0
 120 119.493164062 172.978515625 55 247.046413502 55 c 0
 275.476599585 55 329.239068269 59.462890625 379.181537612 126.942382812 c 0xf4
129 492.46875 m 0xec
 129 430.607421875 178.086914062 371 247.046413502 371 c 2
 380.181434599 371 l 1
 380.181434599 466 l 1
 435 466 l 1
 435 371 l 1
 527 371 l 1
 527 315 l 1
 435 315 l 1
 435 135.145507812 l 0
 435 72.9326171875 486.51171875 60.9677734375 522 60.9677734375 c 0
 527 60.9677734375 l 1
 527 0 l 1
 522 0 l 0
 486.915039062 0 433.7265625 1.14453125 402.466323016 53.400390625 c 0
 398.887645866 59.60546875 l 1
 394.626157865 53.90625 l 0
 356.010865803 2.341796875 285.020050435 -6 247.046413502 -6 c 0
 133.862304688 -6 60 83.8310546875 60 183.73046875 c 0xf4
 60 251.079101562 95.279296875 313.283203125 143.375976562 339.647460938 c 0
 151.16015625 343.9140625 l 1
 143.543945312 348.482421875 l 0
 101.2734375 373.837890625 69 430.05859375 69 492.315429688 c 0
 69 587.171875 139.862304688 673 247.046413502 673 c 0
 287.592283096 673 353.69866248 671.631835938 416.928710938 589.909179688 c 1
 372.410485891 554.951171875 l 1
 325.865234375 614.55859375 273.861237474 617 247.046413502 617 c 0
 178.96484375 617 129 555.2734375 129 492.46875 c 0xec
EndSplineSet
Layer: 2
Layer: 3
EndChar

StartChar: plusminus
Encoding: 177 177 105
Width: 500
Flags: W
HStem: 100 46<80 420> 298 46<80 227.273 272.727 420>
VStem: 227.273 45.4545<206 298 344 436>
LayerCount: 4
Back
Fore
SplineSet
227.272727273 344 m 1
 227.272727273 436 l 1
 272.727272727 436 l 1
 272.727272727 344 l 1
 420 344 l 1
 420 298 l 1
 272.727272727 298 l 1
 272.727272727 206 l 1
 227.272727273 206 l 1
 227.272727273 298 l 1
 80 298 l 1
 80 344 l 1
 227.272727273 344 l 1
80 100 m 1
 80 146 l 1
 420 146 l 1
 420 100 l 1
 80 100 l 1
EndSplineSet
Layer: 2
Layer: 3
EndChar

StartChar: less
Encoding: 60 60 106
Width: 500
Flags: W
LayerCount: 4
Back
Fore
SplineSet
80 280.83203125 m 1
 420 446.109375 l 1
 420 391.248046875 l 1
 114.697265625 251 l 1
 420 106.18359375 l 1
 420 51.369140625 l 1
 80 221.16796875 l 1
 80 280.83203125 l 1
EndSplineSet
Layer: 2
Layer: 3
EndChar

StartChar: greater
Encoding: 62 62 107
Width: 500
Flags: W
LayerCount: 4
Back
Fore
SplineSet
80 446.109375 m 1
 420 280.83203125 l 1
 420 221.16796875 l 1
 80 51.369140625 l 1
 80 106.18359375 l 1
 385.302734375 251 l 1
 80 391.248046875 l 1
 80 446.109375 l 1
EndSplineSet
Layer: 2
Layer: 3
EndChar

StartChar: quotedblbase
Encoding: 227 8222 108
Width: 352
Flags: W
HStem: -119 217<83.2402 89.5449 243.24 249.545>
VStem: 50 92<12.8251 91.8444> 210 92<12.8251 91.8444>
LayerCount: 4
Back
Fore
SplineSet
210 52 m 0
 210 83.8544921875 233.0703125 98 256 98 c 0
 278.9296875 98 302 83.8544921875 302 52 c 0
 302 46.5341796875 301.024414062 28.9150390625 293.299804688 6.7060546875 c 1
 249.544921875 -119 l 1
 214.365234375 -119 l 1
 242.947265625 8.2880859375 l 1
 238.581054688 9.7431640625 l 0
 222.380859375 15.1435546875 210 28.09765625 210 52 c 0
50 52 m 0
 50 83.8544921875 73.0703125 98 96 98 c 0
 118.9296875 98 142 83.8544921875 142 52 c 0
 142 46.5341796875 141.024414062 28.9150390625 133.299804688 6.7060546875 c 1
 89.544921875 -119 l 1
 54.365234375 -119 l 1
 82.947265625 8.2880859375 l 1
 78.5810546875 9.7431640625 l 0
 62.380859375 15.1435546875 50 28.09765625 50 52 c 0
EndSplineSet
Layer: 2
Layer: 3
EndChar

StartChar: quotesinglbase
Encoding: 226 8218 109
Width: 192
Flags: W
HStem: -121 217<83.2402 89.5254>
VStem: 50 92<9.88561 89.8444>
LayerCount: 4
Back
Fore
SplineSet
50 50 m 0
 50 81.8544921875 73.0703125 96 96 96 c 0
 118.9296875 96 142 81.8544921875 142 50 c 0
 142 44.5634765625 141.060546875 29.017578125 133.294921875 6.693359375 c 1
 89.525390625 -121 l 1
 54.3779296875 -121 l 1
 82.9560546875 5.28515625 l 1
 78.5810546875 6.7431640625 l 0
 62.525390625 12.095703125 50 26.01953125 50 50 c 0
EndSplineSet
Layer: 2
Layer: 3
EndChar

StartChar: ellipsis
Encoding: 201 8230 110
Width: 522
VWidth: 0
Flags: W
HStem: 4 92<56.2031 135.797 223.276 298.724 386.203 465.797>
VStem: 50 92<10.2031 89.7969> 217.396 87.2083<9.15676 90.8432> 380 92<10.2031 89.7969>
CounterMasks: 1 70
LayerCount: 4
Back
Fore
SplineSet
50 50 m 0
 50 77.3671875 68.6328125 96 96 96 c 0
 123.3671875 96 142 77.3671875 142 50 c 0
 142 22.6328125 123.3671875 4 96 4 c 0
 68.6328125 4 50 22.6328125 50 50 c 0
380 50 m 0
 380 77.3671875 398.6328125 96 426 96 c 0
 453.3671875 96 472 77.3671875 472 50 c 0
 472 22.6328125 453.3671875 4 426 4 c 0
 398.6328125 4 380 22.6328125 380 50 c 0
217.395833333 50 m 0
 217.395833333 77.3671875 235.058186849 96 261 96 c 0
 286.941813151 96 304.604166667 77.3671875 304.604166667 50 c 0
 304.604166667 22.6328125 286.941813151 4 261 4 c 0
 235.058186849 4 217.395833333 22.6328125 217.395833333 50 c 0
EndSplineSet
Layer: 2
Layer: 3
EndChar

StartChar: grave
Encoding: 96 96 111
Width: 242
Flags: W
HStem: 546 111
VStem: 50 133.33
AnchorPoint: "Top" 156 477 mark 0
LayerCount: 4
Back
Fore
SplineSet
128.892578125 546 m 1
 50 657 l 1
 114.528320312 657 l 1
 183.330078125 546 l 1
 128.892578125 546 l 1
EndSplineSet
Layer: 2
Layer: 3
EndChar

StartChar: ae
Encoding: 190 230 112
Width: 723
VWidth: 0
Flags: W
HStem: -6 53<143.278 268.587 438.245 583.013> 225 50<381 599> 240 47<156.088 327> 431 52<126.635 282.565 433.039 546.374>
VStem: 55 56<79.5007 201.045> 327 54<111.776 225 281.172 371.525> 599 56<275 370.887>
LayerCount: 4
Back
SplineSet
327 287 m 5
 327 376 284 421 228 421 c 4
 179 421 145 408 109 386 c 5
 74 438 l 5
 116 464 165 483 228 483 c 4
 323 483 383 416 383 280 c 5
 383 204 l 5
 383 56 293 -6 202 -6 c 4
 117 -6 55 60 55 143 c 4
 55 243 128 292 251 292 c 4
 273 292 301 291 327 287 c 5
121 143 m 4
 121 99 152 57 210 57 c 4
 270 57 327 108 327 204 c 6
 327 231 l 5
 301 234 280 235 259 235 c 4
 199 235 121 220 121 143 c 4
510 -6 m 4
 413 -6 335 61 335 204 c 6
 335 279 l 6
 335 423 413 483 500 483 c 4
 587 483 675 418 675 268 c 6
 675 220 l 5
 391 220 l 5
 391 204 l 6
 391 106 445 57 510 57 c 4
 546 57 583 72 614 98 c 5
 654 47 l 5
 609 13 565 -6 510 -6 c 4
391 280 m 5
 609 280 l 5
 609 369 554 421 500 421 c 4
 448 421 391 374 391 280 c 5
EndSplineSet
Fore
SplineSet
381 280.166015625 m 0xde
 381 275 l 1
 599 275 l 1
 599 280.166015625 l 0
 599 374.16796875 545.028383028 431 490.229357798 431 c 0
 437.524942661 431 381 379.45703125 381 280.166015625 c 0xde
254 240 m 0xbe
 194.276367188 240 111 224.5625 111 140.419921875 c 0
 111 92.7802734375 144.116210938 47 205 47 c 0
 268.206054688 47 327 102.359375 327 203.04296875 c 0
 327 235.334960938 l 1
 322.573242188 235.859375 l 0
 296.396484375 238.9609375 275.16015625 240 254 240 c 0xbe
76.068359375 441.452148438 m 1
 116.706054688 465.799804688 163.23828125 483 223 483 c 0
 282.352539062 483 326.263671875 457.174804688 351.46484375 402.89453125 c 0
 355.7578125 393.6484375 l 1
 360.44140625 402.703125 l 0
 389.528320312 458.9375 437.296659977 483 490.229357798 483 c 0
 570.502866972 483 655 419.48046875 655 268.849609375 c 0
 665 225 l 1
 381 225 l 1xde
 381 203.392578125 l 0
 381 100.469726562 436.913085938 47 505 47 c 0
 541.0390625 47 578.266601562 62.0830078125 608.213867188 85.900390625 c 1
 641.904296875 42.9453125 l 1
 598.74609375 11.2041015625 557.115234375 -6 505 -6 c 0
 441.595703125 -6 386.631835938 23.00390625 357.514648438 84.1494140625 c 0
 353.177734375 93.255859375 l 1
 348.555664062 84.291015625 l 0
 316.500976562 22.125 257.448242188 -6 197 -6 c 0
 114.8203125 -6 55 58.6953125 55 140.5 c 0
 55 238.567382812 124.212890625 287 246 287 c 0
 267.846679688 287 295.639648438 285.99609375 321.239257812 282.05859375 c 0
 327 281.171875 l 1
 327 287 l 0
 327 380.83984375 282.478515625 431 223 431 c 0
 174.888671875 431 139.401367188 417.864257812 105.4921875 397.737304688 c 1
 76.068359375 441.452148438 l 1
EndSplineSet
Layer: 2
Layer: 3
EndChar

StartChar: asciicircum
Encoding: 94 94 113
Width: 388
Flags: W
HStem: 546 111
VStem: 50 272.436
LayerCount: 4
Back
Fore
SplineSet
267.173828125 546 m 1
 186.217773438 620.807617188 l 1
 105.26171875 546 l 1
 50 546 l 1
 170.173828125 657 l 1
 202.26171875 657 l 1
 322.435546875 546 l 1
 267.173828125 546 l 1
EndSplineSet
Layer: 2
Layer: 3
EndChar

StartChar: sterling
Encoding: 163 163 114
Width: 501
VWidth: 0
Flags: W
HStem: 0 61.0273<60 122 185.597 432> 297 51<62 122 185.597 362> 613 60<236.055 351.409>
VStem: 122 63.5973<61.0273 297 348 552.871>
LayerCount: 4
Back
Fore
SplineSet
122 348 m 1
 122 448.546875 l 2
 122 612.702148438 211.425386544 673 293.811007106 673 c 0
 316.353107834 673 374.213867188 672.358398438 438.98046875 589.897460938 c 1
 389.903320312 552.013671875 l 1
 342.59765625 612.337890625 312.965962243 613 293.811007106 613 c 0
 240.502182088 613 185.597262645 569.022460938 185.597262645 448.904296875 c 0
 185.597262645 348 l 1
 362 348 l 1
 362 297 l 1
 185.597262645 297 l 1
 185.597262645 61.02734375 l 1
 432 61.02734375 l 1
 432 0 l 1
 60 0 l 1
 60 61.02734375 l 1
 122 61.02734375 l 1
 122 297 l 1
 62 297 l 1
 62 348 l 1
 122 348 l 1
EndSplineSet
Layer: 2
Layer: 3
EndChar

StartChar: section
Encoding: 164 167 115
Width: 469
VWidth: 0
Flags: W
HStem: 4 55<130.759 315.154> 618 55<152.66 329.201>
VStem: 65.8691 60<298.183 421.154 499.106 593.136> 341.76 60.1087<84.7334 181.382 257.331 371.553>
LayerCount: 4
Back
SplineSet
231 673 m 4
 307 673 364 643 389 626 c 5
 351 571 l 5
 316 597 269 608 231 608 c 4
 176 608 138 583 138 541 c 4
 138 502 160 485 237 471 c 4
 320 455 404 421 404 328 c 4
 404 241 342 202 290 202 c 4
 205 202 183 256 162 272 c 5
 197 258 l 5
 226 235 243 237 290 237 c 4
 318 237 334 276 334 318 c 4
 334 369 301 392 225 406 c 4
 142 421 68 450 68 541 c 4
 68 632 158 673 231 673 c 4
181 465 m 4
 257 465 313 430 338 413 c 5
 351 373 l 5
 316 399 219 430 181 430 c 4
 156 430 138 395 138 353 c 4
 138 304 160 287 237 273 c 4
 320 257 404 223 404 130 c 4
 404 43 332 -6 230 -6 c 4
 145 -6 86 31 65 47 c 5
 107 100 l 5
 136 77 183 59 230 59 c 4
 308 59 334 88 334 130 c 4
 334 171 301 194 225 208 c 4
 142 223 68 252 68 343 c 4
 68 434 138 465 181 465 c 4
EndSplineSet
Fore
SplineSet
65.869140625 546 m 0
 65.869140625 632.8359375 152.717364876 673 228.250219228 673 c 0
 302.595543686 673 358.651367188 646.415039062 384.85546875 629.64453125 c 1
 352.647460938 583.028320312 l 1
 315.613211496 607.717773438 267.570083307 618 228.250219228 618 c 0
 169.260672433 618 125.869140625 591.974609375 125.869140625 546 c 0
 125.869140625 503.416992188 152.701969069 485.078125 233.588458626 471.084960938 c 1
 320.771833147 455.094726562 401.869140625 421.904296875 401.869140625 333 c 0
 401.869140625 285.374023438 383.612304688 254.0234375 357.799804688 233.946289062 c 0
 352.631835938 229.927734375 l 1
 357.869140625 226 l 0
 384.73046875 205.854492188 401.869140625 176.482421875 401.869140625 135 c 0
 401.869140625 51.6796875 332.939652423 4 227.19919882 4 c 0
 144.416972258 4 87.5595703125 36.77734375 65 52.9482421875 c 1
 100.735351562 98.0419921875 l 1
 131.154296875 75.619140625 178.685985332 59 227.19919882 59 c 0
 310.563386878 59 341.76042331 89.6806640625 341.76042331 135 c 0
 341.76042331 179.955078125 302.855219627 203.903320312 222.879135443 217.919921875 c 0
 135.791992188 232.9140625 65.869140625 260.943359375 65.869140625 348 c 0
 65.869140625 397.447265625 86.974609375 427.76171875 111.71484375 444.888671875 c 0
 117.520507812 448.908203125 l 1
 111.801757812 453.049804688 l 0
 83.8984375 473.255859375 65.869140625 501.557617188 65.869140625 546 c 0
153.424545599 427.71484375 m 1
 151.10285794 425.6640625 l 2
 134.923828125 411.23046875 125.869140625 383.83203125 125.869140625 353 c 0
 125.869140625 300.904296875 152.350944675 282.138671875 233.599748884 268.083984375 c 0
 261.73301977 263.126953125 289.709253428 256.19921875 314.346649793 245.455078125 c 0
 318.076540577 243.828125 l 1
 320.639429209 246.876953125 l 0
 334.38993742 263.229492188 341.76042331 290.235351562 341.76042331 318 c 0
 341.76042331 372.491210938 303.155951052 396.850585938 222.884267379 410.918945312 c 0
 199.913723693 414.892578125 177.039660395 419.850585938 156.414411272 426.719726562 c 0
 153.424545599 427.71484375 l 1
EndSplineSet
Layer: 2
Layer: 3
EndChar

StartChar: at
Encoding: 64 64 116
Width: 834
VWidth: 0
Flags: W
HStem: -190 58<211.078 628.468> -6 60<330.58 466.647> 238 51<337.684 518.294> 423 54<213.692 476.826> 618 56<330 541.261>
VStem: 75 64<-58.6069 345.587> 241.58 56.284<87.0484 200.622> 523 58<0 60.3838 110.802 233.456> 523 50.8571<5.76039 60.3838 110.802 233.456 283.172 369.634> 701 58<-57.9382 451.094>
LayerCount: 4
Back
Fore
SplineSet
330 618 m 1xff40
 330 674 l 1
 401 674 l 0
 621.842371324 674 759 578.205078125 759 306.749023438 c 0
 759 35.611328125 l 0
 759 -129.252929688 656.168945312 -190 541 -190 c 0
 301.74556213 -190 l 0
 179.791015625 -190 75 -129.444335938 75 34.6845703125 c 0
 75 252.315429688 l 0
 75 416.395507812 181.751953125 477 297 477 c 0
 411 477 l 0
 500.727662159 477 573.857142857 424.885742188 573.857142857 288.01953125 c 0xfec0
 581 0 l 1
 523 0 l 1
 523 60.3837890625 l 1
 514.664293639 51.369140625 l 0
 484.142682138 18.423828125 448.752889238 -6 389.082840237 -6 c 0
 306.897096893 -6 241.579881657 51.984375 241.579881657 140.4296875 c 0
 238.714285714 245.223632812 314.76953125 289 437.823529412 289 c 0
 458.751345851 289 488.293526786 287.990234375 512.775423451 284.05859375 c 0
 518.294117647 283.171875 l 1
 518.294117647 289 l 0
 518.294117647 382.01171875 474.051011029 423 411 423 c 0
 297 423 l 0
 213.22140067 423 139 374.4609375 139 252.463867188 c 0
 139 34.5 l 0
 139 -87.533203125 212.603920118 -132 301.74556213 -132 c 0
 541 -132 l 0
 625.137207031 -132 701 -87.49609375 701 35.2294921875 c 0
 701 306.8515625 l 0
 701 535.49609375 590.082047663 618 401 618 c 0
 330 618 l 1xff40
449.24852071 238 m 0
 390.039987056 238 297.863905325 230.420898438 297.863905325 143 c 0
 297.863905325 90.9208984375 336.590444712 54 396.846153846 54 c 0
 459.360160873 54 523 99.1875 523 194 c 0
 523 233.456054688 l 1xff40
 518.704211354 233.966796875 l 0
 493.257373336 236.993164062 469.781689164 238 449.24852071 238 c 0
EndSplineSet
Layer: 2
SplineSet
303 140 m 0
 303 85.5322265625 347.157226562 50 403 50 c 0
 467.693359375 50 533 100.08984375 533 204 c 0
 533 233.629882812 l 1
 528.383789062 233.985351562 l 0
 502.275390625 235.993164062 478.158203125 237 457 237 c 0
 355.65625 237 303 210.15234375 303 140 c 0
533 289 m 2
 533 383.185546875 487.48046875 423 411 423 c 0
 307 423 l 0
 215.0078125 423 139 374.8984375 139 254 c 0
 139 38 l 0
 139 -86.5986328125 213.140625 -132 305 -132 c 0
 551 -132 l 0
 642.747070312 -132 721 -86.7587890625 721 38 c 0
 721 306 l 0
 721 535.270507812 607.936523438 618 411 618 c 0
 340 618 l 1
 340 674 l 1
 411 674 l 0
 641.08984375 674 779 578.009765625 779 306 c 0
 779 38 l 0
 779 -128.609375 676.168945312 -190 551 -190 c 0
 305 -190 l 0
 179.791015625 -190 75 -128.55078125 75 38 c 0
 75 254 l 0
 75 416.849609375 181.751953125 477 307 477 c 0
 421 477 l 0
 514.622070312 477 591 424.45703125 591 289 c 0
 591 0 l 1
 533 0 l 1
 533 71.435546875 l 1
 523.956054688 59 l 0
 493.00390625 15.048828125 445.701171875 -6 393 -6 c 0
 307.483398438 -6 243 54.8154296875 243 146 c 0
 243 232.189453125 317.1484375 288.831054688 454.567382812 288.831054688 c 0
 477.196289062 288.831054688 501.49609375 287.274414062 527.379882812 284.0390625 c 0
 533 283.3359375 l 1
 533 289 l 2
EndSplineSet
Layer: 3
EndChar

StartChar: infinity
Encoding: 176 8734 117
Width: 730
VWidth: 0
Flags: W
HStem: 91 48<171.959 280.132 458.073 563.238> 371 48<171.959 280.132 458.073 563.238>
VStem: 80 50<183.804 326.196> 600 50<178.853 331.147>
LayerCount: 4
Back
SplineSet
234 364 m 4
 184 364 142 315 142 255 c 4
 142 195 184 146 234 146 c 4
 284 146 314 195 344 255 c 5
 314 315 284 364 234 364 c 4
234 424 m 4
 303 424 339 378 376 312 c 5
 415 378 457 424 526 424 c 4
 614 424 670 349 670 255 c 4
 670 161 614 86 526 86 c 4
 457 86 415 132 376 198 c 5
 339 132 303 86 234 86 c 4
 146 86 80 161 80 255 c 4
 80 349 146 424 234 424 c 4
526 364 m 4
 476 364 440 315 406 255 c 5
 440 195 476 146 526 146 c 4
 576 146 608 195 608 255 c 4
 608 315 576 364 526 364 c 4
EndSplineSet
Fore
SplineSet
341.10533463 257.236328125 m 0
 311.954566792 316.817382812 279.787905714 371 227.13304721 371 c 0
 174.77347103 371 130 317.120117188 130 255 c 0
 130 192.879882812 174.77347103 139 227.13304721 139 c 0
 279.786950107 139 311.954566792 193.18359375 341.10533463 252.763671875 c 0
 342.199503755 255 l 1
 341.10533463 257.236328125 l 0
80 255 m 0
 80 346.715820312 144.106156116 419 227.13304721 419 c 0
 291.848611856 419 325.651270789 375.484375 361.818099517 309.5546875 c 0
 365.974030982 301.978515625 l 1
 370.298149142 309.456054688 l 0
 408.311209093 375.196289062 448.016647666 419 512.86695279 419 c 0
 595.595694742 419 650 347.171875 650 255 c 0
 650 162.828125 595.595694742 91 512.86695279 91 c 0
 448.016647666 91 408.311209093 134.803710938 370.298149142 200.543945312 c 0
 365.974030982 208.021484375 l 1
 361.818099517 200.4453125 l 0
 325.651270789 134.515625 291.848611856 91 227.13304721 91 c 0
 144.106156116 91 80 163.284179688 80 255 c 0
600 255 m 0
 600 316.380859375 565.708154506 371 512.86695279 371 c 0
 460.408949168 371 422.36722103 317.227539062 389.227752817 257.46484375 c 0
 387.861235917 255 l 1
 389.227752817 252.53515625 l 0
 422.36722103 192.771484375 460.408949168 139 512.86695279 139 c 0
 565.708154506 139 600 193.620117188 600 255 c 0
EndSplineSet
Layer: 2
Layer: 3
EndChar

StartChar: lessequal
Encoding: 178 8804 118
Width: 500
Flags: W
HStem: 100 46<80 420>
LayerCount: 4
Back
Fore
SplineSet
80 100 m 1
 80 146 l 1
 420 146 l 1
 420 100 l 1
 80 100 l 1
420 403.859375 m 1
 121.265625 323 l 1
 420 242.140625 l 1
 420 196.578125 l 1
 80 293.80078125 l 1
 80 352.19921875 l 1
 420 449.421875 l 1
 420 403.859375 l 1
EndSplineSet
Layer: 2
Layer: 3
EndChar

StartChar: greaterequal
Encoding: 179 8805 119
Width: 500
Flags: W
HStem: 100 46<80 420>
LayerCount: 4
Back
Fore
SplineSet
80 146 m 1
 420 146 l 1
 420 100 l 1
 80 100 l 1
 80 146 l 1
80 242.140625 m 1
 378.734375 323 l 1
 80 403.859375 l 1
 80 449.421875 l 1
 420 352.19921875 l 1
 420 293.80078125 l 1
 80 196.578125 l 1
 80 242.140625 l 1
EndSplineSet
Layer: 2
Layer: 3
EndChar

StartChar: notequal
Encoding: 173 8800 120
Width: 500
Flags: W
HStem: 161 42<80 169.396 243.27 420> 299 42<80 256.73 330.604 420>
LayerCount: 4
Back
Fore
SplineSet
282.419211648 341 m 1
 346.661132812 439 l 1
 396.604492188 439 l 1
 330.604492188 341 l 1
 420 341 l 1
 420 299 l 1
 302.340820312 299 l 1
 243.269708807 203 l 1
 420 203 l 1
 420 161 l 1
 217.580788352 161 l 1
 153.338867188 63 l 1
 103.395507812 63 l 1
 169.395507812 161 l 1
 80 161 l 1
 80 203 l 1
 197.659179688 203 l 1
 256.730291193 299 l 1
 80 299 l 1
 80 341 l 1
 282.419211648 341 l 1
EndSplineSet
Layer: 2
Layer: 3
EndChar

StartChar: florin
Encoding: 196 402 121
Width: 360
VWidth: 0
Flags: W
HStem: -185 52<35 129.305> 424.176 51.8779<85 145 205 295> 605 52<220.687 315>
VStem: 145 60<-118.43 424.176 476.054 590.814>
LayerCount: 4
Back
Fore
SplineSet
205 424.17578125 m 1
 205 -59 l 2
 205 -146.217773438 146.567382812 -185 90 -185 c 0
 35 -185 l 1
 35 -133 l 1
 90 -133 l 0
 118.272460938 -133 145 -109.826171875 145 -59 c 0
 145 424.17578125 l 1
 85 424.17578125 l 1
 85 476.053710938 l 1
 145 476.053710938 l 1
 145 532 l 0
 145 618.189453125 203.413085938 657 260 657 c 0
 315 657 l 1
 315 605 l 1
 260 605 l 0
 231.76171875 605 205 581.877929688 205 532 c 0
 205 476.053710938 l 1
 295 476.053710938 l 1
 295 424.17578125 l 1
 205 424.17578125 l 1
EndSplineSet
Layer: 2
Layer: 3
EndChar

StartChar: fraction
Encoding: 218 8260 122
Width: 404
VWidth: 0
Flags: W
HStem: 0 21G<0 63.1269>
LayerCount: 4
Back
Fore
SplineSet
0 0 m 1
 344.602539062 657 l 1
 397.239257812 657 l 1
 52.63671875 -0 l 1
 0 0 l 1
EndSplineSet
Layer: 2
Layer: 3
EndChar

StartChar: mu
Encoding: 181 181 123
Width: 540
VWidth: 0
Flags: W
HStem: -6 56<189.16 320.665 448.324 495>
VStem: 75 60<-185 65.3008 107.784 467> 375 60<107.784 467>
LayerCount: 4
Back
SplineSet
145 204 m 5
 145 106 203 60 265 60 c 4
 327 60 385 106 385 204 c 6
 385 477 l 5
 455 477 l 29
 435 204 l 21
 435 60 361 -6 265 -6 c 4
 178 -6 105 61 105 204 c 5
 145 204 l 5
145 477 m 5
 145 -185 l 5
 75 -185 l 5
 75 477 l 5
 145 477 l 5
395 124 m 5
 396 124 l 5
 455 477 l 5
 455 124 l 6
 455 79 480 60 505 60 c 6
 515 60 l 5
 515 -6 l 5
 505 -6 l 6
 446 -6 395 35 395 124 c 5
EndSplineSet
Fore
SplineSet
75 -185 m 1
 75 467 l 1
 135 467 l 1
 135 199 l 0
 135 98.7138671875 193.035522461 50 255.208333333 50 c 0
 317.381144206 50 375 98.7138671875 375 199 c 0
 375 467 l 1
 435 467 l 1
 435 119 l 0
 435 71.8818359375 461.990234375 50 490 50 c 0
 495 50 l 1
 495 -6 l 1
 490 -6 l 0
 446.896484375 -6 409.041015625 16.646484375 392.733398438 64.609375 c 0
 389.26171875 74.8212890625 l 1
 383.712890625 65.572265625 l 0
 355.543212891 17.2138671875 309.43745931 -6 255.208333333 -6 c 0
 211.57421875 -6 171.926920573 13.2333984375 144.03515625 52.9521484375 c 0
 135 65.30078125 l 1
 135 -185 l 1
 75 -185 l 1
EndSplineSet
Layer: 2
Layer: 3
EndChar

StartChar: oslash
Encoding: 191 248 124
Width: 485
VWidth: 0
Flags: W
HStem: -6 50<172.776 306.266> 433 50<170.121 305.187>
VStem: 52.915 55<123.459 366.489> 367.996 54.9186<110.356 355.421>
AnchorPoint: "Bottom" 7 0 basechar 0
AnchorPoint: "Center" 7 0 basechar 0
AnchorPoint: "Top" 252 546 basechar 0
LayerCount: 4
Back
SplineSet
387 507 m 5
 455 507 l 5
 118 -30 l 5
 50 -30 l 5
 387 507 l 5
252 483 m 4
 348 483 447 417 447 273 c 6
 447 204 l 6
 447 61 349 -6 252 -6 c 4
 155 -6 57 61 57 204 c 6
 57 272 l 6
 57 416 155 483 252 483 c 4
252 421 m 4
 189 421 124 374 124 274 c 6
 124 204 l 6
 124 103 189 56 252 56 c 4
 315 56 380 103 380 203 c 6
 380 273 l 6
 380 374 315 421 252 421 c 4
EndSplineSet
Fore
SplineSet
308.007331848 409.287109375 m 0
 288.377555847 421.543945312 262.738166809 433 238.269920349 433 c 0
 175.123939514 433 107.915039062 381.590820312 107.915039062 279 c 0
 107.915039062 209 l 0
 107.915039062 173.920898438 119.209960938 142.184570312 131.231430054 119.60546875 c 0
 135.16620636 112.099609375 l 1
 312.203926086 406.666992188 l 1
 308.007331848 409.287109375 l 0
338.828651428 450.155273438 m 1
 372.702148438 507 l 1
 424.830078125 507 l 1
 370.708007812 419.845703125 l 1
 373.125976562 416.982421875 l 0
 403.434570312 381.0859375 422.915039062 336.560546875 422.915039062 273.447265625 c 0
 422.915039062 203.075195312 l 0
 422.915039062 60.0966796875 329.162971497 -6 238.269920349 -6 c 0
 205.743499756 -6 172.915847778 5.6337890625 142.707313538 24.298828125 c 0
 138.648666382 26.806640625 l 1
 104.127929688 -30 l 1
 52 -30 l 1
 106.150390625 57.2001953125 l 1
 103.658203125 60.0712890625 l 0
 73.3896484375 94.9248046875 52.9150390625 140.48828125 52.9150390625 203.552734375 c 0
 52.9150390625 272.904296875 l 0
 52.9150390625 416.921875 147.388130188 483 238.269920349 483 c 0
 270.883613586 483 303.657775879 472.337890625 334.75592804 452.723632812 c 0
 338.828651428 450.155273438 l 1
165.325004578 70.396484375 m 1
 169.436203003 67.7490234375 l 2
 190.085098267 54.4462890625 214.81703949 44 238.269920349 44 c 0
 301.415901184 44 367.996482849 95.4091796875 367.996482849 198 c 0
 367.996482849 268 l 0
 367.996482849 303.084960938 357.119308472 333.817382812 346.348175049 356.236328125 c 0
 342.526008606 364.192382812 l 1
 165.325004578 70.396484375 l 1
EndSplineSet
Layer: 2
Layer: 3
EndChar

StartChar: integral
Encoding: 186 8747 125
Width: 340
VWidth: 0
Flags: W
HStem: -185 47<35 127.753> 600 47<212.24 305>
VStem: 145 50<-121.544 583.903>
LayerCount: 4
Back
Fore
SplineSet
195 522 m 0
 195 -59 l 2
 195 -146.751953125 146.174804688 -185 90 -185 c 0
 35 -185 l 1
 35 -138 l 1
 90 -138 l 0
 118.822265625 -138 145 -109.451171875 145 -59 c 0
 145 522 l 0
 145 608.724609375 193.806640625 647 250 647 c 0
 305 647 l 1
 305 600 l 1
 250 600 l 0
 221.208007812 600 195 571.500976562 195 522 c 0
EndSplineSet
Layer: 2
Layer: 3
EndChar

StartChar: trademark
Encoding: 170 8482 126
Width: 648
VWidth: 0
Flags: W
HStem: 622 35<60 149 185.799 271.812>
VStem: 149 36.7987<334 622> 320.134 34.7919<334 589.061> 552 36<334 590.181>
LayerCount: 4
Back
Fore
SplineSet
60 622 m 1
 60 657 l 1
 271.812080537 657 l 1
 271.812080537 622 l 1
 185.798657718 622 l 1
 185.798657718 334 l 1
 149 334 l 1
 149 622 l 1
 60 622 l 1
320.134228188 334 m 1
 320.134228188 657 l 1
 352.933829698 657 l 1
 451.548762584 457.043945312 l 1
 554.047851562 657 l 1
 588 657 l 1
 588 334 l 1
 552 334 l 1
 552 590.180664062 l 1
 465.013842282 416 l 1
 439.085046141 416 l 1
 354.926174497 589.060546875 l 1
 354.926174497 334 l 1
 320.134228188 334 l 1
EndSplineSet
Layer: 2
Layer: 3
EndChar

StartChar: guillemotright
Encoding: 200 187 128
Width: 525
Flags: W
LayerCount: 4
Back
Fore
SplineSet
300.48053547 432 m 1
 439.185546875 271.125976562 l 1
 439.185546875 228.874023438 l 1
 300.48053547 63 l 1
 246.129597992 63 l 1
 394.749023438 250 l 1
 246.129597992 432 l 1
 300.48053547 432 l 1
138.911132812 432 m 1
 273.055948883 271.125976562 l 1
 273.055948883 228.874023438 l 1
 138.911132812 63 l 1
 80 63 l 1
 232.059169636 250 l 1
 80 432 l 1
 138.911132812 432 l 1
EndSplineSet
Layer: 2
Layer: 3
EndChar

StartChar: guillemotleft
Encoding: 199 171 129
Width: 525
Flags: W
LayerCount: 4
Back
Fore
SplineSet
218.705011405 432 m 1
 273.055948883 432 l 1
 124.436523438 250 l 1
 273.055948883 63 l 1
 218.705011405 63 l 1
 80 228.874023438 l 1
 80 271.125976562 l 1
 218.705011405 432 l 1
380.274414062 432 m 1
 439.185546875 432 l 1
 287.126377239 250 l 1
 439.185546875 63 l 1
 380.274414062 63 l 1
 246.129597992 228.874023438 l 1
 246.129597992 271.125976562 l 1
 380.274414062 432 l 1
EndSplineSet
Layer: 2
Layer: 3
EndChar

StartChar: underscore
Encoding: 95 95 130
Width: 420
VWidth: 0
Flags: W
HStem: -56 56<35 385>
LayerCount: 4
Back
Fore
SplineSet
35 -56 m 1
 35 0 l 1
 385 0 l 1
 385 -56 l 1
 35 -56 l 1
EndSplineSet
Layer: 2
Layer: 3
EndChar

StartChar: dieresis
Encoding: 172 168 131
Width: 364
VWidth: 0
Flags: W
HStem: 550 84<54.1862 129.814 234.186 309.814>
VStem: 50 84<554.186 629.814> 230 84<554.186 629.814>
AnchorPoint: "Top" 187 477 mark 0
LayerCount: 4
Back
Fore
SplineSet
230 592 m 0
 230 617.393554688 246.606445312 634 272 634 c 0
 297.393554688 634 314 617.393554688 314 592 c 0
 314 566.606445312 297.393554688 550 272 550 c 0
 246.606445312 550 230 566.606445312 230 592 c 0
50 592 m 0
 50 617.393554688 66.6064453125 634 92 634 c 0
 117.393554688 634 134 617.393554688 134 592 c 0
 134 566.606445312 117.393554688 550 92 550 c 0
 66.6064453125 550 50 566.606445312 50 592 c 0
EndSplineSet
Layer: 2
Layer: 3
EndChar

StartChar: circumflex
Encoding: 246 710 143
Width: 388
Flags: W
HStem: 546 111
VStem: 50 272.436
AnchorPoint: "Top" 199 477 mark 0
LayerCount: 4
Back
Fore
SplineSet
257.157226562 546 m 1
 186.217773438 610.770507812 l 1
 115.278320312 546 l 1
 50 546 l 1
 170.173828125 657 l 1
 202.26171875 657 l 1
 322.435546875 546 l 1
 257.157226562 546 l 1
EndSplineSet
Layer: 2
Layer: 3
EndChar

StartChar: degree
Encoding: 161 176 151
Width: 314
VWidth: 0
Flags: W
HStem: 449 44<108.056 206.108> 629 44<110.72 203.466>
VStem: 50 44<507.348 612.069> 220 44<506.891 612.596>
LayerCount: 4
Back
Fore
SplineSet
50 556 m 0
 50 626.421875 92.59765625 673 157 673 c 0
 221.40234375 673 264 626.421875 264 556 c 0
 264 491.59765625 221.40234375 449 157 449 c 0
 92.59765625 449 50 491.59765625 50 556 c 0
220 556 m 0
 220 599.54296875 194.583007812 629 157 629 c 0
 120.438476562 629 94 599.637695312 94 556 c 0
 94 518.34375 120.435546875 493 157 493 c 0
 194.578125 493 220 518.416992188 220 556 c 0
EndSplineSet
Layer: 2
Layer: 3
EndChar

StartChar: dotlessi
Encoding: 245 305 156
Width: 204
VWidth: 0
Flags: W
VStem: 72 60<5 472>
AnchorPoint: "Bottom" 107 0 basechar 0
AnchorPoint: "Top" 107 477 basechar 0
LayerCount: 4
Back
Fore
SplineSet
72 5 m 1
 72 472 l 1
 132 472 l 1
 132 5 l 1
 72 5 l 1
EndSplineSet
Layer: 2
Layer: 3
EndChar

StartChar: acute
Encoding: 171 180 169
Width: 326
Flags: W
HStem: 456 201
VStem: 50 215.903
LayerCount: 4
Back
Fore
SplineSet
50 456 m 1
 196.701171875 657 l 1
 265.903320312 657 l 1
 108.723632812 456 l 1
 50 456 l 1
EndSplineSet
Layer: 2
Layer: 3
EndChar

StartChar: asciitilde
Encoding: 126 126 180
Width: 500
VWidth: 0
Flags: W
HStem: 194 55<273.459 380.105> 259 56<113.056 228.322>
LayerCount: 4
Back
SplineSet
64.5 209 m 5
 23.5 261 l 5
 115.5 335 206.5 325 279.5 280 c 4
 346.5 238 385.5 237 455.5 293 c 5
 496.5 241 l 5
 405.5 169 325.5 169 240.5 222 c 4
 184.5 257 131.5 263 64.5 209 c 5
EndSplineSet
Fore
SplineSet
171.517578125 259 m 0
 147.010742188 259 120.34765625 246.391601562 94.37890625 221.819335938 c 1
 66 265.22265625 l 1
 105.0234375 301.125976562 139.912109375 315 173.517578125 315 c 0
 206.627089122 315 235.180926884 302.53125 260.492990305 281.052734375 c 1
 284.770579571 260.884765625 304.223938401 249 327.517578125 249 c 0
 350.609375 249 374.990234375 263.491210938 402.673828125 290.155273438 c 1
 431.067382812 246.728515625 l 1
 391.842773438 209.591796875 356.973632812 194 323.517578125 194 c 0
 294.365689065 194 265.630094917 207.390625 236.508381482 230.978515625 c 1
 215.745653266 248.305664062 194.396964166 259 171.517578125 259 c 0
EndSplineSet
Layer: 2
SplineSet
90.5263671875 230.58984375 m 1
 83.54296875 237.747070312 l 1
 87.1220703125 241.239257812 l 0
 154.06640625 308.140625 216.134765625 299.915039062 269.879882812 257.953125 c 0
 330.17578125 213.166015625 375.693359375 212.32421875 439.696289062 273.08203125 c 0
 443.278320312 276.571289062 l 1
 450.255859375 269.408203125 l 1
 446.673828125 265.918945312 l 0
 379.9296875 202.479492188 327.29296875 202.791992188 263.818359375 250 c 0
 213.131835938 289.622070312 157.705078125 297.717773438 94.10546875 234.081054688 c 0
 90.5263671875 230.58984375 l 1
EndSplineSet
Layer: 3
EndChar

StartChar: tilde
Encoding: 247 732 183
Width: 382
Flags: W
HStem: 550 40<208.149 281.206> 609 40<100.718 172.94>
VStem: 50 40.0254<556 598.343> 291.767 40.0342<600.854 642>
AnchorPoint: "Top" 196 477 mark 0
LayerCount: 4
Back
SplineSet
74.55859375 556.018554688 m 21
 74.55859375 636.01953125 159.37109375 657.696289062 196 604 c 4
 232.62890625 550.303710938 317.44140625 571.98046875 317.44140625 651.981445312 c 1028
EndSplineSet
Fore
SplineSet
174.099609375 587.715820312 m 1
 165.361328125 601.915039062 151.611328125 609 137.899414062 609 c 0
 108.616210938 609 91.759765625 586.245117188 90.025390625 556 c 1
 50 556 l 1
 52.22265625 607.374023438 85.064453125 649 135.899414062 649 c 0
 162.234375 649 189.75 635.788085938 207.7890625 610.154296875 c 0
 217.721679688 595.806640625 231.529296875 590 245.899414062 590 c 0
 269.486328125 590 289.99609375 609.5703125 291.766601562 642 c 1
 331.80078125 642 l 1
 329.405273438 583.545898438 286.903320312 550 243.899414062 550 c 0
 217.409179688 550 192.051757812 561.259765625 174.099609375 587.715820312 c 1
EndSplineSet
Layer: 2
Layer: 3
EndChar

StartChar: guilsinglleft
Encoding: 220 8249 188
Width: 375
Flags: W
VStem: 80 209.186
LayerCount: 4
Back
Fore
SplineSet
220.274414062 432 m 1
 289.185546875 432 l 1
 134.436523438 250 l 1
 289.185546875 63 l 1
 220.274414062 63 l 1
 80 228.874023438 l 1
 80 271.125976562 l 1
 220.274414062 432 l 1
EndSplineSet
Layer: 2
Layer: 3
EndChar

StartChar: guilsinglright
Encoding: 221 8250 189
Width: 375
Flags: W
VStem: 80 209.186
LayerCount: 4
Back
Fore
SplineSet
148.911132812 432 m 1
 289.185546875 271.125976562 l 1
 289.185546875 228.874023438 l 1
 148.911132812 63 l 1
 80 63 l 1
 234.749023438 250 l 1
 80 432 l 1
 148.911132812 432 l 1
EndSplineSet
Layer: 2
Layer: 3
EndChar

StartChar: cedilla
Encoding: 252 184 190
Width: 332
Flags: W
HStem: -191 45<64.5472 227.259> -60 60<158.928 184.959>
VStem: 231.877 48<-138.809 -69.0352>
AnchorPoint: "Bottom" 190 0 mark 0
LayerCount: 4
Back
SplineSet
167 0 m 5xd0
 221 0 l 5
 181 -79 l 5xd0
 127 -79 l 5xb0
 167 0 l 5xd0
77 -140 m 5
 98 -147 118 -151 157 -151 c 4
 202 -151 234 -144 234 -116 c 4
 234 -86 201 -79 167 -79 c 5xd0
 167 -45 l 5xb0
 244 -45 292 -62 292 -116 c 4
 292 -179 244 -206 157 -206 c 4
 105 -206 77 -201 50 -191 c 5
 77 -140 l 5
EndSplineSet
Fore
SplineSet
158.927734375 0 m 1
 201.688476562 0 l 1
 183.021484375 -46.3525390625 l 1
 190.455078125 -46.982421875 l 0
 249.299804688 -51.96875 279.876953125 -67.076171875 279.876953125 -109 c 0
 279.876953125 -167.84375 236.467773438 -191 149.876953125 -191 c 0
 101.59375 -191 74.2939453125 -186.486328125 50 -178.232421875 c 1
 72.3291015625 -136.0546875 l 1
 93.8671875 -142.78515625 112.95703125 -146 149.876953125 -146 c 0
 193.264648438 -146 231.876953125 -142.842773438 231.876953125 -109 c 0
 231.876953125 -64.3310546875 192.663085938 -60 159.876953125 -60 c 0
 128.071289062 -60 l 1
 158.927734375 0 l 1
EndSplineSet
Layer: 2
Layer: 3
EndChar

StartChar: OE
Encoding: 206 338 193
Width: 823
VWidth: 0
Flags: W
HStem: -6 60<197.844 384.472 514 758> 313 60<514 717> 605.962 61.0381<512 757> 613 60<197.845 384.468>
VStem: 65 64<126.357 541.122> 450 64<60.9736 66.3174 116.687 313 373 550.65 600.683 605.962>
LayerCount: 4
Back
SplineSet
460 667 m 5xf8
 777 667 l 5
 777 597 l 5
 532 597 l 5
 532 378 l 5
 737 378 l 5
 737 308 l 5
 534 308 l 5
 532 70 l 5
 778 70 l 5
 777 0 l 5
 460 0 l 5
 460 667 l 5xf8
300 603 m 4
 210 603 139 563 139 446 c 6
 139 222 l 6
 139 104 210 64 300 64 c 4
 390 64 461 104 461 222 c 6
 461 446 l 6xf4
 461 563 390 603 300 603 c 4
300 673 m 4
 427 673 505 611 505 446 c 6
 505 222 l 6
 505 56 427 -6 300 -6 c 4
 173 -6 65 56 65 222 c 6
 65 446 l 6
 65 611 173 673 300 673 c 4
EndSplineSet
Fore
SplineSet
450 471.467773438 m 0xdc
 450 576.081054688 372.626563717 613 290.140186916 613 c 0
 201.252226928 613 129 570.250976562 129 448.048828125 c 0
 129 219.96875 l 0
 129 96.7724609375 201.236142548 54 290.140186916 54 c 0
 372.647378797 54 450 90.931640625 450 196.549804688 c 0
 450 471.467773438 l 0xdc
450 600.682617188 m 1
 450 667 l 1
 757 667 l 1
 757 605.961914062 l 1
 512 605.961914062 l 1xec
 512 373 l 1
 717 373 l 1
 717 313 l 1
 514 313 l 1
 514 60.9736328125 l 1
 758 60.9736328125 l 1
 758 0 l 1
 450 0 l 1
 450 66.3173828125 l 1
 441.364580291 55.1123046875 l 0
 408.68017426 12.703125 357.158120984 -6 290.140186916 -6 c 0
 168.831793954 -6 65 55 65 220.333007812 c 0
 65 447.681640625 l 0
 65 611.987304688 168.821386415 673 290.140186916 673 c 0
 357.158120984 673 408.6811204 654.296875 441.364580291 611.887695312 c 0
 450 600.682617188 l 1
EndSplineSet
Layer: 2
Layer: 3
EndChar

StartChar: breve
Encoding: 249 728 194
Width: 368
VWidth: 0
Flags: W
HStem: 546 42<120.927 247.099> 653 20G<50 92.3901 276.418 317.819>
VStem: 50 41.0332<618.045 673> 277.782 40.0371<620.42 673>
AnchorPoint: "Top" 189 477 mark 0
LayerCount: 4
Back
Fore
SplineSet
183.909179688 546 m 0
 110.22265625 546 52.810546875 596.600585938 50 673 c 1
 91.033203125 673 l 1
 93.7470703125 619.606445312 129.278320312 588 183.909179688 588 c 0
 239.203125 588 275.053710938 620.841796875 277.782226562 673 c 1
 317.819335938 673 l 1
 314.96484375 595.403320312 256.947265625 546 183.909179688 546 c 0
EndSplineSet
Layer: 2
Layer: 3
EndChar

StartChar: macron
Encoding: 248 175 195
Width: 360
Flags: W
HStem: 556 46<50 310>
VStem: 50 260<556 602>
AnchorPoint: "Top" 186 477 mark 0
LayerCount: 4
Back
Fore
SplineSet
50 556 m 1
 50 602 l 1
 310 602 l 1
 310 556 l 1
 50 556 l 1
EndSplineSet
Layer: 2
Layer: 3
EndChar

StartChar: dotaccent
Encoding: 250 729 196
Width: 184
VWidth: 0
Flags: W
HStem: 550 84<54.3683 129.814>
VStem: 50 84<554.646 629.354>
AnchorPoint: "Top" 97.5 477 mark 0
LayerCount: 4
Back
Fore
SplineSet
50 592 m 0
 50 617.297851562 67.5859375 634 92 634 c 0
 117.393554688 634 134 617.393554688 134 592 c 0
 134 566.606445312 117.393554688 550 92 550 c 0
 67.5849609375 550 50 566.702148438 50 592 c 0
EndSplineSet
Layer: 2
Layer: 3
EndChar

StartChar: ring
Encoding: 251 730 197
Width: 270
VWidth: 0
Flags: W
HStem: 519 31<99.2154 171.24> 663 30<101.742 168.661>
VStem: 53 33<561.966 647.725> 185 32<563.221 647.281>
AnchorPoint: "Top" 140 477 mark 0
LayerCount: 4
Back
Fore
SplineSet
53 601 m 0
 53 657.4765625 86.53515625 693 135 693 c 0
 184.455078125 693 217 657.537109375 217 601 c 0
 217 551.598632812 184.401367188 519 135 519 c 0
 86.5869140625 519 53 551.666992188 53 601 c 0
185 601 m 0
 185 636.03515625 164.88671875 663 135 663 c 0
 105.009765625 663 86 635.850585938 86 601 c 0
 86 571.66796875 105.154296875 550 135 550 c 0
 164.740234375 550 185 571.512695312 185 601 c 0
EndSplineSet
Layer: 2
Layer: 3
EndChar

StartChar: caron
Encoding: 255 711 198
Width: 388
Flags: W
HStem: 546 111
VStem: 50 272.436
AnchorPoint: "Top" 199 477 mark 0
LayerCount: 4
Back
Fore
SplineSet
257.157226562 546 m 1
 186.217773438 610.770507812 l 1
 115.278320312 546 l 1
 50 546 l 1
 170.173828125 657 l 1
 202.26171875 657 l 1
 322.435546875 546 l 1
 257.157226562 546 l 1
EndSplineSet
Layer: 2
Layer: 3
EndChar

StartChar: hungarumlaut
Encoding: 253 733 199
Width: 393
Flags: W
HStem: 546 111
VStem: 50 284.33
AnchorPoint: "Top" 161 477 mark 0
LayerCount: 4
Back
Fore
SplineSet
269.801757812 657 m 1
 334.330078125 657 l 1
 255.4375 546 l 1
 201 546 l 1
 269.801757812 657 l 1
118.801757812 657 m 1
 183.330078125 657 l 1
 104.4375 546 l 1
 50 546 l 1
 118.801757812 657 l 1
EndSplineSet
Layer: 2
Layer: 3
EndChar

StartChar: Ldot
Encoding: 309 319 253
Width: 500
VWidth: 0
Flags: W
HStem: 0 60.9131<149 445> 288 92<227.73 303.044> 647 20G<85 149>
VStem: 85 64<60.9131 667> 221.86 87.0538<293.157 374.843>
LayerCount: 4
Back
Fore
SplineSet
85 0 m 1
 85 667 l 1
 149 667 l 1
 149 60.9130859375 l 1
 445 60.9130859375 l 1
 445 0 l 1
 85 0 l 1
221.860215054 334 m 0
 221.860215054 361.3671875 239.491263441 380 265.387096774 380 c 0
 291.282930108 380 308.913978495 361.3671875 308.913978495 334 c 0
 308.913978495 306.6328125 291.282930108 288 265.387096774 288 c 0
 239.491263441 288 221.860215054 306.6328125 221.860215054 334 c 0
EndSplineSet
Layer: 2
Layer: 3
EndChar

StartChar: ldot
Encoding: 310 320 254
Width: 354
VWidth: 0
Flags: W
HStem: 288 92<218.203 297.797> 647 20G<75 135>
VStem: 75 60<10 667> 212 92<294.203 373.797>
LayerCount: 4
Back
Fore
SplineSet
75 10 m 1
 75 667 l 1
 135 667 l 1
 135 10 l 1
 75 10 l 1
212 334 m 0
 212 361.3671875 230.6328125 380 258 380 c 0
 285.3671875 380 304 361.3671875 304 334 c 0
 304 306.6328125 285.3671875 288 258 288 c 0
 230.6328125 288 212 306.6328125 212 334 c 0
EndSplineSet
Layer: 2
Layer: 3
EndChar

StartChar: cent
Encoding: 162 162 354
Width: 420
VWidth: 0
Flags: W
VStem: 50 58<111.145 365.525> 210 40<-86 -5.58594 56.1133 415.454 472.586 553>
LayerCount: 4
Back
SplineSet
220 563 m 5
 270 563 l 5
 270 -86 l 5
 220 -86 l 5
 220 563 l 5
245 483 m 4
 321 483 368 458 393 437 c 4
 355 383 l 5
 334 400 309 417 245 417 c 4
 173 417 118 371 118 273 c 6
 118 204 l 6
 118 107 170 60 245 60 c 4
 308 60 333 76 359 99 c 5
 400 47 l 5
 368 17 320 -6 245 -6 c 4
 148 -6 50 60 50 204 c 6
 50 272 l 6
 50 416 148 483 245 483 c 4
EndSplineSet
Fore
SplineSet
210 472.5859375 m 1
 210 553 l 1
 250 553 l 1
 250 472.393554688 l 1
 254.591796875 472.016601562 l 0
 311.591796875 467.344726562 349.4765625 448.415039062 371.2578125 431.107421875 c 1
 338.995117188 385.259765625 l 1
 320.059570312 400.076171875 298.56640625 411.23046875 255.43359375 414.981445312 c 0
 250 415.454101562 l 1
 250 50.5361328125 l 1
 255.442382812 51.01953125 l 0
 298.741210938 54.8681640625 322.017578125 68.2353515625 343.36328125 86.732421875 c 1
 378.233398438 42.5068359375 l 1
 351.013671875 17.703125 312.254882812 -1.234375 254.672851562 -5.0107421875 c 0
 250 -5.3173828125 l 1
 250 -86 l 1
 210 -86 l 1
 210 -5.5859375 l 1
 206.049517463 -5.0390625 l 0
 128.679955576 5.68359375 50 69.490234375 50 199 c 0
 50 267 l 0
 50 396.53125 128.712545956 461.3203125 206.049517463 472.0390625 c 0
 210 472.5859375 l 1
210 420.918945312 m 1
 204.736213235 419.9296875 l 2
 149.220703125 409.497070312 108 360.880859375 108 273 c 0
 108 204 l 0
 108 116.206054688 147.393880208 67.4921875 204.760876225 57.0654296875 c 0
 210 56.11328125 l 1
 210 420.918945312 l 1
EndSplineSet
Layer: 2
Layer: 3
EndChar

StartChar: yen
Encoding: 180 165 355
Width: 531
VWidth: 0
Flags: W
HStem: 0 21G<224.865 289.15> 248 46<91.8652 229.607 294.168 431.865> 373 46<81.8652 162.86 360.887 441.865>
VStem: 224.865 64<0 248>
LayerCount: 4
Back
Fore
SplineSet
162.860270271 419 m 1
 40 662 l 1
 107.7578125 662 l 1
 261.846850234 339.791015625 l 1
 418.946289062 662 l 1
 484.700195312 662 l 1
 360.886501617 419 l 1
 441.865234375 419 l 1
 441.865234375 373 l 1
 332.374113426 373 l 1
 294.168276733 294 l 1
 431.865234375 294 l 1
 431.865234375 248 l 1
 292.397367209 248 l 1
 288.865234375 0 l 1
 224.865234375 0 l 1
 231.378268084 248 l 1
 91.865234375 248 l 1
 91.865234375 294 l 1
 229.60735856 294 l 1
 191.401521867 373 l 1
 81.865234375 373 l 1
 81.865234375 419 l 1
 162.860270271 419 l 1
EndSplineSet
Layer: 2
Layer: 3
EndChar

StartChar: brokenbar
Encoding: 416 166 356
Width: 222
VWidth: 0
Flags: W
HStem: 0 21G<85 137>
VStem: 85 52<0 254 409 662>
LayerCount: 4
Back
Fore
SplineSet
85 0 m 1
 85 254 l 1
 137 254 l 1
 137 0 l 1
 85 0 l 1
85 409 m 1
 85 662 l 1
 137 662 l 1
 137 409 l 1
 85 409 l 1
EndSplineSet
Layer: 2
Layer: 3
EndChar

StartChar: onequarter
Encoding: 417 188 357
Width: 804
VWidth: 0
Flags: W
HStem: 0 21G<201.637 264.81 662.257 707.257> 101 45<551.271 662.257 707.257 741.257>
VStem: 186.257 48<270 606.184> 662.257 45<0 101 146 244>
LayerCount: 4
Back
Fore
SplineSet
499.252209931 132.939453125 m 1
 613.697074597 397 l 1
 660.591597577 397 l 1
 551.271129836 146 l 1
 662.256835938 146 l 1
 662.256835938 244 l 1
 707.256835938 244 l 1
 707.256835938 146 l 1
 741.256835938 146 l 1
 741.256835938 101 l 1
 707.256835938 101 l 1
 707.256835938 0 l 1
 662.256835938 0 l 1
 662.256835938 101 l 1
 499.252209931 101 l 1
 499.252209931 132.939453125 l 1
123 626.78125 m 1
 193.4375 662 l 1
 234.256835938 662 l 1
 234.256835938 270 l 1
 186.256835938 270 l 1
 186.256835938 606.18359375 l 1
 144.434570312 584.736328125 l 1
 123 626.78125 l 1
201.63671875 0 m 1
 549.015861397 657 l 1
 600.392325289 657 l 1
 254.2734375 -0 l 1
 201.63671875 0 l 1
EndSplineSet
Layer: 2
Layer: 3
EndChar

StartChar: onehalf
Encoding: 418 189 358
Width: 804
VWidth: 0
Flags: W
HStem: 0 46.5811<576.978 742.257> 355 46<566.963 670.606>
VStem: 186.257 48<270 606.184> 686.257 48<234.975 339.805>
LayerCount: 4
Back
Fore
SplineSet
551.368164062 317.9375 m 1
 514.326171875 345.924804688 l 1
 554.102539062 395.028320312 602.680664062 401 624.256835938 401 c 0
 691.369140625 401 734.256835938 348.83203125 734.256835938 290.624023438 c 0
 734.256835938 271.411132812 729.80859375 243.470703125 696.323242188 200.587890625 c 0
 576.977539062 46.5810546875 l 1
 742.256835938 46.5810546875 l 1
 742.256835938 0 l 1
 508.256835938 0 l 1
 508.256835938 33.7392578125 l 1
 661.208984375 230.1796875 l 1
 680.651367188 256.126953125 686.256835938 274.571289062 686.256835938 291.099609375 c 0
 686.256835938 324.966796875 662.224609375 355 624.256835938 355 c 0
 604.750976562 355 577.213867188 349.134765625 551.368164062 317.9375 c 1
123 626.78125 m 1
 193.4375 662 l 1
 234.256835938 662 l 1
 234.256835938 270 l 1
 186.256835938 270 l 1
 186.256835938 606.18359375 l 1
 144.434570312 584.736328125 l 1
 123 626.78125 l 1
201.63671875 0 m 1
 546.240234375 657 l 1
 598.875976562 657 l 1
 254.2734375 -0 l 1
 201.63671875 0 l 1
EndSplineSet
Layer: 2
Layer: 3
EndChar

StartChar: threequarters
Encoding: 419 190 359
Width: 804
VWidth: 0
Flags: W
HStem: 0 21G<201.329 264.502 661.948 706.948> 101 45<550.963 661.948 706.948 740.948> 266 46<112.453 221.668> 448 46<128.948 219.246> 619 46<113.655 218.859>
VStem: 238.948 47.2109<329.078 430.69 513.429 597.917> 661.948 45<0 101 146 244>
LayerCount: 4
Back
Fore
SplineSet
98.060546875 581.9375 m 1
 61.0185546875 609.924804688 l 1
 100.794921875 659.028320312 149.373046875 665 170.948242188 665 c 0
 238.102539062 665 281.278778105 613.420898438 281.278778105 556 c 0
 281.278778105 522.674804688 264.364265784 491.928710938 244.802734375 475.885742188 c 0
 239.877929688 471.899414062 l 1
 244.900390625 468.037109375 l 0
 269.269426697 449.001953125 286.159155849 416.426757812 286.159155849 380 c 0
 286.159155849 319.540039062 242.104492188 266 170.948242188 266 c 0
 148.071289062 266 98.7744140625 272.130859375 57 323.150390625 c 1
 94.080078125 351.990234375 l 1
 123.038085938 316.54296875 151.560546875 312 170.948242188 312 c 0
 212.825195312 312 238.948242188 343.549804688 238.948242188 380 c 0
 238.948242188 408.950195312 218.376953125 448 170.948242188 448 c 0
 128.948242188 448 l 1
 128.948242188 494 l 1
 170.948242188 494 l 0
 207.703125 494 233.948242188 522.326171875 233.948242188 556 c 0
 233.948242188 588.49609375 208.908203125 619 170.948242188 619 c 0
 151.442382812 619 123.905273438 613.134765625 98.060546875 581.9375 c 1
498.943625516 132.939453125 m 1
 613.389436827 397 l 1
 660.283003922 397 l 1
 550.962542442 146 l 1
 661.948242188 146 l 1
 661.948242188 244 l 1
 706.948242188 244 l 1
 706.948242188 146 l 1
 740.948242188 146 l 1
 740.948242188 101 l 1
 706.948242188 101 l 1
 706.948242188 0 l 1
 661.948242188 0 l 1
 661.948242188 101 l 1
 498.943625516 101 l 1
 498.943625516 132.939453125 l 1
201.329101562 0 m 1
 548.707274132 657 l 1
 600.08468828 657 l 1
 253.965820312 -0 l 1
 201.329101562 0 l 1
EndSplineSet
Layer: 2
Layer: 3
EndChar

StartChar: Eth
Encoding: 420 208 360
Width: 601
VWidth: 0
Flags: W
HStem: 0 65<187 402.836> 318 50<55 127 187 313.836> 602 65<187 402.841>
VStem: 127 60<65 318 368 602> 472 64<133.103 534.21>
LayerCount: 4
Back
SplineSet
55 373 m 5
 328 373 l 5
 328 313 l 5
 55 313 l 5
 55 373 l 5
201 597 m 5
 201 70 l 5
 321 70 l 22
 411 70 482 110 482 228 c 6
 482 440 l 6
 482 557 411 597 321 597 c 14
 201 597 l 5
127 667 m 5
 321 667 l 6
 448 667 556 605 556 440 c 6
 556 228 l 6
 556 62 448 0 321 0 c 14
 127 0 l 5
 127 667 l 5
EndSplineSet
Fore
SplineSet
127 368 m 1
 127 667 l 1
 311.90747331 667 l 0
 432.671923654 667 536 605.967773438 536 441.62109375 c 0
 536 226.39453125 l 0
 536 61.0126953125 432.659680132 0 311.90747331 0 c 0
 127 0 l 1
 127 318 l 1
 55 318 l 1
 55 368 l 1
 127 368 l 1
313.836298932 318 m 1
 187 318 l 1
 187 65 l 1
 311.90747331 65 l 0
 400.404592276 65 472 107.006835938 472 228 c 0
 472 440 l 0
 472 560.015625 400.388581517 602 311.90747331 602 c 0
 187 602 l 1
 187 368 l 1
 313.836298932 368 l 1
 313.836298932 318 l 1
EndSplineSet
Layer: 2
Layer: 3
EndChar

StartChar: multiply
Encoding: 421 215 361
Width: 510
Flags: W
HStem: 105.117 292.767
VStem: 107 291.857
LayerCount: 4
Back
Fore
SplineSet
136.8828125 105.1171875 m 1
 107 135 l 1
 222 250 l 1
 106 366 l 1
 137.883789062 397.883789062 l 1
 253.9296875 278.836914062 l 1
 368.974609375 396.8828125 l 1
 398.857421875 367 l 1
 283.857421875 252 l 1
 399.857421875 136 l 1
 367.974609375 104.116210938 l 1
 251.928710938 223.163085938 l 1
 136.8828125 105.1171875 l 1
EndSplineSet
Layer: 2
Layer: 3
EndChar

StartChar: Thorn
Encoding: 422 222 362
Width: 522
VWidth: 0
Flags: W
HStem: 0 21G<85 148> 130.964 62.0361<148 347.342> 474 62.0361<148 347.767> 647 20G<85 148>
VStem: 85 63<0 130.964 193 474 536.036 667> 404 63<251.972 415.401>
LayerCount: 4
Back
Fore
SplineSet
85 0 m 1
 85 667 l 1
 148 667 l 1
 148 536.036132812 l 1
 275.588516746 536.036132812 l 0
 375.784179688 536.036132812 467 472.182617188 467 334.0078125 c 0
 467 194.8203125 374.77734375 130.963867188 275.588516746 130.963867188 c 0
 148 130.963867188 l 1
 148 0 l 1
 85 0 l 1
275.588516746 474 m 0
 148 474 l 1
 148 193 l 1
 275.588516746 193 l 0
 343.621902101 193 404 239.361328125 404 334 c 0
 404 427.6328125 344.563827004 474 275.588516746 474 c 0
EndSplineSet
Layer: 2
Layer: 3
EndChar

StartChar: germandbls
Encoding: 167 223 363
Width: 516
VWidth: 0
Flags: W
HStem: 5 56<259.442 360.789> 316 54<205.551 338.807> 611 56<192.244 335.111>
VStem: 75 60<10 551.999> 188.068 57.0527<74.5469 125> 386 60<416.728 560.411> 395 60<98.5415 269.363>
LayerCount: 4
Back
SplineSet
389 344 m 5xfc
 449 323 485 258 485 189 c 4
 485 88 439 0 320 0 c 4
 261 0 198 41 198 130 c 5
 268 130 l 5
 268 85 295 69 320 69 c 4
 394 69 412 125 412 189 c 4xfa
 412 252 364 309 280 309 c 6
 208 309 l 5
 208 377 l 5
 280 377 l 6
 359 377 393 429 393 488 c 4
 393 546 348 598 280 598 c 4
 199 598 148 555 148 452 c 6
 148 0 l 5
 75 0 l 5
 75 452 l 6
 75 603 162 667 280 667 c 4
 393 667 466 583 466 488 c 4
 466 425 433 371 389 344 c 5xfc
EndSplineSet
Fore
SplineSet
363.25524155 343.53515625 m 1xfc
 372.783382494 339.95703125 l 2
 429.77734375 319.766601562 465 256.760742188 455 189 c 0
 455 89.3994140625 410.469726562 5 301.736111111 5 c 0
 248.916992188 5 190.59765625 43.0712890625 188.068359375 125 c 1
 245.12109375 125 l 1
 247.337890625 80.6484375 277.042765299 61 301.736111111 61 c 0
 374.399414062 61 395 124.360351562 395 189 c 0xfa
 405 254.8359375 352.839106346 316 269.816326531 316 c 0
 205.551020408 316 l 1
 205.551020408 370 l 1
 269.816326531 370 l 0
 348.376654177 370 386 429.168945312 386 493 c 0
 386 553.685546875 337.773178412 611 269.816326531 611 c 0
 189.67578125 611 135 562.295898438 135 457 c 0
 135 10 l 1
 75 10 l 1
 75 457 l 0
 75 605.385742188 158.811423788 667 269.816326531 667 c 0
 375.57288345 667 446 585.34765625 446 493 c 0
 446 429.959960938 413.8515625 376.016601562 371.858856824 349.19921875 c 0
 363.25524155 343.53515625 l 1xfc
EndSplineSet
Layer: 2
Layer: 3
EndChar

StartChar: eth
Encoding: 423 240 364
Width: 493
VWidth: 0
Flags: W
HStem: -6 56<173.124 307.016> 367 63.9072<173.043 307.632>
VStem: 55 60<110.617 304.571> 365 58<110.617 306.108>
LayerCount: 4
Back
SplineSet
224 537 m 5xe0
 395 657 l 5
 426 613 l 5
 255 493 l 5
 224 537 l 5xe0
240 433 m 4
 336 433 415 357 415 213 c 13xe8
 443 204 l 6xf0
 443 61 347 -6 250 -6 c 4
 153 -6 55 61 55 204 c 6
 55 222 l 6
 55 366 143 433 240 433 c 4
250 367 m 4
 188 367 125 321 125 223 c 6
 125 204 l 6
 125 106 188 60 250 60 c 4
 312 60 375 106 375 204 c 6xf0
 375 212 l 6
 375 311 312 367 250 367 c 4
229 643 m 5
 269 677 l 5
 427 549 443 414 443 204 c 5xf0
 375 270 l 5xe8
 375 415 362 530 229 643 c 5
EndSplineSet
Fore
SplineSet
348.531875 574.216796875 m 0
 413.908203125 473.887695312 423 359.235351562 423 202.594726562 c 0
 423 59.880859375 330.959375 -6 240.2 -6 c 0
 149.395625 -6 55 60.0029296875 55 202.778320312 c 0
 55 221.110351562 l 0
 55 365.252929688 140.0365625 430.907226562 230.6 430.907226562 c 0
 279.1165625 430.907226562 322.69625 409.270507812 353.48 365.727539062 c 0
 363.7765625 351.163085938 l 1
 362.0965625 369.28125 l 0
 356.2953125 431.85546875 342.7034375 490.741210938 311.5296875 546.548828125 c 0
 308.875625 551.213867188 l 1
 246.153125 504.975585938 l 1
 221.9225 540.80078125 l 1
 284.6946875 587.075195312 l 1
 281.2971875 591.23828125 l 0
 265.8725 610.141601562 248.3328125 629.36328125 227.4659375 648.012695312 c 1
 258.453125 675.44921875 l 1
 281.2175 655.3984375 300.9809375 636.516601562 318.2403125 616.645507812 c 0
 321.0828125 613.374023438 l 1
 378.783203125 655.044921875 l 1
 404.013671875 619.234375 l 1
 345.9059375 578.30078125 l 1
 348.531875 574.216796875 l 0
365 217 m 0
 365 318.509765625 302.3215625 367 240.2 367 c 0
 178.094375 367 115 318.536132812 115 218 c 0
 115 199 l 0
 115 98.4638671875 178.094375 50 240.2 50 c 0
 302.305625 50 365 98.4638671875 365 199 c 0
 365 217 l 0
EndSplineSet
Layer: 2
Layer: 3
EndChar

StartChar: thorn
Encoding: 424 254 365
Width: 498
VWidth: 0
Flags: W
HStem: -6 56<192.079 324.453> 427 56<192.093 324.45> 647 20G<75 133>
VStem: 75 58<-185 69.376 112.269 364.449 406.624 667> 383 60<115.056 361.493>
LayerCount: 4
Back
Fore
SplineSet
142.043945312 419.059570312 m 0
 173.028320312 461.663085938 218.531702899 483 267.347826087 483 c 0
 357.336914062 483 443 417.1875 443 272.69921875 c 0
 443 203.279296875 l 0
 443 59.830078125 357.348632812 -6 267.347826087 -6 c 0
 218.46557971 -6 172.99609375 14.3818359375 142.043945312 56.9404296875 c 0
 133 69.3759765625 l 1
 133 -185 l 1
 75 -185 l 1
 75 667 l 1
 133 667 l 1
 133 406.624023438 l 1
 142.043945312 419.059570312 l 0
383 273.940429688 m 0
 383 377.215820312 318.077898551 427 258.072463768 427 c 0
 198.051630435 427 133 377.188476562 133 272.913085938 c 0
 133 203.059570312 l 0
 133 99.7841796875 198.067028986 50 258.072463768 50 c 0
 318.077898551 50 383 99.7841796875 383 203.059570312 c 0
 383 273.940429688 l 0
EndSplineSet
Layer: 2
Layer: 3
EndChar

StartChar: uni01A9
Encoding: 429 425 370
Width: 480
VWidth: 0
Flags: W
HStem: 0 60.9131<141.569 420> 606.087 60.9131<141.245 419>
LayerCount: 4
Back
Fore
SplineSet
277.846153846 356.987304688 m 1
 277.846153846 329.212890625 l 1
 141.569335938 60.9130859375 l 1
 420 60.9130859375 l 1
 420 0 l 1
 60 0 l 1
 60 34.2021484375 l 1
 226.872295673 342.203125 l 1
 60 632.866210938 l 1
 60 667 l 1
 419 667 l 1
 419 606.086914062 l 1
 141.245117188 606.086914062 l 1
 277.846153846 356.987304688 l 1
EndSplineSet
Layer: 2
Layer: 3
EndChar

StartChar: Dcroat
Encoding: 430 272 371
Width: 601
VWidth: 0
Flags: W
HStem: 0 65<187 403.833> 318 50<55 127 187 317.818> 602 65<187 403.838>
VStem: 127 60<65 318 368 602> 472 64<133.103 534.21>
LayerCount: 4
Back
Fore
SplineSet
127 368 m 1
 127 667 l 1
 316 667 l 0
 431.220703125 667 536 605.967773438 536 441.62109375 c 0
 536 226.39453125 l 0
 536 61.0126953125 431.208007812 0 316 0 c 0
 127 0 l 1
 127 318 l 1
 55 318 l 1
 55 368 l 1
 127 368 l 1
317.818181818 318 m 1
 187 318 l 1
 187 65 l 1
 316 65 l 0
 399.420632102 65 472 107.006835938 472 228 c 0
 472 440 l 0
 472 560.015625 399.405539773 602 316 602 c 0
 187 602 l 1
 187 368 l 1
 317.818181818 368 l 1
 317.818181818 318 l 1
EndSplineSet
Layer: 2
Layer: 3
EndChar

StartChar: dcroat
Encoding: 431 273 372
Width: 535
VWidth: 0
Flags: W
HStem: -6 56<173.041 307.107> 427 56<173.043 307.093> 542 51<221 365 423 485> 647 20G<365 423>
VStem: 55 60<115.056 361.493> 365 58<0.111328 70.7773 112.269 364.449 406.624 542 593 667>
LayerCount: 4
Back
SplineSet
225 593 m 5xf8
 505 593 l 5
 505 532 l 5
 225 532 l 5
 225 593 l 5xf8
240 483 m 4
 336 483 415 417 415 273 c 6
 415 204 l 6xfa
 415 61 337 -6 240 -6 c 4
 143 -6 55 61 55 204 c 6
 55 272 l 6
 55 416 143 483 240 483 c 4
250 417 m 4
 188 417 125 371 125 273 c 6
 125 204 l 6
 125 106 188 60 250 60 c 4
 312 60 375 106 375 204 c 6
 375 272 l 6xfc
 375 371 312 417 250 417 c 4
375 667 m 5
 443 667 l 5
 443 0 l 5xfc
 375 0 l 5xfa
 375 667 l 5
EndSplineSet
Fore
SplineSet
365 593 m 1
 365 667 l 1
 423 667 l 1
 423 593 l 1
 485 593 l 1
 485 542 l 1
 423 542 l 1
 423 0.111328125 l 1
 365 0.111328125 l 1
 365 70.77734375 l 1
 356.3178125 58.1103515625 l 0
 326.60375 14.7607421875 281.193125 -6 230.6 -6 c 0
 140.0253125 -6 55 59.830078125 55 203.279296875 c 0
 55 272.69921875 l 0
 55 417.1875 140.0365625 483 230.6 483 c 0
 281.1246875 483 326.5728125 461.663085938 356.3178125 419.059570312 c 0
 365 406.624023438 l 1
 365 542 l 1
 221 542 l 1
 221 593 l 1
 365 593 l 1
365 272.913085938 m 0
 365 377.188476562 302.3215625 427 240.2 427 c 0
 178.094375 427 115 377.215820312 115 273.940429688 c 0
 115 203.059570312 l 0
 115 99.7841796875 178.094375 50 240.2 50 c 0
 302.305625 50 365 99.7841796875 365 203.059570312 c 0
 365 272.913085938 l 0
EndSplineSet
Layer: 2
Layer: 3
EndChar

StartChar: Hbar
Encoding: 433 294 374
Width: 690
VWidth: 0
Flags: W
HStem: 0 21G<134 195 493 554> 315 56<195 493> 519.793 51.7764<75 134 195 493 554 615> 647 20G<134 195 493 554>
VStem: 134 61<0 315 371 517 573 667> 493 61<0 315 371 517 573 667>
LayerCount: 4
Back
Fore
SplineSet
134 571.569335938 m 1
 134 667 l 1
 195 667 l 1
 195 573 l 1
 493 573 l 1
 493 667 l 1
 554 667 l 1
 554 571.569335938 l 1
 615 571.569335938 l 1
 615 519.79296875 l 1
 554 519.79296875 l 1
 554 0 l 1
 493 0 l 1
 493 315 l 1
 195 315 l 1
 195 0 l 1
 134 0 l 1
 134 519.79296875 l 1
 75 519.79296875 l 1
 75 571.569335938 l 1
 134 571.569335938 l 1
493 517 m 1
 195 517 l 1
 195 371 l 1
 493 371 l 1
 493 517 l 1
EndSplineSet
Layer: 2
Layer: 3
EndChar

StartChar: hbar
Encoding: 434 295 375
Width: 564
VWidth: 0
Flags: W
HStem: 427 56<255.68 385.378> 542 51<65 139 198.314 327.647> 647 20G<139 198.314>
VStem: 139 59.3137<10 366.383 406.624 542 593 667> 439 60<10 368.845>
LayerCount: 4
Back
Fore
SplineSet
206.91434015 419.059570312 m 0
 236.379873238 461.663085938 281.400993796 483 331.450980392 483 c 0
 422.12890625 483 499 419.833984375 499 278 c 0
 499 10 l 1
 439 10 l 1
 439 277 l 0
 439 377.999023438 384.080078125 427 321.941176471 427 c 0
 260.419060202 427 198.31372549 378.536132812 198.31372549 278 c 0
 198.31372549 10 l 1
 139 10 l 1
 139 542 l 1
 65 542 l 1
 65 593 l 1
 139 593 l 1
 139 667 l 1
 198.31372549 667 l 1
 198.31372549 593 l 1
 327.647058824 593 l 1
 327.647058824 542 l 1
 198.31372549 542 l 1
 198.31372549 406.624023438 l 1
 206.91434015 419.059570312 l 0
EndSplineSet
Layer: 2
Layer: 3
EndChar

StartChar: IJ
Encoding: 437 306 378
Width: 632
VWidth: 0
Flags: W
HStem: -6 60<305.641 440.574> 647 20G<85 149 493 557>
VStem: 85 64<0 667> 493 64<111.817 667>
LayerCount: 4
Back
Fore
SplineSet
493 197.337890625 m 0
 493 667 l 1
 557 667 l 1
 557 198.03125 l 0
 557 57.685546875 464.313404838 -6 380.276836158 -6 c 0
 353.491988877 -6 279.370321328 -5.845703125 211.218661723 82.1083984375 c 1
 258.916092867 119.998046875 l 1
 311.005384887 53.2958984375 358.604122528 54 380.276836158 54 c 0
 433.639653955 54 493 100.365234375 493 197.337890625 c 0
85 667 m 1
 149 667 l 1
 149 0 l 1
 85 0 l 1
 85 667 l 1
EndSplineSet
Layer: 2
Layer: 3
EndChar

StartChar: ij
Encoding: 438 307 379
Width: 372
VWidth: 0
Flags: W
HStem: -190 52<152 216.313> 550 84<73.3683 148.814 223.368 298.814>
VStem: 69 84<554.646 629.354> 82 60<5 472> 219 84<554.646 629.354> 232 60<-123.814 467>
LayerCount: 4
Back
Fore
SplineSet
69 592 m 0xe0
 69 617.297851562 86.5859375 634 111 634 c 0
 136.393554688 634 153 617.393554688 153 592 c 0
 153 566.606445312 136.393554688 550 111 550 c 0
 86.5849609375 550 69 566.702148438 69 592 c 0xe0
82 5 m 1xd0
 82 472 l 1
 142 472 l 1
 142 5 l 1
 82 5 l 1xd0
219 592 m 0xc8
 219 617.297851562 236.5859375 634 261 634 c 0
 286.393554688 634 303 617.393554688 303 592 c 0
 303 566.606445312 286.393554688 550 261 550 c 0
 236.584960938 550 219 566.702148438 219 592 c 0xc8
292 467 m 1xc4
 292 -65 l 2
 292 -151.189453125 233.586914062 -190 177 -190 c 0
 152 -190 l 1
 152 -138 l 1
 177 -138 l 0
 205.154296875 -138 232 -115.903320312 232 -65 c 0
 232 467 l 1
 292 467 l 1xc4
EndSplineSet
Layer: 2
Layer: 3
EndChar

StartChar: Lslash
Encoding: 439 321 380
Width: 575
VWidth: 0
Flags: W
HStem: 0 60.9131<220 520> 647 20G<160 220>
VStem: 160 60<60.9131 277.278 358.309 667>
LayerCount: 4
Back
SplineSet
45 273 m 5
 365 433 l 5
 365 372 l 5
 45 212 l 5
 45 273 l 5
160 667 m 1
 234 667 l 1
 234 70 l 1
 540 70 l 1
 540 0 l 1
 160 0 l 1
 160 667 l 1
EndSplineSet
Fore
SplineSet
160 326.796875 m 1
 160 667 l 1
 220 667 l 1
 220 358.30859375 l 1
 348.125 426.328125 l 1
 348.125 375.712890625 l 1
 220 306.677734375 l 1
 220 60.9130859375 l 1
 520 60.9130859375 l 1
 520 0 l 1
 160 0 l 1
 160 277.278320312 l 1
 45 218.395507812 l 1
 45 268.9296875 l 1
 160 326.796875 l 1
EndSplineSet
Layer: 2
Layer: 3
EndChar

StartChar: lslash
Encoding: 440 322 381
Width: 400
VWidth: 0
Flags: W
HStem: 647 20G<165 225>
VStem: 165 60<10 285.15 364.854 667>
LayerCount: 4
Back
Fore
SplineSet
165 334.932617188 m 1
 165 667 l 1
 225 667 l 1
 225 364.854492188 l 1
 355 430.854492188 l 1
 355 381.069335938 l 1
 225 315.069335938 l 1
 225 10 l 1
 165 10 l 1
 165 285.150390625 l 1
 45 224.150390625 l 1
 45 273.932617188 l 1
 165 334.932617188 l 1
EndSplineSet
Layer: 2
Layer: 3
EndChar

StartChar: napostrophe
Encoding: 441 329 382
Width: 582
VWidth: 0
Flags: W
HStem: 427 56<274.148 403.376> 653 20G<84.5352 107.465>
VStem: 50 92<586.886 666.844> 157 60<10 366.383 406.624 477> 457 60<10 368.845>
LayerCount: 4
Back
Fore
SplineSet
50 627 m 0
 50 658.854492188 73.0703125 673 96 673 c 0
 118.9296875 673 142 658.854492188 142 627 c 0
 142 621.547851562 141.041992188 604.96484375 133.296875 582.69921875 c 1
 89.53515625 466 l 1
 54.3779296875 466 l 1
 82.9560546875 582.28515625 l 1
 78.5810546875 583.743164062 l 0
 62.525390625 589.095703125 50 603.01953125 50 627 c 0
225.567948191 419.059570312 m 0
 254.921566612 461.663085938 299.771689967 483 349.631578947 483 c 0
 430.16796875 483 517 419.606445312 517 278 c 0
 517 10 l 1
 457 10 l 1
 457 277 l 0
 457 377.999023438 402.080078125 427 340.157894737 427 c 0
 278.869449013 427 217 378.536132812 217 278 c 0
 215.016877637 10 l 1
 157 10 l 1
 157 477 l 1
 217 477 l 1
 217 406.624023438 l 1
 225.567948191 419.059570312 l 0
EndSplineSet
Layer: 2
Layer: 3
EndChar

StartChar: Eng
Encoding: 442 330 383
Width: 586
VWidth: 0
Flags: W
HStem: -190 52<361.59 425.24> 0 21G<85 146.777> 647 20G<85 151.319 439 501>
VStem: 85 61.7772<0 533.604> 439 62<-123.799 12.3438 133.382 667>
LayerCount: 4
Back
Fore
SplineSet
85 0 m 1
 85 667 l 1
 140.1171875 667 l 1
 439 133.381835938 l 1
 439 667 l 1
 501 667 l 1
 501 -65 l 0
 501 -151.155273438 442.647460938 -190 385.780610567 -190 c 0
 361.589979007 -190 l 1
 361.589979007 -138 l 1
 385.780610567 -138 l 0
 413.023419469 -138 439 -115.903320312 439 -65 c 0
 439 12.34375 l 1
 146.777170751 533.604492188 l 1
 146.777170751 0 l 1
 85 0 l 1
EndSplineSet
Layer: 2
Layer: 3
EndChar

StartChar: eng
Encoding: 443 331 384
Width: 500
VWidth: 0
Flags: W
HStem: -190 52<296.053 359.313> 427 56<192.148 321.451>
VStem: 75 60<10 366.383 406.624 477> 375 60<-123.814 367.639>
LayerCount: 4
Back
Fore
SplineSet
143.567948191 419.059570312 m 0
 172.921566612 461.663085938 217.771689967 483 267.631578947 483 c 0
 358.12890625 483 435 418.659179688 435 274.189453125 c 0
 435 -65 l 0
 435 -151.189453125 376.586914062 -190 320 -190 c 0
 296.052631579 -190 l 1
 296.052631579 -138 l 1
 320 -138 l 0
 348.154296875 -138 375 -115.903320312 375 -65 c 0
 375 273.887695312 l 0
 375 376.982421875 320.080078125 427 258.157894737 427 c 0
 196.869449013 427 135 378.536132812 135 278 c 0
 135 10 l 1
 75 10 l 1
 75 477 l 1
 135 477 l 1
 135 406.624023438 l 1
 143.567948191 419.059570312 l 0
EndSplineSet
Layer: 2
Layer: 3
EndChar

StartChar: Tbar
Encoding: 444 358 385
Width: 540
VWidth: 0
Flags: W
HStem: 0 21G<233 297> 297 51<118 233 300.4 418> 606.045 60.9551<55 239.6 300.4 485>
VStem: 233 64<0 297 348 606.045>
LayerCount: 4
Back
Fore
SplineSet
55 606.044921875 m 1
 55 667 l 1
 485 667 l 1
 485 606.044921875 l 1
 300.4 606.044921875 l 1
 300.4 348 l 1
 418 348 l 1
 418 297 l 1
 297 297 l 1
 297 0 l 1
 233 0 l 1
 233 297 l 1
 118 297 l 1
 118 348 l 1
 239.6 348 l 1
 239.6 606.044921875 l 1
 55 606.044921875 l 1
EndSplineSet
Layer: 2
Layer: 3
EndChar

StartChar: tbar
Encoding: 445 359 386
Width: 400
VWidth: 0
Flags: W
HStem: 5 56<235.503 332> 267 46<45 164 220 355> 422.114 53.0283<102 164 220 312>
VStem: 164 56<74.712 267 313 422.114 475.143 571>
LayerCount: 4
Back
Fore
SplineSet
220 571 m 1
 220 475.142578125 l 1
 312 475.142578125 l 1
 312 422.114257812 l 1
 220 422.114257812 l 1
 220 313 l 1
 355 313 l 1
 355 267 l 1
 220 267 l 1
 220 130 l 0
 220 82.6484375 249.162109375 61 277 61 c 0
 332 61 l 1
 332 5 l 1
 277 5 l 0
 220.489257812 5 164 43.7099609375 164 130 c 0
 164 267 l 1
 45 267 l 1
 45 313 l 1
 164 313 l 1
 164 422.114257812 l 1
 102 422.114257812 l 1
 102 475.142578125 l 1
 164 475.142578125 l 1
 164 571 l 1
 220 571 l 1
EndSplineSet
Layer: 2
Layer: 3
EndChar

StartChar: ogonek
Encoding: 254 731 389
Width: 276
Flags: W
HStem: -191 45<97.6429 177.447> -20 20G<71.7651 137.134>
VStem: 50 40<-137.878 -33.8871>
AnchorPoint: "Bottom" 121 0 mark 0
LayerCount: 4
Back
SplineSet
158.744140625 47.4931640625 m 21
 122.120117188 0.6240234375 l 6
 70.3525390625 -65.6259765625 54.71484375 -125.296875 106.909179688 -163.149414062 c 4
 155.293945312 -198.23828125 197.479492188 -146.774414062 215.905273438 -120.046875 c 1037
EndSplineSet
Fore
SplineSet
84.1962890625 0 m 1
 137.133789062 0 l 1
 99.828125 -39.751953125 90 -67.146484375 90 -94 c 0
 90 -121.75390625 106.407226562 -146 135 -146 c 0
 161.407226562 -146 176.794921875 -127.327148438 191.259765625 -106.915039062 c 1
 224.313476562 -129.48828125 l 1
 210.388671875 -152.936523438 185.65625 -191 135 -191 c 0
 77.462890625 -191 50 -145.266601562 50 -97 c 0
 50 -69.5625 59.333984375 -30.720703125 84.1962890625 0 c 1
EndSplineSet
Layer: 2
Layer: 3
EndChar

StartChar: Euro
Encoding: 448 8364 390
Width: 581
VWidth: 0
Flags: W
HStem: -1 60<251.409 427.132> 248 46<76.4287 122.905 186.614 380.542> 373 46<76.4287 122.905 186.614 419.382> 613 60<251.41 426.485>
VStem: 122.905 63.7085<129.372 248 294 373 419 540.49>
LayerCount: 4
Back
Fore
SplineSet
122.905273438 446.541992188 m 0
 122.905273438 611.767578125 225.816470071 673 336.027977604 673 c 0
 373.005527984 673 454.0859375 672.328125 519.875 589.889648438 c 1
 470.787109375 551.998046875 l 1
 421.389648438 613.356445312 368.099693721 613 336.027977604 613 c 0
 257.52247004 613 186.613756734 569.7734375 186.613756734 446.713867188 c 0
 186.613756734 419 l 1
 435.809570312 419 l 1
 419.381835938 373 l 1
 186.613756734 373 l 1
 186.613756734 294 l 1
 396.276673162 294 l 1
 380.542460775 248 l 1
 186.613756734 248 l 1
 186.613756734 222 l 0
 186.613756734 101.135742188 257.506569338 59 336.027977604 59 c 0
 369.387650591 59 425.4453125 59.8818359375 477.786132812 125.00390625 c 1
 526.874023438 87.111328125 l 1
 456.140625 -1.62109375 374.630205604 -1 336.027977604 -1 c 0
 225.827694096 -1 122.905273438 59.01171875 122.905273438 222 c 0
 122.905273438 248 l 1
 60 248 l 1
 76.4287109375 294 l 1
 122.905273438 294 l 1
 122.905273438 373 l 1
 60 373 l 1
 76.4287109375 419 l 1
 122.905273438 419 l 1
 122.905273438 446.541992188 l 0
EndSplineSet
Layer: 2
Layer: 3
EndChar

StartChar: uni01C4
Encoding: 451 452 393
Width: 982
VWidth: 0
Flags: W
HStem: 0 60.9131<149 358.513 589.27 922> 606.087 60.9131<149 358.506 527.204 837.745>
VStem: 85 64<65 602> 436.914 62.8104<135.409 529.336>
LayerCount: 4
Back
Fore
SplineSet
374.052335037 858 m 1
 453.598513011 777.973632812 l 1
 533.144690985 858 l 1
 587.982080623 858 l 1
 469.231151255 737 l 1
 437.965874768 737 l 1
 319.2149454 858 l 1
 374.052335037 858 l 1
527.204460967 606.086914062 m 1
 527.204460967 667 l 1
 912 667 l 1
 912 622.702148438 l 1
 589.270184712 60.9130859375 l 1
 922 60.9130859375 l 1
 922 0 l 1
 517.390334572 0 l 1
 517.390334572 44.3017578125 l 1
 837.745117188 606.086914062 l 1
 527.204460967 606.086914062 l 1
274 602 m 0
 149 602 l 1
 149 65 l 1
 274 65 l 0
 364.057069006 65 436.914498141 107.006835938 436.914498141 228 c 0
 436.914498141 440 l 0
 436.914498141 560.015625 364.040776022 602 274 602 c 0
85 0 m 1
 85 667 l 1
 274 667 l 0
 396.893180762 667 499.724907063 605.967773438 499.724907063 441.62109375 c 0
 499.724907063 236.546875 l 0
 499.724907063 70.9619140625 396.561570632 0 274 0 c 0
 85 0 l 1
EndSplineSet
Layer: 2
Layer: 3
EndChar

StartChar: uni01C5
Encoding: 452 453 394
Width: 918
VWidth: 0
Flags: W
HStem: 0 65<149 364.763> 0 56.5996<626.958 863> 415.4 56.5996<556.467 791.199> 602 55<149 364.906>
VStem: 85 64<65 602> 435.712 62.8321<133.378 532.59>
LayerCount: 4
Back
Fore
SplineSet
372.827789975 858 m 1x3c
 452.401459854 777.973632812 l 1
 531.975129733 858 l 1
 586.831471687 858 l 1
 468.039500884 737 l 1
 436.763418824 737 l 1
 317.971448021 858 l 1
 372.827789975 858 l 1x3c
863 428.012695312 m 1
 626.9577013 56.599609375 l 1
 863 56.599609375 l 1
 863 0 l 1
 556.467153285 0 l 1x7c
 556.467153285 43.9873046875 l 1
 791.19921875 415.400390625 l 1
 556.467153285 415.400390625 l 1
 556.467153285 472 l 1
 863 472 l 1
 863 428.012695312 l 1
272.740875912 602 m 0
 149 602 l 1
 149 65 l 1
 272.740875912 65 l 0xbc
 362.829069486 65 435.711678832 107.006835938 435.711678832 228 c 0
 435.711678832 440 l 0
 435.711678832 560.015625 362.812770871 602 272.740875912 602 c 0
85 0 m 1x7c
 85 657 l 1
 272.740875912 657 l 0
 395.67652971 657 498.54379562 596.8828125 498.54379562 435 c 0
 498.54379562 233 l 0
 498.54379562 69.8974609375 395.344804973 0 272.740875912 0 c 0xbc
 85 0 l 1x7c
EndSplineSet
Layer: 2
Layer: 3
EndChar

StartChar: uni01C6
Encoding: 453 454 395
Width: 845
VWidth: 0
Flags: W
HStem: -6 66<174.087 307.71> 5 56<551.801 790> 416 56<483.762 718.199> 427 56<174.814 311.914> 647 20G<371.04 427.891>
VStem: 55 60<125.374 361.493> 371.04 56.8515<0.0908203 70.5127 133.134 366.108 406.624 667>
LayerCount: 4
Back
Fore
SplineSet
371.03960396 406.624023438 m 1x9e
 371.03960396 667 l 1
 427.891089109 667 l 1
 423 0.0908203125 l 1
 365 0.0908203125 l 1
 365 70.5126953125 l 1
 356.408251953 57.890625 l 0
 327.003710937 14.689453125 282.066113281 -6 232 -6 c 0
 140.651367188 -6 55 59.830078125 55 203.279296875 c 0
 55 272.69921875 l 0
 55 417.1875 140.663085938 483 233.811881188 483 c 0
 285.399588103 483 331.803923654 461.663085938 362.174746674 419.059570312 c 0
 371.03960396 406.624023438 l 1x9e
371.03960396 277 m 0
 371.03960396 378.509765625 307.042436959 427 243.613861386 427 c 0
 180.201558632 427 115 378.536132812 115 278 c 0
 115 209 l 0
 115 108.463867188 180.041308594 60 241.5 60 c 0
 302.958691406 60 365 108.463867188 365 209 c 0
 371.03960396 277 l 0
790 428.478515625 m 1
 551.80078125 61 l 1
 790 61 l 1
 790 5 l 1
 480 5 l 1
 480 48.521484375 l 1
 718.19921875 416 l 1
 483.762376238 416 l 1
 483.762376238 472 l 1
 790 472 l 1x6e
 790 428.478515625 l 1
371.96811185 858 m 1
 451.415841584 777.973632812 l 1
 530.863571318 858 l 1
 585.633092899 858 l 1
 467.029132503 737 l 1
 435.802550665 737 l 1
 317.198590269 858 l 1
 371.96811185 858 l 1
EndSplineSet
Layer: 2
Layer: 3
EndChar

StartChar: uni01C7
Encoding: 454 455 396
Width: 926
VWidth: 0
Flags: W
HStem: 0 60.9131<149 450.278 589.65 741.06> 647 20G<85 149 787 851>
VStem: 85 64<60.9131 667> 787 64<111.817 667>
LayerCount: 4
Back
Fore
SplineSet
787 198.03125 m 0
 787 667 l 1
 851 667 l 1
 851 198.03125 l 0
 851 57.685546875 757.93505558 -6 672.790123457 -6 c 0
 645.652009187 -6 570.552746431 -5.8427734375 501.502230421 83.4375 c 1
 549.828745901 121.8984375 l 1
 602.605046779 54.1904296875 650.831567081 54.9052734375 672.790123457 54.9052734375 c 0
 726.856746721 54.9052734375 787 101.201171875 787 198.03125 c 0
85 0 m 1
 85 667 l 1
 149 667 l 1
 149 60.9130859375 l 1
 450.277777778 60.9130859375 l 1
 450.277777778 0 l 1
 85 0 l 1
EndSplineSet
Layer: 2
Layer: 3
EndChar

StartChar: uni01C8
Encoding: 455 456 397
Width: 645
VWidth: 0
Flags: W
HStem: -190 52<427.149 490.399> 0 60<149 445.421> 545 84<496.368 571.814>
VStem: 85 64<60 657> 492 84<549.646 624.354> 506 60<-123.814 467>
LayerCount: 4
Back
Fore
SplineSet
492 587 m 0xf8
 492 612.297851562 509.5859375 629 534 629 c 0
 559.393554688 629 576 612.393554688 576 587 c 0
 576 561.606445312 559.393554688 545 534 545 c 0
 509.584960938 545 492 561.702148438 492 587 c 0xf8
566 467 m 1xf4
 566 -65 l 2
 566 -151.189453125 507.586914062 -190 451.191570881 -190 c 0
 427.149425287 -190 l 1
 427.149425287 -138 l 1
 451.191570881 -138 l 0
 479.154296875 -138 506 -115.903320312 506 -65 c 0
 506 467 l 1
 566 467 l 1xf4
85 0 m 1
 85 657 l 1
 149 657 l 1
 149 60 l 1
 445.421455939 60 l 1
 445.421455939 0 l 1
 85 0 l 1
EndSplineSet
Layer: 2
Layer: 3
EndChar

StartChar: uni01C9
Encoding: 456 457 398
Width: 355
VWidth: 0
Flags: W
HStem: -190 52<135 199.313> 550 84<206.368 281.814> 647 20G<75 135>
VStem: 75 60<10 667> 202 84<554.646 629.354> 215 60<-123.814 467>
LayerCount: 4
Back
Fore
SplineSet
202 592 m 0xf8
 202 617.297851562 219.5859375 634 244 634 c 0
 269.393554688 634 286 617.393554688 286 592 c 0
 286 566.606445312 269.393554688 550 244 550 c 0
 219.584960938 550 202 566.702148438 202 592 c 0xf8
275 467 m 1xf4
 275 -65 l 2
 275 -151.189453125 216.586914062 -190 160 -190 c 0
 135 -190 l 1
 135 -138 l 1
 160 -138 l 0
 188.154296875 -138 215 -115.903320312 215 -65 c 0
 215 467 l 1
 275 467 l 1xf4
75 10 m 1
 75 667 l 1
 135 667 l 1
 135 10 l 1
 75 10 l 1
EndSplineSet
Layer: 2
Layer: 3
EndChar

StartChar: uni01CA
Encoding: 457 458 399
Width: 987
VWidth: 0
Flags: W
HStem: -6 60<655.194 793.92> 647 20G<85 151.328 439 501 838 902.426>
VStem: 85 62<0 533.618> 439.223 61.7772<133.382 667> 838 64<338.722 667> 848 64<112.2 526.101>
LayerCount: 4
Back
Fore
SplineSet
848 197.337890625 m 0xf4
 838 667 l 1
 902 667 l 1xf8
 912 198.03125 l 0
 912 57.685546875 818.479492188 -6 732 -6 c 0
 704.436523438 -6 628.16015625 -5.845703125 558.02734375 82.1083984375 c 1
 607.111328125 119.998046875 l 1
 660.71484375 53.2958984375 709.697265625 54 732 54 c 0
 786.9140625 54 848 100.365234375 848 197.337890625 c 0xf4
85 0 m 1
 85 667 l 1
 140.1171875 667 l 1
 439.222829249 133.381835938 l 1
 439 667 l 1
 501 667 l 1
 501 0 l 1
 445.8828125 0 l 1
 146.777170751 533.618164062 l 1
 147 0 l 1
 85 0 l 1
EndSplineSet
Layer: 2
Layer: 3
EndChar

StartChar: uni01CB
Encoding: 458 459 400
Width: 722
VWidth: 0
Flags: W
HStem: -190 52<502 566.313> 0 21G<85 147 434.681 501> 545 84<573.368 648.814>
VStem: 85 62<0 533.618> 439.223 61.7772<123.382 657> 569 84<549.646 624.354> 582 60<-123.814 467>
LayerCount: 4
Back
Fore
SplineSet
569 587 m 0xfc
 569 612.297851562 586.5859375 629 611 629 c 0
 636.393554688 629 653 612.393554688 653 587 c 0
 653 561.606445312 636.393554688 545 611 545 c 0
 586.584960938 545 569 561.702148438 569 587 c 0xfc
642 467 m 1xfa
 642 -65 l 2
 642 -151.189453125 583.586914062 -190 527 -190 c 0
 502 -190 l 1
 502 -138 l 1
 527 -138 l 0
 555.154296875 -138 582 -115.903320312 582 -65 c 0
 582 467 l 1
 642 467 l 1xfa
85 0 m 1
 85 657 l 1
 140.1171875 657 l 1
 439.222829249 123.381835938 l 1
 439.222829249 657 l 1
 501 657 l 1
 501 0 l 1
 445.8828125 0 l 1
 147 533.618164062 l 1
 147 0 l 1
 85 0 l 1
EndSplineSet
Layer: 2
Layer: 3
EndChar

StartChar: uni01CC
Encoding: 459 460 401
Width: 657
VWidth: 0
Flags: W
HStem: -190 52<436.933 500.405> 427 56<193.565 326.604> 550 84<508.368 583.814>
VStem: 75 60<10 366.383 406.624 477> 377.711 58.2507<10 369.867> 504 84<554.646 629.354> 516 60<-123.814 467>
LayerCount: 4
Back
Fore
SplineSet
143.780273438 419.059570312 m 0xf8
 173.861313889 461.663085938 219.82288345 483 270.918367347 483 c 0
 361.332145135 483 435.962099125 419.833984375 435.962099125 278 c 0
 435.962099125 10 l 1
 377.711370262 10 l 1
 377.711370262 277 l 0
 377.711370262 377.999023438 324.39261229 427 261.209912536 427 c 0
 198.402656933 427 135 378.536132812 135 278 c 0
 135 10 l 1
 75 10 l 1
 75 477 l 1
 135 477 l 1
 135 406.624023438 l 1
 143.780273438 419.059570312 l 0xf8
576 467 m 1xfa
 576 -65 l 2
 576 -151.189453125 517.586914062 -190 461.204081633 -190 c 0
 436.932944606 -190 l 1
 436.932944606 -138 l 1
 461.204081633 -138 l 0
 489.154296875 -138 516 -115.903320312 516 -65 c 0
 516 467 l 1
 576 467 l 1xfa
504 592 m 0xfc
 504 617.297851562 521.5859375 634 546 634 c 0
 571.393554688 634 588 617.393554688 588 592 c 0
 588 566.606445312 571.393554688 550 546 550 c 0
 521.584960938 550 504 566.702148438 504 592 c 0xfc
EndSplineSet
Layer: 2
Layer: 3
EndChar

StartChar: uni01F1
Encoding: 460 497 402
Width: 982
VWidth: 0
Flags: W
HStem: 0 60.9131<149 358.513 589.27 922> 606.087 60.9131<149 358.506 527.204 837.745>
VStem: 85 64<65 602> 436.914 62.8104<135.409 529.336>
LayerCount: 4
Back
Fore
SplineSet
527.204460967 606.086914062 m 1
 527.204460967 667 l 1
 912 667 l 1
 912 622.702148438 l 1
 589.270184712 60.9130859375 l 1
 922 60.9130859375 l 1
 922 0 l 1
 517.390334572 0 l 1
 517.390334572 44.3017578125 l 1
 837.745117188 606.086914062 l 1
 527.204460967 606.086914062 l 1
274 602 m 0
 149 602 l 1
 149 65 l 1
 274 65 l 0
 364.057069006 65 436.914498141 107.006835938 436.914498141 228 c 0
 436.914498141 440 l 0
 436.914498141 560.015625 364.040776022 602 274 602 c 0
85 0 m 1
 85 667 l 1
 274 667 l 0
 396.893180762 667 499.724907063 605.967773438 499.724907063 441.62109375 c 0
 499.724907063 236.546875 l 0
 499.724907063 70.9619140625 396.561570632 0 274 0 c 0
 85 0 l 1
EndSplineSet
Layer: 2
Layer: 3
EndChar

StartChar: uni01F2
Encoding: 461 498 403
Width: 918
VWidth: 0
Flags: W
HStem: 0 65<149 364.763> 0 56.5996<626.958 863> 415.4 56.5996<556.467 791.199> 602 55<149 364.906>
VStem: 85 64<65 602> 435.712 62.8321<133.378 532.59>
LayerCount: 4
Back
Fore
SplineSet
863 428.012695312 m 1x7c
 626.9577013 56.599609375 l 1
 863 56.599609375 l 1
 863 0 l 1
 556.467153285 0 l 1
 556.467153285 43.9873046875 l 1
 791.19921875 415.400390625 l 1
 556.467153285 415.400390625 l 1
 556.467153285 472 l 1
 863 472 l 1
 863 428.012695312 l 1x7c
272.740875912 602 m 0
 149 602 l 1
 149 65 l 1
 272.740875912 65 l 0xbc
 362.829069486 65 435.711678832 107.006835938 435.711678832 228 c 0
 435.711678832 440 l 0
 435.711678832 560.015625 362.812770871 602 272.740875912 602 c 0
85 0 m 1x7c
 85 657 l 1
 272.740875912 657 l 0
 395.67652971 657 498.54379562 596.8828125 498.54379562 435 c 0
 498.54379562 233 l 0
 498.54379562 69.8974609375 395.344804973 0 272.740875912 0 c 0xbc
 85 0 l 1x7c
EndSplineSet
Layer: 2
Layer: 3
EndChar

StartChar: uni01F3
Encoding: 462 499 404
Width: 845
VWidth: 0
Flags: W
HStem: -6 66<174.087 307.71> 5 56<551.801 790> 416 56<483.762 718.199> 427 56<174.814 311.914> 647 20G<371.04 427.891>
VStem: 55 60<125.374 361.493> 371.04 56.8515<0.0908203 70.5127 133.134 366.108 406.624 667>
LayerCount: 4
Back
Fore
SplineSet
371.03960396 406.624023438 m 1x9e
 371.03960396 667 l 1
 427.891089109 667 l 1
 423 0.0908203125 l 1
 365 0.0908203125 l 1
 365 70.5126953125 l 1
 356.408251953 57.890625 l 0
 327.003710937 14.689453125 282.066113281 -6 232 -6 c 0
 140.651367188 -6 55 59.830078125 55 203.279296875 c 0
 55 272.69921875 l 0
 55 417.1875 140.663085938 483 233.811881188 483 c 0
 285.399588103 483 331.803923654 461.663085938 362.174746674 419.059570312 c 0
 371.03960396 406.624023438 l 1x9e
371.03960396 277 m 0
 371.03960396 378.509765625 307.042436959 427 243.613861386 427 c 0
 180.201558632 427 115 378.536132812 115 278 c 0
 115 209 l 0
 115 108.463867188 180.041308594 60 241.5 60 c 0
 302.958691406 60 365 108.463867188 365 209 c 0
 371.03960396 277 l 0
790 428.478515625 m 1
 551.80078125 61 l 1
 790 61 l 1
 790 5 l 1
 480 5 l 1
 480 48.521484375 l 1
 718.19921875 416 l 1
 483.762376238 416 l 1
 483.762376238 472 l 1
 790 472 l 1x6e
 790 428.478515625 l 1
EndSplineSet
Layer: 2
Layer: 3
EndChar

StartChar: uni018F
Encoding: 465 399 407
Width: 566
VWidth: 0
Flags: W
HStem: -6 60<198.119 367.881> 272 60<132 434> 613 60<193.768 367.88>
VStem: 68 64<126.33 272> 434 64<126.32 272 332 541.157>
LayerCount: 4
Back
Fore
SplineSet
101.030273438 589.889648438 m 1
 167.754882812 673.501953125 246.591064453 673 283 673 c 0
 393.069335938 673 498 612.075195312 498 447.681640625 c 0
 498 220.333007812 l 0
 498 54.908203125 393.057617188 -6 283 -6 c 0
 172.942382812 -6 68 54.9130859375 68 220.348632812 c 0
 68 332 l 1
 434 332 l 1
 434 448.065429688 l 0
 434 570.124023438 360.867529297 613 283 613 c 0
 250.936572266 613 197.988916016 612.11328125 150.1171875 551.998046875 c 1
 101.030273438 589.889648438 l 1
434 220.826171875 m 0
 434 272 l 1
 132 272 l 1
 132 220.826171875 l 0
 132 97.125 205.116699219 54 283 54 c 0
 360.883300781 54 434 97.125 434 220.826171875 c 0
EndSplineSet
Layer: 2
Layer: 3
EndChar

StartChar: uni0259
Encoding: 466 601 408
Width: 486
VWidth: 0
Flags: W
HStem: -6 54<175.975 310.855> 200 54<116 370> 428 55<142.196 307.143>
VStem: 58 58<112.578 200> 370 58<110.625 200 254 361.764>
LayerCount: 4
Back
Fore
SplineSet
81.1162109375 434.049804688 m 1
 125.0703125 465.852539062 175.96875 483 233.714285714 483 c 0
 332.772460938 483 428 416.732421875 428 273.720703125 c 0
 428 204.30078125 l 0
 428 60.142578125 332.576171875 -6 243 -6 c 0
 153.422851562 -6 58 57.9599609375 58 208.1171875 c 0
 58 254 l 1
 370 254 l 1
 370 273.5625 l 0
 370 377.208007812 305.596051897 428 233.714285714 428 c 0
 191.696428571 428 147.310546875 414.388671875 115.794921875 390.067382812 c 1
 81.1162109375 434.049804688 l 1
370 194.830078125 m 0
 370 200 l 1
 116 200 l 1
 116 194.830078125 l 0
 116 99.96875 181.172921317 48 243 48 c 0
 302.785853795 48 370 94.6923828125 370 194.830078125 c 0
EndSplineSet
Layer: 2
Layer: 3
EndChar

StartChar: uni030F
Encoding: 469 783 411
Width: 393
Flags: W
HStem: 546 111
VStem: 50 284.33
AnchorPoint: "Top" 242 477 mark 0
LayerCount: 4
Back
Fore
SplineSet
128.892578125 546 m 1
 50 657 l 1
 114.528320312 657 l 1
 183.330078125 546 l 1
 128.892578125 546 l 1
279.892578125 546 m 1
 201 657 l 1
 265.528320312 657 l 1
 334.330078125 546 l 1
 279.892578125 546 l 1
EndSplineSet
Layer: 2
Layer: 3
EndChar

StartChar: uni03BC
Encoding: 470 956 412
Width: 540
VWidth: 0
Flags: W
HStem: -6 56<190.402 321.291 448.324 495>
VStem: 75 60<-185 65.3008 110.728 467> 375 60<107.784 467>
LayerCount: 4
Back
Fore
SplineSet
144.03515625 52.9521484375 m 0
 135 65.30078125 l 1
 135 -185 l 1
 75 -185 l 1
 75 467 l 1
 135 467 l 1
 135 199 l 0
 135 98.7138671875 195.117495888 50 256.578947368 50 c 0
 318.040398849 50 375 98.7138671875 375 199 c 0
 375 467 l 1
 435 467 l 1
 435 119 l 0
 435 71.8818359375 461.990234375 50 490 50 c 0
 495 50 l 1
 495 -6 l 1
 490 -6 l 0
 446.896484375 -6 409.041015625 16.646484375 392.733398438 64.609375 c 0
 389.26171875 74.8212890625 l 1
 383.712890625 65.572265625 l 0
 355.765830592 17.2138671875 310.187602796 -6 256.578947368 -6 c 0
 213.444078947 -6 173.09765625 13.2333984375 144.03515625 52.9521484375 c 0
EndSplineSet
Layer: 2
Layer: 3
EndChar

StartChar: alpha
Encoding: 471 945 413
Width: 519
VWidth: 0
Flags: W
HStem: -6 56<173.041 306.8> 0.125 57.1689<435.592 474> 427 56<173.043 307.093>
VStem: 55 60<115.056 361.493> 365 58<112.269 364.449 405.029 476.875>
LayerCount: 4
Back
SplineSet
385 130 m 6xf2
 443 130 l 6xf8
 443 85 469 66 494 66 c 6
 504 66 l 5
 504 0 l 5
 494 0 l 6
 435 0 385 41 385 130 c 6xf2
240 483 m 4
 336 483 415 417 415 273 c 6xf4
 425 204 l 6xf2
 425 61 337 -6 240 -6 c 4
 143 -6 55 61 55 204 c 6
 55 272 l 6
 55 416 143 483 240 483 c 4
250 417 m 4
 188 417 125 371 125 273 c 6
 125 204 l 6
 125 106 188 60 250 60 c 4
 312 60 375 106 375 204 c 6
 375 272 l 6xf8
 375 371 312 417 250 417 c 4
375 477 m 5
 443 477 l 5
 443 100 l 5
 375 100 l 5
 375 477 l 5
EndSplineSet
Fore
SplineSet
365 405.029296875 m 1xb8
 365 476.875 l 1
 423 476.875 l 1
 423 127.735351562 l 0
 423 79.5126953125 447.14733356 57.2939453125 469 57.2939453125 c 0
 474 57.2939453125 l 1
 474 0.125 l 1
 469 0.125 l 0x78
 435.283627717 0.125 398.131835938 23.171875 382.779296875 74.1083984375 c 0
 379.560546875 84.787109375 l 1
 373.759765625 75.3125 l 0
 340.7665625 19.771484375 287.7846875 -6 230.6 -6 c 0
 140.0253125 -6 55 59.830078125 55 203.279296875 c 0
 55 272.69921875 l 0
 55 417.1875 140.0365625 483 230.6 483 c 0
 281.1246875 483 326.5728125 461.217773438 356.3178125 417.724609375 c 0
 365 405.029296875 l 1xb8
365 272.913085938 m 0
 365 377.188476562 302.3215625 427 240.2 427 c 0
 178.094375 427 115 377.215820312 115 273.940429688 c 0
 115 203.059570312 l 0
 115 99.7841796875 178.094375 50 240.2 50 c 0xb8
 302.305625 50 365 99.7841796875 365 203.059570312 c 0
 365 272.913085938 l 0
EndSplineSet
Layer: 2
Layer: 3
EndChar

StartChar: beta
Encoding: 472 946 414
Width: 525
VWidth: 0
Flags: W
HStem: 2.76953 58.2305<135 368.07> 316 54<207.188 338.203> 611 56<192.792 334.816>
VStem: 75 60<-185 2.76953 61 545.937> 386 60<418.415 559.252> 405 60<99.9777 257.49>
LayerCount: 4
Back
Fore
SplineSet
362.415039062 345.583007812 m 1xf8
 372.348632812 342.0546875 l 2
 429.77734375 321.653320312 465 257.990234375 465 189.524414062 c 0xf4
 465 88.431640625 420.469726562 2.76953125 307.5 2.76953125 c 0
 135 2.76953125 l 1
 135 -185 l 1
 75 -185 l 1
 75 454.505859375 l 0
 75 604.654296875 159.271484375 667 270 667 c 0
 375.256835938 667 446 585.34765625 446 493 c 0
 446 430.823242188 413.8515625 377.619140625 371.384765625 351.169921875 c 0
 362.415039062 345.583007812 l 1xf8
135 454.344726562 m 0
 135 61 l 1
 307.5 61 l 0
 383.0859375 61 405 124.360351562 405 189 c 0xf4
 405 254.8359375 351.555664062 316 270 316 c 0
 207.1875 316 l 1
 207.1875 370 l 1
 270 370 l 0
 346.903320312 370 386 429.168945312 386 493 c 0xf8
 386 553.685546875 336.420593262 611 270 611 c 0
 191.44921875 611 135 561.456054688 135 454.344726562 c 0
EndSplineSet
Layer: 2
Layer: 3
EndChar

StartChar: gamma
Encoding: 473 947 415
Width: 556
VWidth: 0
Flags: W
HStem: 415 52<45 110.9>
VStem: 269.525 61.3726<-185 -4.02637>
LayerCount: 4
Back
Fore
SplineSet
45 415 m 1
 45 467 l 1
 70 467 l 0
 113.28515625 467 155.192382812 445.056640625 173.962963279 397.169921875 c 0
 300.206736526 62.3466796875 l 1
 455.404296875 467 l 1
 518.583007812 467 l 1
 330.897698343 -4.0263671875 l 1
 330.897698343 -185 l 1
 269.525139418 -185 l 1
 269.525139418 -4.0263671875 l 1
 118.627929688 379.893554688 l 0
 108.897460938 403.678710938 89.013671875 415 70 415 c 0
 45 415 l 1
EndSplineSet
Layer: 2
Layer: 3
EndChar

StartChar: delta
Encoding: 474 948 416
Width: 511
VWidth: 0
Flags: W
HStem: 157 360<87 385>
VStem: 87 298<157 517>
LayerCount: 4
Back
Fore
SplineSet
87 157 m 1
 87 517 l 1
 385 517 l 1
 385 157 l 1
 87 157 l 1
EndSplineSet
Layer: 2
Layer: 3
EndChar

StartChar: pi
Encoding: 185 960 417
Width: 520
VWidth: 0
Flags: W
HStem: -6 56<423.324 470> 411 56<50 110 170 350 410 460>
VStem: 110 60<0 411> 350 60<63.1088 411>
LayerCount: 4
Back
Fore
SplineSet
410 411 m 1
 410 119 l 2
 410 71.8818359375 436.990234375 50 465 50 c 0
 470 50 l 1
 470 -6 l 1
 465 -6 l 0
 408.413085938 -6 350 32.8134765625 350 119 c 0
 350 411 l 1
 170 411 l 1
 170 0 l 1
 110 0 l 1
 110 411 l 1
 50 411 l 1
 50 467 l 1
 460 467 l 1
 460 411 l 1
 410 411 l 1
EndSplineSet
Layer: 2
Layer: 3
EndChar

StartChar: kgreenlandic
Encoding: 483 312 426
Width: 447
VWidth: 0
Flags: W
VStem: 75 58<5 138.661 213.016 472>
LayerCount: 4
Back
Fore
SplineSet
75 5 m 1
 75 472 l 1
 133 472 l 1
 133 213.015625 l 1
 317.498046875 472 l 1
 386.842773438 472 l 1
 229.815231759 260.140625 l 1
 402.396484375 5 l 1
 333.6171875 5 l 1
 194.150390625 220.55859375 l 1
 133 138.661132812 l 1
 133 5 l 1
 75 5 l 1
EndSplineSet
Layer: 2
Layer: 3
EndChar

StartChar: uni0311
Encoding: 484 785 427
Width: 368
VWidth: 0
Flags: W
HStem: 631 42<120.924 247.094>
VStem: 50 41.0332<546 600.645> 277.782 40.0371<546 598.075>
AnchorPoint: "Top" 189 477 mark 0
LayerCount: 4
Back
Fore
SplineSet
91.033203125 546 m 1
 50 546 l 1
 52.8544921875 623.596679688 110.872070312 673 183.909179688 673 c 0
 257.595703125 673 315.008789062 622.399414062 317.819335938 546 c 1
 277.782226562 546 l 1
 274.984375 599.485351562 238.494140625 631 183.909179688 631 c 0
 128.577148438 631 93.6796875 598.068359375 91.033203125 546 c 1
EndSplineSet
Layer: 2
Layer: 3
EndChar

StartChar: gravecomb
Encoding: 485 768 428
Width: 247
Flags: W
HStem: 546 111
VStem: 50 138.33
AnchorPoint: "Top" 156 477 mark 0
LayerCount: 4
Back
Fore
SplineSet
128.892578125 546 m 1
 50 657 l 1
 119.528320312 657 l 1
 188.330078125 546 l 1
 128.892578125 546 l 1
EndSplineSet
Layer: 2
Layer: 3
EndChar

StartChar: acutecomb
Encoding: 486 769 429
Width: 247
Flags: W
HStem: 546 111
VStem: 50 138.33
AnchorPoint: "Top" 101 477 mark 0
LayerCount: 4
Back
Fore
SplineSet
118.801757812 657 m 1
 188.330078125 657 l 1
 109.4375 546 l 1
 50 546 l 1
 118.801757812 657 l 1
EndSplineSet
Layer: 2
Layer: 3
EndChar

StartChar: uni0237
Encoding: 487 567 430
Width: 215
VWidth: 0
Flags: W
HStem: -190 52<0 64.3131>
VStem: 80 60<-123.814 467>
LayerCount: 4
Back
Fore
SplineSet
140 467 m 1
 140 -65 l 2
 140 -151.189453125 81.5869140625 -190 25 -190 c 0
 0 -190 l 1
 0 -138 l 1
 25 -138 l 0
 53.154296875 -138 80 -115.903320312 80 -65 c 0
 80 467 l 1
 140 467 l 1
EndSplineSet
Layer: 2
Layer: 3
EndChar

StartChar: dagger
Encoding: 160 8224 431
Width: 344
VWidth: 0
Flags: W
HStem: 422 50<55 142 202 289>
VStem: 142 60<-185 422 472 662>
LayerCount: 4
Back
Fore
SplineSet
142 472 m 1
 142 662 l 1
 202 662 l 1
 202 472 l 1
 289 472 l 1
 289 422 l 1
 202 422 l 1
 202 -185 l 1
 142 -185 l 1
 142 422 l 1
 55 422 l 1
 55 472 l 1
 142 472 l 1
EndSplineSet
Layer: 2
Layer: 3
EndChar

StartChar: daggerdbl
Encoding: 224 8225 432
Width: 344
VWidth: 0
Flags: W
HStem: 0 50.5996<55 142 202 289> 422 50<55 142 202 289>
VStem: 142 60<-185 0 50.5996 422 472 662>
LayerCount: 4
Back
Fore
SplineSet
142 472 m 1
 142 662 l 1
 202 662 l 1
 202 472 l 1
 289 472 l 1
 289 422 l 1
 202 422 l 1
 202 50.599609375 l 1
 289 50.599609375 l 1
 289 0 l 1
 202 0 l 1
 202 -185 l 1
 142 -185 l 1
 142 0 l 1
 55 0 l 1
 55 50.599609375 l 1
 142 50.599609375 l 1
 142 422 l 1
 55 422 l 1
 55 472 l 1
 142 472 l 1
EndSplineSet
Layer: 2
Layer: 3
EndChar

StartChar: uniFB01
Encoding: 222 64257 433
Width: 482
VWidth: 0
Flags: W
HStem: 426 51<45 105 165 341> 550 84<333.357 408.62> 615 52<178.898 267.029>
VStem: 105 60<10 426 477 603.308> 329 84<554.655 629.345> 341 60<10 426>
LayerCount: 4
Back
Fore
SplineSet
45 426 m 1xb4
 45 477 l 1
 105 477 l 1
 105 542 l 0
 105 628.189453125 163.413085938 667 216.014492754 667 c 0
 267.028985507 667 l 1
 267.028985507 615 l 1
 216.014492754 615 l 0
 189.822463768 615 165 591.877929688 165 542 c 0
 165 477 l 1
 401 477 l 1
 401 10 l 1
 341 10 l 1
 341 426 l 1
 165 426 l 1
 165 10 l 1
 105 10 l 1
 105 426 l 1
 45 426 l 1xb4
329 592 m 0xd8
 329 617.346679688 346.666992188 634 370 634 c 0
 395.493164062 634 413 617.25 413 592 c 0
 413 566.749023438 395.493164062 550 370 550 c 0
 346.666992188 550 329 566.653320312 329 592 c 0xd8
EndSplineSet
Layer: 2
Layer: 3
EndChar

StartChar: uniFB02
Encoding: 223 64258 434
Width: 476
VWidth: 0
Flags: W
HStem: 426 51<45 105 165 259.886> 615 52<179.539 341>
VStem: 105 60<10 426 477 600.814> 341 60<10 615>
LayerCount: 4
Back
SplineSet
45 477 m 1
 105 477 l 1
 105 527 l 2
 105 616 166 657 225 657 c 2
 285 657 l 1
 285 595 l 1
 225 595 l 2
 200 595 175 575 175 527 c 2
 175 477 l 1
 421 477 l 1
 421 0 l 1
 351 0 l 1
 351 416 l 1
 175 416 l 1
 175 0 l 1
 105 0 l 1
 105 416 l 1
 45 416 l 1
 45 477 l 1
EndSplineSet
Fore
SplineSet
45 426 m 1
 45 477 l 1
 105 477 l 1
 105 542 l 0
 105 628.189453125 163.413085938 667 217.443181818 667 c 0
 401 667 l 1
 401 10 l 1
 341 10 l 1
 341 615 l 1
 217.443181818 615 l 0
 190.809348366 615 165 591.877929688 165 542 c 0
 165 477 l 1
 259.886363636 477 l 1
 259.886363636 426 l 1
 165 426 l 1
 165 10 l 1
 105 10 l 1
 105 426 l 1
 45 426 l 1
EndSplineSet
Layer: 2
Layer: 3
EndChar

StartChar: paragraph
Encoding: 166 182 435
Width: 522
VWidth: 0
Flags: W
HStem: 0 21G<205 268 374 437> 598 59<268 374>
VStem: 55 213<357.524 555.331> 205 63<0 262.032> 374 63<0 598>
LayerCount: 4
Back
Fore
SplineSet
250 657 m 0xe8
 437 657 l 1
 437 0 l 1
 374 0 l 1
 374 598 l 1
 268 598 l 1
 268 0 l 1
 205 0 l 1
 205 262.032226562 l 1xd8
 201.059570312 262.88671875 l 0
 120.145507812 280.43359375 55 343.2578125 55 457 c 0
 55 594.122070312 146.228515625 657 250 657 c 0xe8
EndSplineSet
Layer: 2
Layer: 3
EndChar

StartChar: Omega
Encoding: 189 8486 436
Width: 580
VWidth: 0
Flags: W
HStem: 0 54.8145<65 148.952 195.803 236.863 343.447 384.802 431.359 515> 613 60<197.852 382.379>
VStem: 65 64<156.416 541.104> 451 64<156.826 541.102>
LayerCount: 4
Back
SplineSet
350 64 m 5
 535 64 l 5
 535 0 l 5
 350 0 l 5
 350 64 l 5
65 64 m 5
 250 64 l 5
 250 0 l 5
 65 0 l 5
 65 64 l 5
250 19 m 5
 163 19 65 96 65 302 c 6
 65 446 l 6
 65 611 173 673 300 673 c 4
 427 673 535 611 535 446 c 6
 535 302 l 6
 535 96 437 19 350 19 c 5
 350 64 l 5
 400 64 461 144 461 302 c 6
 461 446 l 6
 461 563 390 603 300 603 c 4
 210 603 139 563 139 446 c 6
 139 302 l 6
 139 144 200 64 250 64 c 5
 250 19 l 5
EndSplineSet
Fore
SplineSet
236.863354037 55.13671875 m 1
 236.863354037 0 l 1
 65 0 l 1
 65 54.814453125 l 1
 148.951547943 54.814453125 l 1
 140.448684977 63.51953125 l 0
 97.7451171875 105.927734375 65 181.577148438 65 301.479492188 c 0
 65 447.651367188 l 0
 65 611.979492188 168.824364325 673 290.155279503 673 c 0
 411.487140916 673 515 611.975585938 515 447.651367188 c 0
 515 301.479492188 l 0
 515 181.577148438 482.25390625 105.927734375 439.86187403 63.51953125 c 0
 431.359011064 54.814453125 l 1
 515 54.814453125 l 1
 515 0 l 1
 343.447204969 0 l 1
 343.447204969 55.13671875 l 1
 396.083389946 60.6923828125 451 146.098632812 451 301.92578125 c 0
 451 448.313476562 l 0
 451 570.319335938 379.052115683 613 290.155279503 613 c 0
 201.258443323 613 129 570.319335938 129 448.313476562 c 0
 129 301.92578125 l 0
 129 145.21484375 185.039038238 60.607421875 236.863354037 55.13671875 c 1
EndSplineSet
Layer: 2
Layer: 3
EndChar

StartChar: logicalnot
Encoding: 194 172 437
Width: 490
Flags: W
HStem: 233 46<80 360>
VStem: 360 50<84 233>
LayerCount: 4
Back
Fore
SplineSet
80 233 m 1
 80 279 l 1
 410 279 l 1
 410 84 l 1
 360 84 l 1
 360 233 l 1
 80 233 l 1
EndSplineSet
Layer: 2
Layer: 3
EndChar

StartChar: radical
Encoding: 195 8730 438
Width: 487
Flags: W
HStem: 0 21G<193.458 266.434>
LayerCount: 4
Back
Fore
SplineSet
206.237304688 0 m 1
 35 268 l 1
 87.8896484375 268 l 1
 227.447265625 41.0849609375 l 1
 399.377929688 657 l 1
 445.978515625 657 l 1
 260.796875 -0 l 1
 206.237304688 0 l 1
EndSplineSet
Layer: 2
Layer: 3
EndChar

StartChar: approxequal
Encoding: 197 8776 439
Width: 500
VWidth: 0
Flags: W
HStem: 124 44<270.247 379.701> 189 44<115.052 229.288> 264 44<270.247 379.701> 329 44<115.052 229.288>
LayerCount: 4
Back
Fore
SplineSet
173.279296875 189 m 0
 148.526367188 189 122.568359375 176.856445312 93.8349609375 150.415039062 c 1
 68 183.515625 l 1
 104.54296875 217.936523438 139.8984375 233 173.279296875 233 c 0
 204.52832462 233 231.312903926 220.54296875 258.411312181 199.022460938 c 1
 280.767115723 179.857421875 302.120109522 168 325.279296875 168 c 0
 350.2890625 168 374.549804688 182.279296875 402.744140625 209.453125 c 1
 428.634765625 175.470703125 l 1
 391.849609375 139.846679688 356.616210938 124 323.279296875 124 c 0
 295.790323921 124 267.271569132 136.342773438 238.134174519 160.993164062 c 1
 217.485492239 177.254882812 198.132707084 189 173.279296875 189 c 0
173.279296875 329 m 0
 148.526367188 329 122.568359375 316.856445312 93.8349609375 290.415039062 c 1
 68 323.515625 l 1
 104.54296875 357.936523438 139.8984375 373 173.279296875 373 c 0
 204.52832462 373 231.312903926 360.54296875 258.411312181 339.022460938 c 1
 280.767115723 319.857421875 302.120109522 308 325.279296875 308 c 0
 350.2890625 308 374.549804688 322.279296875 402.744140625 349.453125 c 1
 428.634765625 315.470703125 l 1
 391.849609375 279.846679688 356.616210938 264 323.279296875 264 c 0
 295.790323921 264 267.271569132 276.342773438 238.134174519 300.993164062 c 1
 217.485492239 317.254882812 198.132707084 329 173.279296875 329 c 0
EndSplineSet
Layer: 2
Layer: 3
EndChar

StartChar: summation
Encoding: 183 8721 440
Width: 480
VWidth: 0
Flags: W
HStem: 0 60<141.569 420> 597 60<141.245 419>
LayerCount: 4
Back
Fore
SplineSet
277.846153846 351.634765625 m 1
 277.846153846 324.27734375 l 1
 141.569335938 60 l 1
 420 60 l 1
 420 0 l 1
 60 0 l 1
 60 33.689453125 l 1
 226.872295673 337.072265625 l 1
 60 623.377929688 l 1
 60 657 l 1
 419 657 l 1
 419 597 l 1
 141.245117188 597 l 1
 277.846153846 351.634765625 l 1
EndSplineSet
Layer: 2
Layer: 3
EndChar

StartChar: Delta
Encoding: 198 8710 441
Width: 629
Flags: W
HStem: 0 63<121.495 503.915>
LayerCount: 4
Back
Fore
SplineSet
589.419921875 -0 m 1
 35 0 l 1
 284.997323015 657 l 1
 340.377577702 657 l 1
 589.419921875 -0 l 1
121.495117188 63 m 1
 503.915039062 63 l 1
 312.68981651 587.264648438 l 1
 121.495117188 63 l 1
EndSplineSet
Layer: 2
Layer: 3
EndChar

StartChar: r.alt
Encoding: 488 57364 442
Width: 369
VWidth: 0
Flags: W
HStem: 0 21G<65 123.186> 416 56<185.414 314>
VStem: 65 58.0371<0 346.49>
LayerCount: 4
Back
Fore
SplineSet
65 0 m 1
 65 263.793945312 l 2
 65 406.515625 160.423828125 472 255 472 c 0
 314 472 l 1
 314 416 l 1
 255 416 l 0
 190.25390625 416 125 365.868164062 125 264.212890625 c 0
 123.037109375 0 l 1
 65 0 l 1
EndSplineSet
Layer: 2
Layer: 3
EndChar

StartChar: a.alt
Encoding: 489 57344 443
Width: 477
VWidth: 0
Flags: W
HStem: 0 61<152.269 348> 238 51<156.18 348> 418 54<88 306.472>
VStem: 58 59<91.9836 202.24> 348 61<61 233.456 283.172 373.17>
LayerCount: 4
Back
SplineSet
348 170 m 6
 348 229 l 5
 322 232 298 233 277 233 c 4
 175 233 127 206 127 140 c 4
 127 92 171 60 237 60 c 4
 314 60 348 96 348 170 c 6
419 176 m 6
 419 59 347 -6 237 -6 c 4
 138 -6 58 55 58 146 c 4
 58 236 136 294 275 294 c 4
 298 294 322 293 348 289 c 5
 348 377 304 413 241 413 c 4
 190 413 88 413 88 413 c 5
 88 477 l 5
 88 477 176 477 241 477 c 4
 337 477 419 425 419 290 c 6
 419 176 l 6
EndSplineSet
Fore
SplineSet
232 61 m 0
 348 61 l 1
 348 233.456054688 l 1
 343.573242188 233.966796875 l 0
 317.350585938 236.993164062 293.159179688 238 272 238 c 0
 169.8125 238 117 213.24609375 117 143 c 0
 117 90.962890625 164.9609375 61 232 61 c 0
236 472 m 0
 329.861328125 472 409 421.684570312 409 288.051757812 c 0
 409 0 l 1
 232 0 l 0
 134.728515625 0 58 57.5615234375 58 146.53515625 c 0
 58 234.037109375 131.93359375 289 270 289 c 0
 292.85546875 289 316.57421875 288.006835938 342.239257812 284.05859375 c 0
 348 283.171875 l 1
 348 289 l 0
 348 379.172851562 301.637695312 418 236 418 c 0
 88 418 l 1
 88 472 l 1
 236 472 l 0
EndSplineSet
Layer: 2
Layer: 3
EndChar

StartChar: b.alt
Encoding: 490 57345 444
Width: 480
VWidth: 0
Flags: W
HStem: 0 61<135 307.78> 416 56<135 307.78>
VStem: 75 60<61 416 472 662> 365.8 59.2<125.51 352.014>
LayerCount: 4
Back
SplineSet
270 60 m 4
 332 60 395 106 395 204 c 6
 395 267 l 6
 395 365 332 411 270 411 c 6
 145 411 l 5
 145 205 l 6
 145 106 208 60 270 60 c 4
270 -6 m 4
 174 -6 75 60 75 204 c 6
 75 667 l 5
 145 667 l 5
 145 477 l 5
 270 477 l 6
 367 477 465 410 465 267 c 6
 465 205 l 6
 465 61 367 -6 270 -6 c 4
EndSplineSet
Fore
SplineSet
135 61 m 1
 241 61 l 2
 303.105625 61 365.8 109.463867188 365.8 210 c 0
 365.8 267 l 0
 365.8 367.536132812 303.105625 416 241 416 c 0
 135 416 l 1
 135 61 l 1
425 208.206054688 m 0
 425 65.484375 331.793125 0 241 0 c 2
 75 0 l 1
 75 662 l 1
 135 662 l 1
 135 472 l 1
 241 472 l 0
 331.804375 472 425 406.498046875 425 264.8046875 c 0
 425 208.206054688 l 0
EndSplineSet
Layer: 2
Layer: 3
EndChar

